<?xml version="1.0" standalone="no"?>
<!DOCTYPE svg PUBLIC "-//W3C//DTD SVG 20010904//EN"
 "http://www.w3.org/TR/2001/REC-SVG-20010904/DTD/svg10.dtd">
<svg version="1.0" xmlns="http://www.w3.org/2000/svg"
 width="128.000000pt" height="128.000000pt" viewBox="0 0 128.000000 128.000000"
 preserveAspectRatio="xMidYMid meet">
<metadata>
Created by potrace 1.14, written by Peter Selinger 2001-2017
</metadata>
<g transform="translate(0.000000,128.000000) scale(0.100000,-0.100000)"
fill="#000000" stroke="none">
<path d="M480 1265 c-233 -65 -407 -242 -466 -475 -24 -96 -16 -272 18 -362
71 -189 205 -323 396 -396 61 -24 80 -26 212 -26 132 0 151 2 212 26 98 37
173 85 242 154 69 69 117 144 154 242 24 61 26 80 26 212 0 132 -2 151 -26
212 -73 191 -207 325 -396 396 -86 32 -284 41 -372 17z m310 -82 c193 -53 355
-220 401 -413 70 -296 -125 -611 -421 -681 -192 -45 -398 18 -539 166 -170
179 -203 423 -89 649 35 69 129 172 199 216 127 82 296 106 449 63z"/>
<path d="M551 968 c-5 -13 -68 -158 -140 -322 -72 -165 -131 -308 -131 -318 0
-28 35 -22 50 10 6 15 64 146 127 292 64 146 117 266 118 268 2 2 15 -32 29
-76 l26 -78 -85 -209 c-47 -114 -84 -214 -81 -222 14 -35 41 -5 76 82 l36 90
71 3 71 3 32 -96 c31 -92 52 -118 66 -80 3 8 -26 107 -65 219 l-70 205 31 76
c17 42 34 72 39 68 4 -4 53 -134 110 -288 56 -154 107 -283 113 -287 6 -4 17
-2 23 5 10 10 -12 80 -109 345 -141 382 -139 380 -190 252 -16 -41 -33 -78
-37 -82 -4 -5 -20 30 -36 77 -22 64 -34 85 -48 85 -9 0 -21 -10 -26 -22z m122
-426 c-12 -2 -34 -2 -47 0 l-24 3 26 64 26 65 21 -65 22 -64 -24 -3z"/>
</g>
</svg>
