<?xml version="1.0" encoding="utf-8"?>
<!-- Generator: Adobe Illustrator 26.5.0, SVG Export Plug-In . SVG Version: 6.00 Build 0)  -->
<svg version="1.1" id="Layer_1" xmlns="http://www.w3.org/2000/svg" xmlns:xlink="http://www.w3.org/1999/xlink" x="0px" y="0px"
	 viewBox="0 0 640.84 427.84" enable-background="new 0 0 640.84 427.84" xml:space="preserve">
<g>
	<path display="none" fill="none" stroke="#000000" d="M101.3,111.14"/>
	<path display="none" fill="none" stroke="#000000" d="M102.42,109.75"/>
	<path display="none" fill="none" stroke="#000000" d="M103.47,108.47"/>
	<path display="none" fill="none" stroke="#000000" d="M104.44,107.28"/>
	<path display="none" fill="none" stroke="#000000" d="M105.34,106.16"/>
	<path display="none" fill="none" stroke="#000000" d="M39.7,186.82c-1.07,6.22-1.73,12.64-1.97,19.19"/>
	<path display="none" fill="none" stroke="#000000" d="M106.2,105.11"/>
	<path display="none" fill="none" stroke="#000000" d="M54.22,168.97c-3.29,12.93-4.73,27.08-4.45,41.76"/>
	<path display="none" fill="none" stroke="#000000" d="M107.06,104.06"/>
	<path display="none" fill="none" stroke="#000000" d="M68.18,151.83c-6.26,18.43-7.95,40.35-6.21,63.41"/>
	<path display="none" fill="none" stroke="#000000" d="M107.99,102.91"/>
	<path display="none" fill="none" stroke="#000000" d="M81.4,135.58c-10.28,22.6-11.34,52.25-7.14,83.94"/>
	<path display="none" fill="none" stroke="#000000" d="M109.31,101.29"/>
	<path display="none" fill="none" stroke="#000000" d="M94.39,119.63c-1.62,2.65-3.1,5.4-4.41,8.26
		c-11.49,25.18-10.32,59.06-3.35,95.68"/>
	<path display="none" fill="none" stroke="#000000" d="M103.36,108.6c-3.92,6.3-7.21,12.98-9.46,20.26
		c-8.3,26.87-4.14,61.21,5.13,98.47"/>
	<path display="none" fill="none" stroke="#000000" d="M105.85,105.54c-3.68,7.61-6.56,15.65-8.09,24.35
		c-4.95,28.38,2.01,63.08,13.65,100.91"/>
	<path display="none" fill="none" stroke="#000000" d="M106.68,104.52c-2.73,8.32-4.61,17.09-5.09,26.44
		c-1.51,29.68,8.11,64.68,22.14,102.98"/>
	<path display="none" fill="none" stroke="#000000" d="M107.02,104.1c-1.57,8.87-2.28,18.18-1.65,27.99
		c1.98,30.74,14.12,66,30.53,104.63"/>
	<path display="none" fill="none" stroke="#000000" d="M107.15,103.95c-0.32,9.34,0.22,19.11,1.98,29.32
		c5.46,31.56,20.01,67,38.77,105.85"/>
	<path display="none" fill="none" stroke="#000000" d="M107.12,103.97c0.98,9.75,2.82,19.94,5.74,30.53
		c8.86,32.14,25.75,67.7,46.78,106.58"/>
	<path display="none" fill="none" stroke="#000000" d="M107,104.13c2.33,10.14,5.48,20.71,9.59,31.68
		c12.17,32.49,31.31,68.06,54.51,106.82"/>
	<path display="none" fill="none" stroke="#000000" d="M106.79,104.38c3.7,10.51,8.19,21.44,13.51,32.78
		c15.33,32.65,36.67,68.08,61.88,106.52"/>
	<path display="none" fill="none" stroke="#000000" d="M106.5,104.74c5.11,10.87,10.95,22.15,17.52,33.84
		c18.35,32.61,41.78,67.76,68.85,105.66"/>
	<path display="none" fill="none" stroke="#000000" d="M106.13,105.2c6.56,11.23,13.76,22.85,21.62,34.86
		c21.2,32.4,46.62,67.09,75.36,104.24"/>
	<path display="none" fill="none" stroke="#000000" d="M105.66,105.77c8.04,11.58,16.65,23.52,25.83,35.83
		c23.88,32.02,51.17,66.07,81.37,102.24"/>
	<path display="none" fill="none" stroke="#000000" d="M105.11,106.45c9.58,11.93,19.63,24.18,30.16,36.75
		c26.37,31.5,55.4,64.7,86.85,99.67"/>
	<path display="none" fill="none" stroke="#000000" d="M104.45,107.26c11.17,12.28,22.71,24.81,34.61,37.61
		c28.66,30.82,59.29,62.99,91.77,96.53"/>
	<path display="none" fill="none" stroke="#000000" d="M103.7,108.18c12.81,12.61,25.88,25.41,39.21,38.41
		c30.77,30,62.82,60.95,96.12,92.84"/>
	<path display="none" fill="none" stroke="#000000" d="M102.83,109.25c46.6,41.53,94.55,84.12,143.85,127.76"/>
	<path display="none" fill="none" stroke="#000000" d="M101.86,110.45c50.66,41.23,101.32,82.46,151.98,123.69"/>
	<path display="none" fill="none" stroke="#000000" d="M100.76,111.8c54.58,40.83,107.82,80.53,159.72,119.09"/>
	<path display="none" fill="none" stroke="#000000" d="M99.53,113.3c20.04,13.85,39.79,27.44,59.23,40.76
		c37.15,25.45,73.1,49.85,107.88,73.2"/>
	<path display="none" fill="none" stroke="#000000" d="M98.16,114.98c22.04,14.12,43.61,27.82,64.71,41.08
		c38.23,24.02,74.71,46.45,109.49,67.28"/>
	<path display="none" fill="none" stroke="#000000" d="M96.64,116.85c24.12,14.37,47.59,28.14,70.41,41.26
		c39.1,22.48,75.94,42.85,110.62,61.05"/>
	<path display="none" fill="none" stroke="#000000" d="M94.96,118.93c26.29,14.58,51.74,28.37,76.35,41.27
		c39.77,20.84,76.82,39.05,111.29,54.56"/>
	<path display="none" fill="none" stroke="#000000" d="M93.08,121.23c28.56,14.76,56.09,28.51,82.55,41.08
		c40.25,19.11,77.36,35.09,111.54,47.88"/>
	<path display="none" fill="none" stroke="#000000" d="M90.99,123.8c30.94,14.88,60.64,28.54,89.04,40.66
		c40.52,17.29,77.58,30.96,111.39,41.03"/>
	<path display="none" fill="none" stroke="#000000" d="M88.65,126.67c33.45,14.93,65.42,28.44,95.84,39.97
		c40.61,15.39,77.5,26.68,110.87,34.09"/>
	<path display="none" fill="none" stroke="#000000" d="M86.03,129.89c36.09,14.88,70.47,28.16,103,38.94
		c40.52,13.42,77.12,22.26,110,27.08"/>
	<path display="none" fill="none" stroke="#000000" d="M83.07,133.53c38.88,14.71,75.82,27.69,110.57,37.52
		c40.26,11.38,76.47,17.7,108.81,20.06"/>
	<path display="none" fill="none" stroke="#000000" d="M79.71,137.66c41.86,14.36,81.53,26.95,118.62,35.6
		c39.83,9.28,75.53,13.03,107.3,13.04"/>
	<path display="none" fill="none" stroke="#000000" d="M75.84,142.41c45.05,13.75,87.68,25.87,127.24,33.05
		c39.24,7.12,74.31,8.27,105.5,6.08"/>
	<path display="none" fill="none" stroke="#000000" d="M71.33,147.95c48.49,12.77,94.36,24.32,136.57,29.71
		c38.51,4.91,72.81,3.45,103.4-0.81"/>
	<path display="none" fill="none" stroke="#000000" d="M73.29,156.11c49.55,10.66,96.54,20.69,139.49,23.73
		c37.64,2.65,71.03-1.4,101.01-7.59"/>
	<path display="none" fill="none" stroke="#000000" d="M82.52,166.25c47.93,7.75,93.6,15.33,135.19,15.74
		c36.64,0.35,68.99-6.23,98.34-14.25"/>
	<path display="none" fill="none" stroke="#000000" d="M92.58,176.61c46.03,4.74,90.12,9.73,130.11,7.49
		c35.51-2,66.71-10.99,95.4-20.76"/>
	<path display="none" fill="none" stroke="#000000" d="M103.41,187.13c43.86,1.66,86.15,3.9,124.3-0.96
		c34.26-4.38,64.19-15.66,92.18-27.11"/>
	<path display="none" fill="none" stroke="#000000" d="M114.96,197.74c41.44-1.49,81.69-2.11,117.82-9.56
		c32.88-6.8,61.48-20.19,88.69-33.27"/>
	<path display="none" fill="none" stroke="#000000" d="M127.16,208.38c38.8-4.63,76.79-8.28,110.71-18.26
		c31.38-9.24,58.57-24.56,84.94-39.23"/>
	<path display="none" fill="none" stroke="#000000" d="M139.95,218.97c35.96-7.8,71.45-14.57,103.04-26.98
		c29.73-11.7,55.51-28.74,80.93-44.97"/>
	<path display="none" fill="none" stroke="#000000" d="M153.27,229.47c32.93-10.92,65.68-20.94,94.86-35.68
		c27.95-14.13,52.32-32.71,76.68-50.48"/>
	<path display="none" fill="none" stroke="#000000" d="M167.04,239.79c29.74-14.02,59.51-27.35,86.23-44.3
		c26.01-16.52,49.01-36.46,72.19-55.73"/>
	<path display="none" fill="none" stroke="#000000" d="M179.69,250.55c53.22-34.26,102-72.36,146.21-114.17"/>
	<path display="none" fill="none" stroke="#000000" d="M195.67,259.65c45.81-40.24,89.57-82.15,130.46-126.46"/>
	<path display="none" fill="none" stroke="#000000" d="M210.38,269.06c38.63-46.26,78.04-91.88,115.79-138.86"/>
	<path display="none" fill="none" stroke="#000000" d="M225.22,278.02c31.14-52.06,66.41-101.11,100.8-150.6"/>
	<path display="none" fill="none" stroke="#000000" d="M240.11,286.45c23.38-57.54,54.76-109.78,85.6-161.59"/>
	<path display="none" fill="none" stroke="#000000" d="M254.95,294.28c7.82-31.62,16.46-62.48,28.93-90.94
		c12.21-27.89,27.81-53.84,41.37-80.81"/>
	<path display="none" fill="none" stroke="#000000" d="M269.63,301.42c3.88-34.14,9.05-67.15,19.25-97.22
		c9.86-29.06,24.14-55.86,35.78-83.76"/>
	<path fill="none" stroke="#000000" d="M284.03,307.79c-0.02-36.44,1.84-71.34,9.8-102.87c7.58-30,20.44-57.62,30.13-86.32"/>
	<path fill="none" stroke="#000000" d="M298.05,313.3c-3.82-38.48-5.04-74.99,0.69-107.8c5.38-30.75,16.73-59.11,24.44-88.47"/>
	<path fill="none" stroke="#000000" d="M311.56,317.88c-7.44-40.22-11.51-78.06-7.96-111.94c3.29-31.3,13-60.32,18.73-90.22"/>
	<path fill="none" stroke="#000000" d="M324.45,321.44c-10.81-41.64-17.47-80.49-16.06-115.2c1.29-31.67,9.25-61.26,13.02-91.54"/>
	<path fill="none" stroke="#000000" d="M336.64,323.92c-13.86-42.69-22.83-82.23-23.49-117.53c-0.58-31.87,5.5-61.91,7.34-92.43"/>
	<path fill="none" stroke="#000000" d="M348.03,325.28c-16.53-43.35-27.52-83.25-30.18-118.86c-2.37-31.91,1.76-62.26,1.7-92.91"/>
	<path fill="none" stroke="#000000" d="M358.56,325.47c-18.79-43.58-31.5-83.51-36.06-119.16c-4.06-31.8-1.96-62.32-3.88-92.96"/>
	<path fill="none" stroke="#000000" d="M368.2,324.5c-20.59-43.39-34.74-82.99-41.1-118.42c-5.66-31.56-5.65-62.09-9.38-92.59"/>
	<path fill="none" stroke="#000000" d="M376.94,322.38c-21.93-42.75-37.23-81.7-45.29-116.64c-7.19-31.18-9.3-61.57-14.79-91.82"/>
	<path fill="none" stroke="#000000" d="M384.82,319.16c-22.79-41.69-38.99-79.66-48.65-113.89c-8.64-30.68-12.9-60.77-20.11-90.66"
		/>
	<path fill="none" stroke="#000000" d="M391.91,314.94c-23.23-40.22-40.11-76.94-51.26-110.23c-10.05-30.06-16.43-59.7-25.32-89.11"
		/>
	<path fill="none" stroke="#000000" d="M398.33,309.82c-23.27-38.4-40.68-73.6-53.21-105.76c-11.43-29.33-19.89-58.37-30.41-87.2"/>
	<path fill="none" stroke="#000000" d="M404.21,303.96c-23-36.28-40.82-69.76-54.66-100.64c-12.77-28.5-23.26-56.81-35.39-84.95"/>
	<path fill="none" stroke="#000000" d="M409.74,297.54c-22.52-33.94-40.7-65.55-55.76-95.01c-14.1-27.57-26.54-55.03-40.23-82.37"/>
	<path fill="none" stroke="#000000" d="M415.13,290.74c-21.95-31.47-40.49-61.11-56.72-89.07c-15.42-26.56-29.73-53.05-44.95-79.49"
		/>
	<path fill="none" stroke="#000000" d="M420.58,283.79c-21.42-28.97-40.37-56.6-57.74-83.01c-16.75-25.46-32.82-50.89-49.54-76.34"
		/>
	<path fill="none" stroke="#000000" d="M426.32,276.88c-41.08-51.74-76.87-101.51-113.03-149.96"/>
	<path fill="none" stroke="#000000" d="M432.54,270.21c-41.38-47.78-80.09-94.47-119.09-140.61"/>
	<path fill="none" stroke="#000000" d="M439.42,263.97c-42.41-44.13-83.9-87.83-125.65-131.48"/>
	<path fill="none" stroke="#000000" d="M447.11,258.3c-44.25-40.88-88.43-81.75-132.82-122.74"/>
	<path fill="none" stroke="#000000" d="M455.7,253.32c-46.9-38.17-93.8-76.34-140.69-114.51"/>
	<path fill="none" stroke="#000000" d="M465.22,249.09c-50.32-36.12-100.03-71.67-149.29-106.88"/>
	<path fill="none" stroke="#000000" d="M475.67,245.64c-54.44-34.8-107.11-67.76-158.59-99.87"/>
	<path fill="none" stroke="#000000" d="M486.95,242.93c-59.17-34.24-114.96-64.58-168.5-93.46"/>
	<path fill="none" stroke="#000000" d="M498.95,240.89c-33.26-17.73-64.79-33.66-94.81-48.18c-28.65-13.86-56.6-26.77-84.06-39.43"
		/>
	<path fill="none" stroke="#000000" d="M511.48,239.43c-36.53-18.24-70.61-33.89-102.52-47.42c-29.9-12.68-58.8-23.89-87-34.8"/>
	<path fill="none" stroke="#000000" d="M524.34,238.39c-39.93-18.92-76.65-34.44-110.49-47.03c-31.12-11.57-60.9-21.04-89.74-30.13"
		/>
	<path fill="none" stroke="#000000" d="M532.65,235.53c-41.49-18.64-79.35-33.49-113.87-44.74c-32.32-10.54-62.89-18.21-92.25-25.46
		"/>
	<path fill="none" stroke="#000000" d="M541.12,233.1c-42.09-17.93-80.42-31.98-115.19-42.02c-34.27-9.89-66.27-16.02-96.69-21.58"
		/>
	<path fill="none" stroke="#000000" d="M547.42,230.26c-17.96-7.27-35.28-13.87-51.96-19.73c-22.28-7.83-43.32-14.28-63.15-19.37
		c-35.93-9.21-69-13.71-100.1-17.42"/>
	<path fill="none" stroke="#000000" d="M552.76,227.65c-16.34-6.29-32.18-12.04-47.5-17.19c-23.68-7.95-45.95-14.36-66.83-19.16
		c-37.44-8.6-71.41-11.5-102.93-13.32"/>
	<path fill="none" stroke="#000000" d="M559.64,225.21c-14.8-5.39-29.23-10.37-43.26-14.87c-25.19-8.07-48.83-14.47-70.9-19
		c-39.24-8.04-74.32-9.38-106.37-9.17"/>
	<path fill="none" stroke="#000000" d="M564.42,222.27c-13.12-4.48-25.97-8.65-38.54-12.47c-26.35-7.99-51.05-14.24-74.04-18.41
		c-40.63-7.35-76.43-7.07-108.56-4.65"/>
	<path fill="none" stroke="#000000" d="M568.82,219.37c-11.48-3.65-22.77-7.08-33.88-10.25c-27.33-7.8-52.96-13.87-76.78-17.65
		c-41.9-6.64-78.36-4.85-110.37-0.14"/>
	<path fill="none" stroke="#000000" d="M573.44,216.39c-9.94-2.91-19.76-5.67-29.46-8.25c-28.17-7.5-54.65-13.3-79.25-16.66
		c-43.15-5.9-80.31-2.67-112.1,4.44"/>
	<path fill="none" stroke="#000000" d="M577.51,213.51c-37.68-10.03-73.32-18.08-106.39-21.93c-44.23-5.14-82.01-0.61-113.32,8.91"
		/>
	<path fill="none" stroke="#000000" d="M582.02,210.47c-36.58-8.68-71.5-15.78-104.18-18.91c-45.29-4.32-83.8,1.43-114.57,13.43"/>
	<path fill="none" stroke="#000000" d="M586.36,207.26c-35.41-7.28-69.55-13.41-101.78-15.78c-46.2-3.39-85.43,3.46-115.5,17.95"/>
	<path fill="none" stroke="#000000" d="M590.11,204.18c-34.13-5.87-67.38-11.01-99.07-12.66c-46.85-2.41-86.73,5.37-115.88,22.24"/>
	<path fill="none" stroke="#000000" d="M594.07,201.44c-32.89-4.49-65.29-8.69-96.44-9.66c-47.38-1.46-87.95,7.09-116.08,26.18"/>
	<path fill="none" stroke="#000000" d="M598.47,198.73c-31.71-3.1-63.34-6.37-94-6.66c-47.84-0.45-89.17,8.76-116.25,29.94"/>
	<path fill="none" stroke="#000000" d="M602.13,195.2c-30.39-1.53-61.12-3.71-91.16-3.19c-47.89,0.85-89.81,10.73-115.79,33.87"/>
	<path fill="none" stroke="#000000" d="M605.28,191.33c-29,0.15-58.79-0.85-88.12,0.57c-47.57,2.33-89.88,12.82-114.74,37.69"/>
	<path fill="none" stroke="#000000" d="M610.24,187.54c-27.9,1.86-57.1,2.02-86.03,4.3c-47.43,3.76-90.36,14.75-114.32,41.22"/>
	<path fill="none" stroke="#000000" d="M615.29,183.7c-26.82,3.72-55.54,5.13-84.13,8.31c-46.99,5.24-90.38,16.59-113.47,44.34"/>
	<path fill="none" stroke="#000000" d="M286.41,326.55c17.48-44.13,28.99-84.41,32.48-120.18c3.1-31.91,0.1-62.35,1.09-93.03"/>
	<path fill="none" stroke="#000000" d="M276.75,325.86c19.28-43.99,32.24-83.99,37.54-119.59c4.71-31.71,3.79-62.23,6.6-92.83"/>
	<path fill="none" stroke="#000000" d="M267.95,324.01c20.64-43.39,34.76-82.78,41.78-117.95c6.25-31.38,7.46-61.82,12.04-92.23"/>
	<path fill="none" stroke="#000000" d="M259.97,321.03c21.54-42.35,36.59-80.79,45.22-115.29c7.72-30.92,11.08-61.13,17.39-91.22"/>
	<path fill="none" stroke="#000000" d="M252.76,317.02c22.01-40.9,37.79-78.1,47.94-111.71c9.15-30.35,14.64-60.16,22.64-89.83"/>
	<path fill="none" stroke="#000000" d="M246.2,312.09c22.11-39.07,38.46-74.79,50.02-107.31c10.54-29.66,18.13-58.94,27.79-88.07"/>
	<path fill="none" stroke="#000000" d="M240.14,306.42c21.9-36.95,38.71-70.96,51.62-102.23c11.91-28.87,21.54-57.48,32.83-85.97"/>
	<path fill="none" stroke="#000000" d="M234.41,300.16c21.5-34.6,38.72-66.74,52.9-96.64c13.27-27.98,24.88-55.8,37.75-83.54"/>
	<path fill="none" stroke="#000000" d="M228.83,293.53c21-32.11,38.64-62.29,54.03-90.73c14.62-27.01,28.13-53.92,42.56-80.8"/>
	<path fill="none" stroke="#000000" d="M223.17,286.74c20.54-29.6,38.66-57.78,55.23-84.7c15.98-25.95,31.29-51.85,47.24-77.79"/>
	<path fill="none" stroke="#000000" d="M217.23,280c39.51-52.95,73.79-103.76,108.49-153.28"/>
	<path fill="none" stroke="#000000" d="M210.81,273.53c39.93-49,77.23-96.82,114.83-144.11"/>
	<path fill="none" stroke="#000000" d="M203.75,267.49c41.07-45.38,81.23-90.3,121.66-135.18"/>
	<path fill="none" stroke="#000000" d="M195.89,262.06c43-42.19,85.95-84.36,129.09-126.66"/>
	<path fill="none" stroke="#000000" d="M187.16,257.34c45.73-39.56,91.47-79.11,137.2-118.67"/>
	<path fill="none" stroke="#000000" d="M177.51,253.4c49.22-37.61,97.84-74.63,146.03-111.3"/>
	<path fill="none" stroke="#000000" d="M166.97,250.26C220.34,213.84,272,179.33,322.5,145.69"/>
	<path fill="none" stroke="#000000" d="M155.61,247.89c58.12-36,112.97-67.99,165.63-98.46"/>
	<path fill="none" stroke="#000000" d="M143.55,246.21c32.72-18.72,63.76-35.58,93.33-51c28.22-14.71,55.77-28.46,82.84-41.93"/>
	<path fill="none" stroke="#000000" d="M130.98,245.12c35.97-19.33,69.56-35.99,101.05-50.47c29.51-13.57,58.06-25.64,85.92-37.39"
		/>
	<path fill="none" stroke="#000000" d="M118.1,244.47c39.34-20.1,75.58-36.72,109.04-50.31c30.76-12.5,60.24-22.85,88.8-32.81"/>
	<path fill="none" stroke="#000000" d="M109.71,241.86c40.92-19.87,78.31-35.85,112.48-48.12c31.99-11.5,62.32-20.09,91.44-28.21"/>
	<path fill="none" stroke="#000000" d="M101.17,239.68c41.54-19.18,79.42-34.38,113.88-45.45c33.96-10.91,65.76-17.99,96.01-24.46"
		/>
	<path fill="none" stroke="#000000" d="M94.78,237.03c17.74-7.81,34.85-14.92,51.34-21.28c22.04-8.5,42.88-15.57,62.54-21.25
		c35.63-10.28,68.56-15.76,99.53-20.41"/>
	<path fill="none" stroke="#000000" d="M89.37,234.59c16.15-6.77,31.8-13,46.96-18.6c23.43-8.65,45.5-15.73,66.23-21.15
		c37.17-9.72,71.04-13.63,102.49-16.39"/>
	<path fill="none" stroke="#000000" d="M82.42,232.35c14.64-5.83,28.9-11.24,42.79-16.15c24.94-8.82,48.38-15.93,70.29-21.11
		c38.99-9.21,74-11.6,106.04-12.35"/>
	<path fill="none" stroke="#000000" d="M77.55,229.55c12.98-4.87,25.7-9.43,38.15-13.62c26.09-8.78,50.6-15.76,73.46-20.62
		c40.39-8.56,76.18-9.35,108.37-7.9"/>
	<path fill="none" stroke="#000000" d="M73.07,226.79c11.36-3.99,22.55-7.76,33.56-11.26c27.08-8.62,52.52-15.45,76.22-19.94
		c41.68-7.89,78.18-7.19,110.31-3.44"/>
	<path fill="none" stroke="#000000" d="M68.37,223.95c9.85-3.2,19.58-6.26,29.2-9.13c27.93-8.34,54.22-14.93,78.72-19.03
		c42.96-7.19,80.2-5.07,112.18,1.08"/>
	<path fill="none" stroke="#000000" d="M64.21,221.19c37.36-11.15,72.74-20.26,105.69-25.11c44.06-6.46,81.95-3.07,113.54,5.51"/>
	<path fill="none" stroke="#000000" d="M59.61,218.29c36.3-9.77,70.99-17.92,103.56-22.02c45.14-5.67,83.8-1.08,114.92,10"/>
	<path fill="none" stroke="#000000" d="M55.18,215.21c35.17-8.34,69.12-15.48,101.27-18.82c46.08-4.77,85.5,0.91,115.99,14.49"/>
	<path fill="none" stroke="#000000" d="M51.33,212.24c33.94-6.88,67.02-13.02,98.64-15.62c46.75-3.81,86.85,2.77,116.49,18.76"/>
	<path fill="none" stroke="#000000" d="M47.29,209.62c32.74-5.47,65-10.64,96.11-12.54c47.32-2.88,88.12,4.46,116.81,22.69"/>
	<path fill="none" stroke="#000000" d="M42.81,207.04c31.6-4.05,63.12-8.26,93.75-9.47c47.8-1.88,89.39,6.09,117.1,26.45"/>
	<path fill="none" stroke="#000000" d="M39.05,203.62c30.33-2.44,60.98-5.54,91.02-5.91c47.89-0.58,90.09,8.03,116.75,30.39"/>
	<path fill="none" stroke="#000000" d="M35.79,199.85c28.99-0.71,58.73-2.61,88.1-2.07c47.62,0.91,90.22,10.13,115.82,34.24"/>
	<path fill="none" stroke="#000000" d="M30.71,196.21c27.95,1.02,57.13,0.31,86.12,1.73c47.52,2.34,90.77,12.04,115.5,37.78"/>
	<path fill="none" stroke="#000000" d="M25.55,192.52c26.92,2.91,55.67,3.47,84.34,5.79c47.13,3.83,90.83,13.87,114.74,40.93"/>
</g>
</svg>
