<?xml version="1.0" encoding="utf-8"?>
<svg version="1.1" id="Layer_1" xmlns="http://www.w3.org/2000/svg" xmlns:xlink="http://www.w3.org/1999/xlink" x="0px" y="0px"
	 viewBox="0 0 315 28" enable-background="new 0 0 315 28" xml:space="preserve">
<g>
	<path d="M0.99,26.93h9.87v-9.84h16.16v9.84h9.84V1.07h-9.84v9.14H10.86V1.07H0.99C0.99,1.07,0.99,26.93,0.99,26.93z"/>
	<path d="M53.72,26.93h9.87v-9.66l13.83-16.2H66.61L58.93,10l-7.54-8.93H39.57l14.15,16.13L53.72,26.93L53.72,26.93z"/>
	<path d="M80.13,26.93h18.39c15.4,0,18.63-6.71,18.63-12.58V13.3c0-6.08-3.75-12.23-18.66-12.23H80.13
		C80.13,1.07,80.13,26.93,80.13,26.93z M90,7.84h7.33c8.62,0,9.56,3.72,9.56,5.98v0.21c0,2.26-0.94,6.05-9.56,6.05H90V7.84z"/>
	<path d="M131.11,7.35h11.33c2.23,0,2.99,0.97,2.99,2.19v0.04c0,1.25-0.8,2.22-2.99,2.22h-11.33V7.35z M131.11,18.06h9.45
		c3.89,0,5.25,1.53,5.25,4.48v3.02c0,0.73,0.07,1.08,0.31,1.36h10.08v-0.17c-0.24-0.45-0.49-1.11-0.49-2.92v-3.82
		c0-3.34-2.12-5.42-5.32-6.15c1.95-0.45,5.21-2.02,5.21-5.77V7.7c0-4.21-3.34-6.64-10.88-6.64h-23.49v25.86h9.87L131.11,18.06
		L131.11,18.06z"/>
	<path d="M178.04,0.59c-16.75,0-18.87,7.96-18.87,12.82v1.04c0,4.83,2.12,12.96,18.87,12.96h1.56c16.72,0,18.84-8.13,18.84-12.96
		v-1.04c0-4.87-2.15-12.82-18.84-12.82H178.04z M188.22,14.14c0,2.78-1.77,6.29-9.42,6.29s-9.42-3.65-9.42-6.36v-0.42
		c0-2.75,1.63-6.12,9.42-6.12c7.65,0,9.42,3.37,9.42,6.12V14.14L188.22,14.14z"/>
	<path d="M220.02,27.41c8.06,0,11.3-2.95,12.3-4.07c0.49,0.94,1.04,2.75,1.22,3.58h6.22V12.37h-19.15v5.04h9.07
		c0,0.83-2.15,3.23-8.83,3.23c-6.4,0-8.86-3.23-8.86-6.53v-0.38c0-3.41,1.98-6.4,8.93-6.4c7.3,0,8.2,2.61,8.38,3.27h10.29v-0.03
		c-0.14-3.62-2.29-9.98-18.14-9.98h-1.36c-15.26,0-18.32,7.26-18.32,12.82v0.97c0,5.46,3.3,13.03,17.45,13.03H220.02z"/>
	<path d="M244.67,1.07v25.86h28.88v-6.46H254.4v-3.54h18.49v-6.29H254.4V7.39h18.87V1.07H244.67L244.67,1.07z"/>
	<path d="M278.14,1.07v25.86h9.8V11.25l16.2,15.68h9.87V1.07h-9.8v14.7l-15.02-14.7H278.14L278.14,1.07z"/>
</g>
</svg>
