<svg data-name="Layer 1" xmlns="http://www.w3.org/2000/svg" viewBox="0 0 175.09 48.67">
  <path fill="#1d1f21" d="M94.09 22a18.51 18.51 0 0 1 2.06.11 5.54 5.54 0 0 1-2.6-4.71V1.58c0-.66 0-1.22-.7-1.22h-4.31a1.08 1.08 0 0 0-1 1.22V17.7a11 11 0 0 0 1.26 5 19.59 19.59 0 0 1 5.29-.7zm40.46 0V5.36h3.67a8.21 8.21 0 0 1 8.26 8.57 8.06 8.06 0 0 1-8.12 8.41 28.22 28.22 0 0 1 8.08 3.32 13 13 0 0 0 6.3-11.56A13.83 13.83 0 0 0 138.69.36h-8.18c-.63 0-2 .58-2 1.22v21a24.47 24.47 0 0 1 5.68-.56c.24-.02-.64-.02.36-.02zm-24-4.3V1.58c0-.64 0-1.22-.64-1.22h-4.31a1.1 1.1 0 0 0-1 1.22v15.89a5.19 5.19 0 0 1-4.5 5.34c2.7.84 4.88 2.19 7.27 3.2 2.29-2.01 3.18-5.01 3.18-8.31zm6 9.55c3-.25 5-1 6-1.82V1.83c0-.66-.09-1.47-.75-1.47h-4.64c-.66 0-.61.81-.61 1.47v25.42zm-74-1.25v-3.33a1.28 1.28 0 0 0-1.17-1.31h-9.83V1.58A1.23 1.23 0 0 0 30.39.36h-3.57a1.29 1.29 0 0 0-1.27 1.22v22.54a19.26 19.26 0 0 0 10 3.23 17.17 17.17 0 0 0 7-1.35zm9-24.17A1.81 1.81 0 0 0 50 .36h-3a1.7 1.7 0 0 0-1.45 1.47v22.29a18.1 18.1 0 0 1 6-1.85V1.83zM164.13 44.3a18.79 18.79 0 0 1-18.91 0 20.6 20.6 0 0 0-20.63 0 18.79 18.79 0 0 1-18.91 0 20.59 20.59 0 0 0-20.63 0 17.19 17.19 0 0 1-9.45 2.55 17.21 17.21 0 0 1-9.45-2.55 19 19 0 0 0-10.31-2.77 18.94 18.94 0 0 0-10.31 2.77 17.19 17.19 0 0 1-9.45 2.55 17.2 17.2 0 0 1-9.45-2.55 18.94 18.94 0 0 0-10.31-2.77A18.94 18.94 0 0 0 6 44.3a18.14 18.14 0 0 1-6 2.27v1.85a19.48 19.48 0 0 0 6.86-2.52 17.19 17.19 0 0 1 9.45-2.55 17.2 17.2 0 0 1 9.45 2.55 18.94 18.94 0 0 0 10.31 2.77 18.94 18.94 0 0 0 10.32-2.77 17.19 17.19 0 0 1 9.45-2.55 17.2 17.2 0 0 1 9.45 2.55 19 19 0 0 0 10.31 2.77 18.94 18.94 0 0 0 10.31-2.77 18.79 18.79 0 0 1 18.91 0 20.6 20.6 0 0 0 20.63 0 18.79 18.79 0 0 1 18.91 0 20.6 20.6 0 0 0 20.63 0 17.2 17.2 0 0 1 9.45-2.55h.65v-1.79h-.65a19 19 0 0 0-10.31 2.74z">
  </path>
  <path fill="#1d1f21" d="M174.44 27a18.92 18.92 0 0 0-10.31 2.81 18.76 18.76 0 0 1-18.91 0 20.61 20.61 0 0 0-20.63 0 18.79 18.79 0 0 1-18.91 0 20.59 20.59 0 0 0-20.63 0c-.68.36-1.35.72-2.05 1l-4-5.65a14.11 14.11 0 0 0 5.16-10.78 14.38 14.38 0 1 0-26.53 7.78c6.76.93 7.94 4.86 16 5.1l2.67 5h-.66a17.21 17.21 0 0 1-9.45-2.55 19 19 0 0 0-10.31-2.77 18.94 18.94 0 0 0-10.31 2.77 17.19 17.19 0 0 1-9.45 2.55 17.2 17.2 0 0 1-9.45-2.55 18.94 18.94 0 0 0-10.31-2.77A18.94 18.94 0 0 0 6 29.82a18.13 18.13 0 0 1-6 2.28v1.85a19.47 19.47 0 0 0 6.86-2.53 17.19 17.19 0 0 1 9.45-2.55 17.2 17.2 0 0 1 9.45 2.55 18.94 18.94 0 0 0 10.31 2.77 18.94 18.94 0 0 0 10.31-2.77 17.19 17.19 0 0 1 9.45-2.55 17.2 17.2 0 0 1 9.45 2.55 19 19 0 0 0 10.32 2.77 18.94 18.94 0 0 0 10.31-2.77 18.79 18.79 0 0 1 18.91 0 20.6 20.6 0 0 0 20.63 0 18.79 18.79 0 0 1 18.91 0 20.6 20.6 0 0 0 20.63 0 17.2 17.2 0 0 1 9.45-2.55h.65V27zM69.76 22.86a8.46 8.46 0 0 1 0-16.91 8.59 8.59 0 0 1 8.45 8.49 8.45 8.45 0 0 1-8.45 8.42z">
  </path>
  <path fill="#1d1f21" d="M164.13 37.06a18.79 18.79 0 0 1-18.91 0 20.6 20.6 0 0 0-20.63 0 18.79 18.79 0 0 1-18.91 0 20.59 20.59 0 0 0-20.63 0 17.19 17.19 0 0 1-9.45 2.55 17.2 17.2 0 0 1-9.45-2.55 19 19 0 0 0-10.31-2.77 18.94 18.94 0 0 0-10.31 2.77 17.19 17.19 0 0 1-9.45 2.55 17.2 17.2 0 0 1-9.45-2.55 18.94 18.94 0 0 0-10.31-2.77A18.94 18.94 0 0 0 6 37.06a18.13 18.13 0 0 1-6 2.28v1.85a19.47 19.47 0 0 0 6.86-2.53 17.19 17.19 0 0 1 9.45-2.55 17.2 17.2 0 0 1 9.45 2.55 18.94 18.94 0 0 0 10.31 2.77 18.94 18.94 0 0 0 10.31-2.77 17.19 17.19 0 0 1 9.45-2.55 17.2 17.2 0 0 1 9.45 2.55 19 19 0 0 0 10.32 2.77 18.94 18.94 0 0 0 10.31-2.77 18.79 18.79 0 0 1 18.91 0 20.6 20.6 0 0 0 20.63 0 18.79 18.79 0 0 1 18.91 0 20.6 20.6 0 0 0 20.63 0 17.2 17.2 0 0 1 9.45-2.55h.65v-1.79h-.65a19 19 0 0 0-10.31 2.74z">
  </path>
</svg>