<svg fill="none" height="88" viewBox="0 0 432 88" width="432" xmlns="http://www.w3.org/2000/svg" xmlns:xlink="http://www.w3.org/1999/xlink"><mask id="a" height="39" maskUnits="userSpaceOnUse" width="33" x="399" y="33"><path clip-rule="evenodd" d="m399.77 33.1914h31.633v38.481h-31.633z" fill="#fff" fill-rule="evenodd"/></mask><path clip-rule="evenodd" d="m329.388 68.2597c-8.041 0-11.223-5.4857-9.203-15.8625 2.04-10.4749 7.129-15.7864 15.129-15.7864 8.743 0 11.986 5.1638 9.918 15.7864-2.108 10.8215-7.142 15.8625-15.844 15.8625zm6.822-35.066c-5.495 0-10.004 1.8938-13.209 5.5123l.621-3.1897c.196-1.0095-.499-1.8625-1.519-1.8625s-2.049.853-2.243 1.8625l-9.494 48.7822c-.196 1.0095.499 1.8625 1.519 1.8625s2.049-.853 2.245-1.8625l3.525-18.1184c1.298 2.3164 4.309 5.4922 11.067 5.4922 5.288 0 9.722-1.6079 13.184-4.7842 3.572-3.2765 6.01-8.1523 7.244-14.4954 1.235-6.3385.691-11.2033-1.611-14.4575-2.225-3.1447-6.039-4.7415-11.329-4.7415z" fill="#000" fill-rule="evenodd"/><g mask="url(#a)"><path clip-rule="evenodd" d="m418.129 50.3358c-4.769-1.7511-9.275-3.4039-8.418-7.8039.431-2.2112 2.244-5.9232 9.548-5.9232 4.105 0 6.696 1.1234 8.942 3.8796.422.5137.9.5137 1.105.5137.935 0 1.878-.7818 2.059-1.7087.099-.5025.002-.7996-.222-1.1949-.009-.0156-.018-.0313-.029-.0469-2.279-3.2252-6.043-4.8601-11.189-4.8601-7.499 0-12.854 3.5781-13.978 9.3383-1.34 6.8948 4.827 9.2042 10.27 11.2412 4.703 1.76 9.149 3.4217 8.325 7.6388-1.159 5.9565-7.469 6.8455-11.13 6.8455-5.046 0-8.16-1.358-10.419-4.543-.007-.0089-.016-.0201-.022-.029-.28-.3417-.653-.5137-1.104-.5137-.833 0-1.86.6879-2.058 1.7086-.099.5003-.002.7951.221 1.1927 1.503 2.7852 6.021 5.6016 12.719 5.6016 8.492 0 14.308-3.8371 15.558-10.2627 1.336-6.8504-4.782-9.095-10.178-11.0739z" fill="#000" fill-rule="evenodd"/></g><g clip-rule="evenodd" fill="#000" fill-rule="evenodd"><path d="m406.75 23.5606h-3.972l.765-3.931c.197-1.0096-.498-1.8628-1.518-1.8628s-2.05.8532-2.246 1.8628l-.765 3.931h-3.972c-1.02 0-2.046.8531-2.243 1.8627-.196 1.0095.499 1.8627 1.519 1.8627h3.972l-.765 3.931c-.196 1.0095.499 1.8627 1.519 1.8627s2.049-.8532 2.243-1.8627l.765-3.931h3.971c1.018 0 2.048-.8532 2.244-1.8627.2-1.0073-.497-1.8627-1.517-1.8627z"/><path d="m91.4036 61.4205c1.9294.9939 5.4025 2.3677 8.7224 2.2918 3.01 0 4.631-1.6061 4.631-3.5895 0-1.9094-1.158-3.2073-4.401-5.0408-4.0125-2.2918-7.023-5.5011-7.023-9.7023 0-7.411 6.4069-12.6821 15.745-12.6821 4.092 0 7.255.7641 8.953 1.758l-2.469 7.4867c-1.467-.6879-3.859-1.4518-6.637-1.4518-3.011 0-4.94 1.3759-4.94 3.5133 0 1.6796 1.39 2.9036 4.091 4.3554 4.168 2.3675 7.641 5.5768 7.641 10.0842 0 8.4025-6.869 13.1397-16.4398 13.0636-4.4006-.076-8.492-1.2238-10.496-2.5976z"/><path d="m117.879 71.2994 10.343-53.4902h10.652l-4.092 20.7358.154-.1362c2.854-3.3614 6.56-5.682 11.267-5.682 5.559 0 8.723 3.5378 8.723 9.4968 0 1.8337-.31 4.7976-.772 7.0914l-4.168 21.9866h-10.652l4.012-21.3275c.307-1.4518.465-3.3304.465-4.7799 0-2.2916-.925-3.9556-3.319-3.9556-3.397 0-7.025 4.4894-8.413 11.4425l-3.552 18.6205h-10.648z"/><path d="m168.593 56.6097c0 3.8193 1.543 6.8745 5.172 6.8745 5.633 0 8.799-9.9322 8.799-16.425 0-3.1313-1.237-6.3389-5.017-6.3389-5.79-.002-8.954 9.8522-8.954 15.8894zm24.853-9.2447c0 13.064-8.492 24.2181-21.073 24.2181-9.571 0-14.665-6.5712-14.665-14.7456 0-12.758 8.493-24.2179 21.304-24.2179 9.959.0023 14.434 7.183 14.434 14.7454z"/><path d="m206.108 62.1084c1.158.9159 2.469 1.5277 4.401 1.5277 5.944 0 10.035-9.7023 10.035-16.5011 0-2.8252-1.004-5.8049-4.245-5.8049-3.706 0-7.178 4.3553-8.413 10.9241zm-15.208 24.0506 7.408-38.5503c.851-4.3553 1.698-9.9884 2.163-13.9529h9.417l-.618 5.9436h.153c2.855-3.9625 7.025-6.6226 11.268-6.6226 7.794 0 10.96 6.1622 10.96 13.2672 0 12.8358-8.18 25.4774-20.685 25.4774-2.624 0-5.016-.4222-6.253-1.4114h-.232l-2.934 15.849z"/><path d="m245.783 29.6958c-3.01 0-5.016-2.5484-5.016-5.6797 0-3.4374 2.701-6.3164 6.097-6.3164 3.241 0 5.326 2.5239 5.326 5.5793-.076 3.8952-2.933 6.4191-6.251 6.4191zm-13.817 41.6035 7.178-37.6412h10.729l-7.256 37.6412z"/><path d="m251.878 71.2994 5.636-29.7168h-4.941l1.544-7.9244h4.94l.309-1.8941c.851-4.4312 2.546-8.9317 6.175-11.9872 2.854-2.4434 6.637-3.549 10.421-3.549 2.625 0 4.554.3663 5.789.9001l-2.083 8.2416c-.926-.3037-2.007-.5382-3.397-.5382-3.552 0-5.714 3.3435-6.33 6.935l-.386 1.8918h7.409l-1.467 7.9244h-7.332l-5.635 29.7168z"/><path d="m290.166 33.6582 1.697 16.8495c.465 3.7434.772 6.9239.925 8.905h.154c.851-1.9811 1.622-4.9338 3.166-8.9809l6.484-16.7714h11.114l-13.044 27.557c-4.631 9.4723-9.108 16.3758-13.971 20.8832-3.783 3.5133-8.26 5.2465-10.422 5.7044l-2.934-8.9519c1.776-.612 4.013-1.5344 6.022-2.9839 2.468-1.6796 4.553-3.9757 5.788-6.3432.307-.5338.386-.8954.232-1.6595l-6.406-34.2038z"/><path d="m398.037 37.1983c-1.02 0-2.049.8532-2.245 1.8628l-3.598 18.4912c-1.952 9.4186-7.796 10.7051-13.276 10.7051-9.868 0-10.117-5.5638-9.058-11.0069l4.229-21.732c.196-1.0093-.499-1.8625-1.519-1.8625s-2.049.8532-2.245 1.8625l-4.23 21.732c-.85 4.3801-.548 7.6498.933 9.9929 1.855 2.9393 5.632 4.4291 11.224 4.4291 5.593 0 9.948-1.492 12.949-4.4291 2.393-2.3431 3.97-5.6128 4.821-9.9929l3.538-18.1894c.192-1.0096-.503-1.8628-1.523-1.8628z"/><path d="m364.033 17.8718c-1.02 0-2.049.8532-2.246 1.8628l-9.654 49.6172c-.196 1.0096.499 1.8628 1.519 1.8628s2.049-.8532 2.245-1.8628l9.654-49.6172c.197-1.0118-.498-1.8628-1.518-1.8628z"/><path d="m42.8979 12.9179c-.0316-2.1107-.2866-5.04549-1.2796-7.58275 3.1956.59858 4.7685 4.17665 5.432 6.30965-1.23.3775-2.6314.8063-4.1524 1.2731zm-16.7268 27.9947c.2844 4.4603 12.1412 5.4341 12.8069 15.8824.5235 8.2193-4.4051 13.8411-11.507 14.2853-8.5236.5318-13.2153-4.4444-13.2153-4.4444l1.8054-7.6051s4.7233 3.5267 8.5033 3.2897c2.4688-.1539 3.3512-2.1417 3.2632-3.5488-.3701-5.8185-10.0244-5.4768-10.6359-15.0362-.5123-8.045 4.8248-16.1973 16.6049-16.9342 4.5382-.2836 6.8626.8622 6.8626.8622l-2.6945 9.9726s-3.0037-1.3538-6.567-1.1324c-5.2243.3328-5.2807 3.5935-5.2266 4.4089zm8.1919-38.1348c.9884-.0201 1.8212.19432 2.532.65665-1.1373.58518-2.2386 1.42498-3.2699 2.51939-2.6742 2.83878-4.7233 7.24776-5.5403 11.50026-2.5501.7818-5.0437 1.5454-7.3366 2.2492 1.4466-6.6938 7.1155-16.74012 13.6148-16.9255zm5.7366 10.9978c-2.8029.8596-5.863 1.7979-8.9344 2.7382.8644-3.272 2.5005-6.53073 4.5112-8.66595.747-.79513 1.7941-1.6796 3.033-2.1866 1.1668 2.40325 1.4173 5.81155 1.3902 8.11435zm12.2314-3.7502c-.0068.0023-.9704.2971-2.5998.7974-.2708-.87352-.6725-1.94784-1.2434-3.02662-1.8415-3.47734-4.5405-5.31998-7.7992-5.32467h-.0113c-.2257 0-.4514.0201-.677.04043-.0948-.11413-.1919-.22782-.2957-.33503-1.4194-1.503144-3.2429-2.2359565-5.4228-2.17319509-4.2111.12060909-8.4041 3.12891509-11.8027 8.47390509-2.3943 3.76098-4.211 8.48728-4.7278 12.14358-4.8339 1.4808-8.21668 2.5194-8.28889 2.5417-2.43951.7572-2.51624.8331-2.8367 3.109-.24146 1.7221-6.62571 50.5889-6.62571 50.5889l52.9741 9.068v-76.01079c-.2618.01787-.4965.06477-.6431.10739z"/><path d="m54.7253 85.7234 21.9759-5.4073s-9.4624-63.3153-9.5211-63.7509c-.0609-.4333-.4445-.6745-.7605-.7013-.3159-.0268-6.5038-.1184-6.5038-.1184s-3.7732-3.6249-5.1905-4.9986z"/></g></svg>