<?xml version="1.0" encoding="utf-8"?>
<svg viewBox="-144.29 408.714 335.39 79.615" xmlns="http://www.w3.org/2000/svg">
  <path d="M -33.33 423.396 L -46.455 423.396 L -46.455 463.954 L -51.775 463.954 L -51.775 423.396 L -64.9 423.396 L -64.9 418.538 L -33.447 418.538 L -33.447 423.386 L -33.329 423.386 L -33.33 423.396 Z M -8.142 431.554 L -23.042 469.156 C -25.762 475.896 -29.427 479.206 -34.275 479.206 C -35.575 479.206 -36.758 479.088 -37.705 478.851 L -37.705 474.238 C -36.641 474.593 -35.577 474.838 -34.631 474.838 C -32.031 474.838 -30.019 473.301 -28.719 470.108 L -26.119 463.958 L -38.771 431.558 L -32.977 431.558 L -24.227 456.508 C -24.109 456.863 -23.872 457.69 -23.527 458.991 L -23.291 458.991 C -23.173 458.518 -22.936 457.691 -22.691 456.626 L -13.468 431.558 L -8.148 431.558 L -8.142 431.554 Z M 0.608 459.342 L 0.5 459.342 L 0.5 478.972 L -4.703 478.972 L -4.703 431.674 L 0.5 431.674 L 0.5 437.35 L 0.618 437.35 C 3.218 433.093 6.885 430.847 11.851 430.847 C 15.991 430.847 19.301 432.267 21.665 435.222 C 24.029 438.177 25.212 441.962 25.212 446.928 C 25.212 452.368 23.912 456.742 21.31 459.935 C 18.708 463.128 15.043 464.783 10.43 464.783 C 6.173 464.783 2.98 463.009 0.616 459.343 L 0.608 459.342 Z M 0.5 446.218 L 0.5 450.711 C 0.5 453.431 1.328 455.677 3.1 457.569 C 4.872 459.461 7.002 460.407 9.722 460.407 C 12.915 460.407 15.28 459.225 17.172 456.741 C 19.064 454.257 19.892 450.947 19.892 446.691 C 19.892 443.025 19.064 440.306 17.409 438.177 C 15.754 436.177 13.507 435.103 10.669 435.103 C 7.595 435.103 5.229 436.167 3.339 438.296 C 1.449 440.425 0.5 443.024 0.5 446.218 Z M 57.258 449.056 L 34.318 449.056 C 34.436 452.722 35.382 455.441 37.274 457.451 C 39.166 459.461 41.649 460.407 44.96 460.407 C 48.626 460.407 51.936 459.225 55.01 456.741 L 55.01 461.589 C 52.172 463.717 48.388 464.663 43.658 464.663 C 39.046 464.663 35.498 463.243 32.898 460.288 C 30.298 457.333 28.996 453.193 28.996 447.872 C 28.996 442.787 30.416 438.767 33.253 435.575 C 36.09 432.383 39.638 430.845 43.895 430.845 C 48.152 430.845 51.463 432.265 53.709 434.985 C 56.074 437.705 57.139 441.488 57.139 446.455 L 57.139 449.055 L 57.257 449.055 L 57.258 449.056 Z M 51.938 444.681 C 51.938 441.725 51.238 439.361 49.81 437.705 C 48.382 436.049 46.38 435.222 43.898 435.222 C 41.416 435.222 39.405 436.05 37.631 437.822 C 35.976 439.596 34.911 441.842 34.438 444.68 L 51.938 444.68 L 51.938 444.681 Z M 60.098 462.418 L 60.098 458.871 C 63.398 460.999 66.601 461.945 70.031 461.945 C 73.578 461.945 76.298 461.245 78.071 459.698 C 79.963 458.278 80.791 456.151 80.791 453.548 C 80.791 451.183 80.191 449.408 78.899 447.99 C 77.717 446.57 74.997 444.69 70.859 442.314 C 66.247 439.594 63.291 437.348 62.109 435.574 C 60.868 433.72 60.209 431.538 60.217 429.307 C 60.217 426.114 61.517 423.395 64.001 421.147 C 66.485 418.899 69.791 417.837 73.931 417.837 C 76.651 417.837 79.371 418.31 82.091 419.257 L 82.091 422.557 C 79.407 421.382 76.507 420.778 73.577 420.783 C 70.503 420.783 68.019 421.611 66.247 423.148 C 64.475 424.685 63.527 426.695 63.527 429.06 C 63.527 431.425 64.127 433.2 65.419 434.618 C 66.601 436.038 69.321 437.811 73.459 440.176 C 77.716 442.541 80.554 444.669 81.973 446.561 C 83.392 448.453 84.101 450.581 84.101 453.064 C 84.101 456.494 82.919 459.331 80.435 461.578 C 78.07 463.825 74.641 464.878 70.148 464.878 C 68.611 464.878 66.848 464.642 64.708 464.178 C 62.816 463.578 61.278 462.996 60.096 462.404 L 60.098 462.418 Z M 111.534 462.536 C 109.169 463.956 106.214 464.783 102.902 464.783 C 98.527 464.783 94.98 463.246 92.26 460.29 C 89.54 457.216 88.24 453.314 88.24 448.347 C 88.24 443.144 89.777 439.007 92.852 435.695 C 95.927 432.383 99.828 430.729 104.558 430.729 C 107.041 430.729 109.406 431.202 111.771 432.266 L 111.771 435.566 C 109.459 434.151 106.796 433.413 104.085 433.438 C 100.301 433.438 97.227 434.858 94.862 437.578 C 92.497 440.298 91.3 443.852 91.3 448.238 C 91.3 452.495 92.364 455.806 94.493 458.408 C 96.622 461.01 99.459 462.192 103.007 462.192 C 106.2 462.192 109.037 461.364 111.521 459.592 L 111.521 462.548 L 111.534 462.536 Z M 131.164 434.63 C 130.218 433.93 129.036 433.566 127.734 433.566 C 125.134 433.566 123.004 434.866 121.349 437.468 C 119.575 440.068 118.749 443.853 118.749 448.701 L 118.749 463.955 L 115.9 463.955 L 115.9 431.555 L 118.738 431.555 L 118.738 438.768 L 118.856 438.768 C 119.556 436.285 120.748 434.393 122.403 432.974 C 124.058 431.555 125.833 430.974 127.96 430.974 C 129.142 430.974 130.207 431.21 131.153 431.574 L 131.153 434.648 L 131.164 434.63 Z M 136.13 423.397 C 135.53 423.397 134.948 423.161 134.475 422.697 C 134.002 422.233 133.775 421.633 133.775 420.923 C 133.775 420.213 134.011 419.623 134.475 419.268 C 134.948 418.795 135.539 418.668 136.13 418.668 C 136.83 418.668 137.312 418.904 137.904 419.268 C 138.377 419.741 138.604 420.214 138.604 420.923 C 138.604 421.632 138.368 422.223 137.904 422.697 C 137.304 423.17 136.84 423.397 136.13 423.397 Z M 134.71 464.073 L 134.71 431.673 L 137.666 431.673 L 137.666 464.073 L 134.7 464.073 L 134.71 464.073 Z M 147.835 458.279 L 147.717 458.279 L 147.717 478.972 L 144.761 478.972 L 144.761 431.674 L 147.717 431.674 L 147.717 438.414 L 147.835 438.414 C 149.017 436.049 150.673 434.157 152.801 432.856 C 154.929 431.555 157.294 430.964 159.896 430.964 C 164.036 430.964 167.226 432.384 169.592 435.221 C 171.958 438.058 173.022 441.961 173.022 446.809 C 173.022 452.249 171.722 456.623 169.002 459.934 C 166.402 463.234 162.852 464.9 158.478 464.9 C 153.748 464.782 150.201 462.653 147.836 458.278 L 147.835 458.279 Z M 147.717 446.219 L 147.717 450.359 C 147.717 453.659 148.781 456.389 150.791 458.754 C 152.801 461.119 155.521 462.301 158.831 462.301 C 162.141 462.301 164.861 460.881 166.871 458.044 C 168.881 455.207 169.945 451.422 169.945 446.811 C 169.945 442.791 168.999 439.481 167.107 437.115 C 165.215 434.749 162.614 433.568 159.539 433.568 C 155.755 433.568 152.799 434.868 150.789 437.352 C 148.779 439.836 147.715 442.792 147.715 446.22 L 147.717 446.219 Z M 191.11 463.599 C 189.573 464.299 188.154 464.663 186.853 464.663 C 182.005 464.663 179.64 461.825 179.64 456.031 L 179.64 434.274 L 173.846 434.274 L 173.846 431.554 L 179.64 431.554 L 179.64 423.159 C 180.113 423.041 180.586 422.804 181.06 422.686 C 181.534 422.568 182.006 422.331 182.48 422.213 L 182.48 431.673 L 190.994 431.673 L 190.994 434.393 L 182.48 434.393 L 182.48 455.795 C 182.48 458.042 182.835 459.697 183.544 460.643 C 184.253 461.589 185.436 462.18 187.091 462.18 C 188.273 462.18 189.574 461.825 190.993 460.998 L 190.993 463.598 L 191.111 463.598 L 191.11 463.599 Z" style="fill: rgb(29, 31, 33);"/>
  <path d="M -144.289 448.522 L -144.289 481.841 L -77.65 481.841 L -77.65 415.202 L -144.289 415.202 L -144.289 448.522 Z M -90.587 445.867 C -88.895 446.291 -87.604 447.042 -86.419 448.268 C -85.805 448.925 -84.896 450.119 -84.822 450.405 C -84.801 450.488 -87.699 452.435 -89.455 453.526 C -89.518 453.567 -89.773 453.293 -90.059 452.869 C -90.916 451.62 -91.814 451.081 -93.19 450.988 C -95.21 450.85 -96.522 451.907 -96.501 453.673 C -96.501 454.192 -96.428 454.498 -96.215 454.923 C -95.771 455.844 -94.946 456.393 -92.355 457.516 C -87.584 459.567 -85.544 460.92 -84.275 462.846 C -82.859 464.993 -82.541 468.42 -83.503 470.97 C -84.561 473.741 -87.184 475.624 -90.875 476.249 C -92.017 476.45 -94.725 476.418 -95.951 476.197 C -98.627 475.721 -101.165 474.398 -102.732 472.664 C -103.346 471.987 -104.54 470.22 -104.466 470.092 C -104.435 470.05 -104.159 469.881 -103.852 469.7 L -101.377 468.274 L -99.461 467.163 L -99.059 467.757 C -98.499 468.613 -97.271 469.787 -96.531 470.179 C -94.405 471.3 -91.486 471.141 -90.048 469.85 C -89.433 469.291 -89.18 468.708 -89.18 467.851 C -89.18 467.079 -89.274 466.74 -89.677 466.159 C -90.195 465.42 -91.253 464.795 -94.259 463.494 C -97.697 462.013 -99.177 461.093 -100.531 459.633 C -101.314 458.786 -102.053 457.433 -102.361 456.301 C -102.615 455.36 -102.678 453.001 -102.478 452.05 C -101.77 448.717 -99.262 446.411 -95.644 445.724 C -94.47 445.503 -91.74 445.587 -90.588 445.871 L -90.587 445.867 Z M -106.231 448.648 L -106.21 451.375 L -114.883 451.375 L -114.883 476.021 L -121.018 476.021 L -121.018 451.375 L -129.691 451.375 L -129.691 448.699 L -129.618 445.95 C -129.587 445.909 -124.308 445.888 -117.909 445.899 L -106.263 445.93 L -106.231 448.648 Z" style="fill: rgb(29, 31, 33);"/>
</svg>