<svg width="115" height="105" viewBox="0 0 115 105" fill="none" xmlns="http://www.w3.org/2000/svg">
<g clip-path="url(#clip0_26_10)">
<path d="M11.64 101.24V99.33H12.95V104.5H11.64V102.51H10.19V104.5H8.87V99.33H10.19V101.24H11.64Z" fill="#E71E79"/>
<path d="M20.05 103.83C19.52 104.35 18.88 104.61 18.13 104.61C17.38 104.61 16.72 104.35 16.2 103.83C15.68 103.31 15.42 102.67 15.42 101.91C15.42 101.15 15.68 100.51 16.2 100C16.72 99.48 17.36 99.22 18.13 99.22C18.9 99.22 19.53 99.48 20.05 100C20.58 100.52 20.84 101.15 20.84 101.91C20.84 102.67 20.58 103.3 20.05 103.83ZM17.13 102.92C17.4 103.18 17.73 103.31 18.13 103.31C18.53 103.31 18.86 103.18 19.13 102.92C19.4 102.65 19.53 102.32 19.53 101.91C19.53 101.5 19.4 101.16 19.13 100.91C18.86 100.64 18.53 100.51 18.13 100.51C17.73 100.51 17.4 100.64 17.13 100.91C16.86 101.17 16.73 101.5 16.73 101.91C16.73 102.32 16.86 102.66 17.13 102.92Z" fill="#E71E79"/>
<path d="M26.15 101.93V99.33H27.46V104.5H26.44L24.62 101.9V104.5H23.3V99.33H24.33L26.15 101.93Z" fill="#E71E79"/>
<path d="M31.45 102.5V103.26H33.45V104.5H30.13V99.33H33.42V100.56H31.46V101.28H33.24V102.5H31.46H31.45Z" fill="#E71E79"/>
<path d="M37.77 104.61C37.23 104.61 36.78 104.5 36.42 104.27C36.06 104.04 35.8 103.73 35.66 103.32L36.79 102.66C36.98 103.12 37.32 103.35 37.81 103.35C38.21 103.35 38.42 103.23 38.42 103C38.42 102.85 38.3 102.73 38.07 102.63C37.99 102.6 37.77 102.53 37.42 102.43C36.92 102.29 36.54 102.09 36.28 101.83C36.02 101.57 35.89 101.23 35.89 100.81C35.89 100.33 36.06 99.95 36.4 99.65C36.75 99.35 37.18 99.21 37.68 99.21C38.11 99.21 38.5 99.31 38.83 99.52C39.16 99.72 39.42 100.02 39.6 100.4L38.49 101.05C38.33 100.67 38.06 100.47 37.69 100.47C37.54 100.47 37.42 100.5 37.34 100.56C37.26 100.62 37.21 100.7 37.21 100.81C37.21 100.92 37.27 101.02 37.39 101.1C37.51 101.18 37.75 101.27 38.1 101.37C38.36 101.45 38.56 101.52 38.71 101.58C38.87 101.65 39.04 101.74 39.21 101.86C39.57 102.1 39.75 102.47 39.75 102.99C39.75 103.51 39.57 103.89 39.21 104.18C38.85 104.47 38.38 104.61 37.78 104.61H37.77Z" fill="#E71E79"/>
<path d="M41.61 99.33H45.49V100.61H44.21V104.5H42.89V100.61H41.61V99.33Z" fill="#E71E79"/>
<path d="M49.14 99.33V103.22H50.92V104.5H47.82V99.33H49.14Z" fill="#E71E79"/>
<path d="M55.5 99.33H56.98L55.24 102.51V104.5H53.92V102.53L52.18 99.33H53.66L54.58 101.24L55.5 99.33Z" fill="#E71E79"/>
<path d="M63.59 101.54H66.2V102.06C66.2 102.82 65.96 103.43 65.48 103.91C65 104.38 64.39 104.61 63.63 104.61C62.83 104.61 62.16 104.35 61.64 103.83C61.12 103.31 60.86 102.68 60.86 101.92C60.86 101.16 61.12 100.53 61.64 100C62.16 99.48 62.8 99.22 63.56 99.22C64.04 99.22 64.48 99.33 64.88 99.54C65.28 99.75 65.59 100.04 65.83 100.4L64.71 101.04C64.61 100.88 64.45 100.75 64.25 100.65C64.05 100.55 63.82 100.5 63.58 100.5C63.17 100.5 62.84 100.63 62.58 100.9C62.32 101.17 62.19 101.51 62.19 101.92C62.19 102.33 62.32 102.66 62.57 102.93C62.83 103.21 63.2 103.34 63.66 103.34C64.26 103.34 64.66 103.11 64.85 102.66H63.59V101.52V101.54Z" fill="#E71E79"/>
<path d="M73.09 103.83C72.56 104.35 71.92 104.61 71.17 104.61C70.42 104.61 69.76 104.35 69.24 103.83C68.72 103.31 68.46 102.67 68.46 101.91C68.46 101.15 68.72 100.51 69.24 100C69.76 99.48 70.4 99.22 71.17 99.22C71.94 99.22 72.57 99.48 73.09 100C73.62 100.52 73.88 101.15 73.88 101.91C73.88 102.67 73.62 103.3 73.09 103.83ZM70.17 102.92C70.44 103.18 70.77 103.31 71.17 103.31C71.57 103.31 71.9 103.18 72.17 102.92C72.44 102.65 72.57 102.32 72.57 101.91C72.57 101.5 72.44 101.16 72.17 100.91C71.9 100.64 71.57 100.51 71.17 100.51C70.77 100.51 70.44 100.64 70.17 100.91C69.9 101.17 69.77 101.5 69.77 101.91C69.77 102.32 69.9 102.66 70.17 102.92Z" fill="#E71E79"/>
<path d="M80.77 103.83C80.24 104.35 79.6 104.61 78.85 104.61C78.1 104.61 77.44 104.35 76.92 103.83C76.4 103.31 76.14 102.67 76.14 101.91C76.14 101.15 76.4 100.51 76.92 100C77.44 99.48 78.08 99.22 78.85 99.22C79.62 99.22 80.25 99.48 80.77 100C81.3 100.52 81.56 101.15 81.56 101.91C81.56 102.67 81.3 103.3 80.77 103.83ZM77.85 102.92C78.12 103.18 78.45 103.31 78.85 103.31C79.25 103.31 79.58 103.18 79.85 102.92C80.12 102.65 80.25 102.32 80.25 101.91C80.25 101.5 80.12 101.16 79.85 100.91C79.58 100.64 79.25 100.51 78.85 100.51C78.45 100.51 78.12 100.64 77.85 100.91C77.58 101.17 77.45 101.5 77.45 101.91C77.45 102.32 77.58 102.66 77.85 102.92Z" fill="#E71E79"/>
<path d="M84.02 99.33H86.12C86.83 99.33 87.42 99.58 87.91 100.08C88.39 100.58 88.63 101.19 88.63 101.92C88.63 102.65 88.39 103.27 87.91 103.77C87.43 104.26 86.84 104.51 86.12 104.51H84.02V99.34V99.33ZM85.38 103.22H86.13C86.48 103.22 86.78 103.1 87.01 102.87C87.24 102.63 87.35 102.31 87.35 101.92C87.35 101.53 87.24 101.21 87.01 100.97C86.78 100.73 86.49 100.61 86.13 100.61H85.38V103.22Z" fill="#E71E79"/>
<path d="M31.42 62.08C30.61 62.08 29.88 62.38 29.31 62.96C28.73 63.54 28.43 64.27 28.43 65.07C28.43 65.87 28.72 66.56 29.3 67.15C29.88 67.75 30.61 68.06 31.43 68.06C32.25 68.06 32.98 67.74 33.55 67.15C34.13 66.55 34.42 65.85 34.42 65.07C34.42 64.29 34.12 63.53 33.54 62.96C32.96 62.38 32.23 62.08 31.43 62.08H31.42Z" fill="#E71E79"/>
<path d="M33.67 70.44H29.18V92.04H33.67V70.44Z" fill="#E71E79"/>
<path d="M58.92 72.99C57.98 72.08 56.83 71.37 55.51 70.9C54.22 70.44 52.77 70.21 51.2 70.21C49.63 70.21 48.19 70.44 46.89 70.9C45.57 71.37 44.42 72.07 43.48 72.99C42.53 73.91 41.79 75.07 41.28 76.45C40.78 77.8 40.52 79.36 40.52 81.09V92.33H45.01V81.09C45.01 78.89 45.57 77.23 46.67 76.14C47.79 75.03 49.27 74.5 51.21 74.5C53.15 74.5 54.63 75.04 55.75 76.14C56.85 77.23 57.41 78.89 57.41 81.09V92.33H61.9V81.09C61.9 79.36 61.64 77.8 61.14 76.45C60.63 75.07 59.89 73.91 58.94 72.99H58.92Z" fill="#E71E79"/>
<path d="M114.1 82.49V93.73C114.1 95.46 113.84 97.02 113.34 98.37C112.83 99.75 112.09 100.91 111.14 101.83C110.2 102.75 109.05 103.44 107.73 103.92C106.44 104.38 104.98 104.61 103.42 104.61C101.86 104.61 100.4 104.38 99.11 103.92C97.79 103.45 96.64 102.75 95.7 101.83C94.75 100.91 94.01 99.75 93.5 98.37C93.29 97.81 93.13 97.21 93 96.58H97.63C97.9 97.42 98.32 98.13 98.88 98.68C100 99.79 101.48 100.32 103.42 100.32C105.36 100.32 106.84 99.78 107.96 98.68C109.06 97.59 109.62 95.93 109.62 93.73V82.49H114.11H114.1Z" fill="#E71E79"/>
<path d="M88.98 70.74H82.41L73.14 78.58V62.08H68.65V92.34H73.14V83.96L82.76 92.34H89.34L76.48 81.26L88.98 70.74Z" fill="#E71E79"/>
<path d="M114.1 70.74V90.25H109.61C109.12 90.73 108.57 91.15 107.96 91.51C106.57 92.32 104.9 92.73 103.02 92.73C101.59 92.73 100.24 92.51 99.01 92.08C97.76 91.64 96.65 90.95 95.71 90.03C94.78 89.11 94.04 87.95 93.52 86.58C93 85.23 92.74 83.64 92.74 81.85V70.73H97.23V81.85C97.23 84.05 97.79 85.71 98.89 86.8C100.01 87.91 101.49 88.44 103.43 88.44C105.37 88.44 106.81 87.9 107.94 86.78C109.05 85.68 109.62 84.02 109.62 81.85V70.73H114.11L114.1 70.74Z" fill="#E71E79"/>
<path d="M23.07 80.95C23.07 80.83 23.06 80.72 23.05 80.6C22.78 77.22 21.04 74.25 18.48 72.32C16.55 70.86 14.15 70 11.54 70C9.38 70 7.36 70.59 5.63 71.62C2.65 73.4 0.55 76.47 0.09 80.06C0.07 80.19 0.06 80.31 0.05 80.44C0.03 80.63 0.02 80.82 0.01 81.02C0 81.19 0 81.36 0 81.53V104.6H4.49V90.66C6.44 92.17 8.89 93.07 11.54 93.07C13.37 93.07 15.11 92.64 16.65 91.88C20.21 90.12 22.73 86.57 23.04 82.42C23.04 82.32 23.05 82.22 23.06 82.12C23.06 82.1 23.06 82.07 23.06 82.05C23.06 81.88 23.07 81.7 23.07 81.52C23.07 81.32 23.07 81.13 23.06 80.93L23.07 80.95ZM18.36 83.37C17.66 86 15.46 88.03 12.74 88.49C12.72 88.49 12.7 88.5 12.68 88.5C12.31 88.55 11.93 88.58 11.53 88.58C11.22 88.58 10.91 88.57 10.61 88.53C7.26 88.09 4.66 85.31 4.5 81.88C4.5 81.77 4.5 81.66 4.5 81.54C4.5 81.42 4.5 81.32 4.5 81.21C4.65 77.83 7.18 75.07 10.46 74.57C10.46 74.57 10.46 74.57 10.47 74.57C10.81 74.53 11.16 74.51 11.52 74.51C12.01 74.51 12.49 74.55 12.94 74.63C12.95 74.63 12.96 74.63 12.97 74.63C15.59 75.17 17.68 77.15 18.36 79.71V79.72C18.51 80.3 18.6 80.91 18.6 81.54C18.6 82.17 18.52 82.79 18.36 83.37Z" fill="#E71E79"/>
<path d="M76.44 1.38C75.57 0.46 74.51 0 73.28 0C71.68 0 70.39 0.51 69.43 1.51C67.88 3.13 67.41 9.7 67.34 12.84C67.05 12.54 66.73 12.27 66.38 12.04C65.54 11.52 64.56 11.2 63.58 11.17C62.34 11.12 61.09 11.49 60.08 12.18C59.3 12.69 58.62 13.39 58.13 14.29C57.5 13.24 56.69 12.64 56.1 12.32C55.78 12.15 55.44 12.02 55.09 11.92C54.34 11.65 53.54 11.55 52.75 11.61C52.17 11.65 51.6 11.79 51.05 11.98C50.5 12.18 49.99 12.47 49.5 12.8C49.03 13.15 48.6 13.57 48.24 14.04C47.97 14.41 47.74 14.81 47.56 15.23C46.47 14.08 44.86 13.55 43.35 13.66C42.65 13.67 41.94 13.82 41.27 14.11C40.75 14.34 40.26 14.67 39.84 15.07C39.41 15.47 39.08 15.95 38.81 16.46C38.28 17.5 38.14 18.64 38.23 19.7C38.29 20.33 38.37 20.92 38.47 21.51C38.52 22.06 38.58 22.64 38.64 23.2C38.81 24.84 39.03 27.07 38.98 27.67C38.97 27.7 38.96 27.73 38.95 27.76C38.71 27.94 38.47 28.13 38.25 28.33C36.84 29.57 35.7 31.21 35.13 33.04C34.54 34.88 34.5 36.8 34.79 38.63C35.06 40.48 35.75 42.27 36.74 43.85C38.74 47.03 41.85 49.27 45.14 50.73C48.45 52.2 52.02 52.96 55.61 53.12C59.2 53.27 62.82 52.81 66.24 51.55C67.11 51.28 67.91 50.83 68.74 50.46C69.14 50.25 69.53 50 69.92 49.76L70.51 49.41C70.7 49.28 70.88 49.14 71.06 49C72.57 47.97 73.85 46.62 74.98 45.2C75.06 45.1 75.13 44.99 75.2 44.88C75.37 44.65 75.54 44.41 75.7 44.17C75.73 44.13 75.76 44.08 75.79 44.04C77.71 41.15 78.84 37.65 79.01 33.7C79.05 32.8 79.1 31.84 79.15 30.84C79.64 21.23 80.24 5.37 76.45 1.38H76.44ZM76.99 35.98C76.97 36.12 76.94 36.26 76.91 36.4C76.85 36.71 76.79 37.01 76.71 37.32C76.69 37.41 76.66 37.51 76.64 37.6C76.57 37.88 76.49 38.16 76.4 38.44C76.37 38.52 76.35 38.6 76.32 38.69C76.2 39.05 76.08 39.4 75.94 39.75C75.94 39.77 75.93 39.78 75.92 39.8C75.31 41.33 74.5 42.76 73.49 44.05C72.45 45.32 71.3 46.51 69.92 47.42C69.75 47.54 69.59 47.67 69.42 47.78L68.89 48.09C68.53 48.29 68.19 48.52 67.82 48.71C67.06 49.04 66.34 49.45 65.54 49.69C62.43 50.82 59.03 51.25 55.68 51.09C52.33 50.93 49 50.18 45.95 48.85C42.91 47.52 40.14 45.5 38.41 42.77C37.55 41.41 36.96 39.89 36.72 38.31C36.47 36.72 36.5 35.08 36.96 33.59C37.41 32.1 38.29 30.77 39.48 29.7C40.66 28.63 42.12 27.82 43.65 27.17C44.79 26.7 45.98 26.33 47.19 26.01C47.24 26 47.29 25.98 47.34 25.97C47.59 25.91 47.84 25.85 48.09 25.79C48.56 25.69 49.04 25.58 49.54 25.49C60.72 23.43 62.48 25.21 62.72 26.06C62.91 26.73 62.76 27.45 62.29 28.18C61.29 29.73 58.01 32.57 47.22 34.26C46.77 34.33 46.45 34.73 46.48 35.18C46.51 35.63 46.88 35.99 47.33 36C50.78 36.1 53.97 37.35 55.85 39.36C57.17 40.76 57.8 42.46 57.74 44.41C57.72 44.89 58.1 45.3 58.59 45.32C59.07 45.32 59.48 44.96 59.5 44.47C59.58 42.07 58.76 39.88 57.13 38.16C55.87 36.82 54.15 35.78 52.16 35.1C57.78 33.79 60.87 32.1 62.55 30.55C63 30.64 63.53 30.71 64.08 30.71C65.77 30.71 67.71 30.13 68.53 28.05C69.09 26.64 69.37 24.72 69.37 22.26C69.4 21.29 69.39 20.32 69.35 19.36C69.32 18.52 69.25 17.71 69.16 16.87C68.98 12.54 68.99 4.49 70.7 2.7C71.32 2.05 72.16 1.73 73.28 1.73C74.01 1.73 74.63 2 75.16 2.57C78.43 6.01 77.8 22.44 77.38 30.73C77.33 31.73 77.28 32.7 77.24 33.6C77.22 34.09 77.18 34.58 77.12 35.07C77.08 35.37 77.04 35.67 76.99 35.96V35.98ZM63.48 13.1C64.13 13.16 64.76 13.38 65.29 13.73C65.82 14.09 66.25 14.58 66.56 15.16C66.88 15.74 67.08 16.42 67.17 17.13C67.28 17.9 67.35 18.72 67.43 19.51C67.53 20.52 67.59 21.54 67.62 22.55C67.6 24.64 67.36 26.27 66.91 27.42C66.36 28.8 64.96 29.02 63.89 28.97C64.54 27.87 64.73 26.71 64.43 25.62C63.98 23.99 62.33 23.07 59.4 22.86C59.35 21.9 59.26 20.18 59.12 18.23C59.12 18.23 59.12 18.23 59.12 18.22C59.12 17.99 59.12 17.77 59.1 17.56C59.13 15.68 59.95 14.39 61.04 13.68C61.78 13.24 62.65 13.03 63.49 13.12L63.48 13.1ZM55.28 13.86C56.6 14.57 57.31 16.02 57.36 18.04C57.36 18.11 57.36 18.18 57.36 18.26C57.49 20.14 57.58 21.82 57.63 22.8C55.42 22.83 52.66 23.15 49.31 23.76C49.22 22.47 49.06 20.14 48.9 18.11C48.89 17.98 48.9 17.85 48.9 17.73C48.9 17.63 48.9 17.54 48.93 17.44C48.97 17.03 49.1 16.64 49.24 16.27C49.56 15.54 50.07 14.91 50.73 14.44C51.8 13.66 53.23 13.31 54.54 13.57C54.8 13.64 55.06 13.73 55.29 13.86H55.28ZM47.13 18.41C47.13 18.48 47.15 18.55 47.18 18.62C47.34 20.69 47.5 22.97 47.58 24.13C46.91 24.28 46.26 24.45 45.64 24.63C44.74 24.88 43.86 25.17 42.98 25.52C42.21 25.83 41.45 26.19 40.72 26.6C40.67 25.79 40.56 24.65 40.4 23.02C40.34 22.45 40.28 21.88 40.23 21.32L40.18 19.61C40.18 18.8 40.32 18.02 40.65 17.38C40.97 16.73 41.49 16.21 42.13 15.86C42.58 15.62 43.09 15.47 43.61 15.4C45.22 15.34 46.96 16.24 47.13 18.42V18.41Z" fill="#E71E79"/>
</g>
<defs>
<clipPath id="clip0_26_10">
<rect width="114.1" height="104.61" fill="white"/>
</clipPath>
</defs>
</svg>
