<?xml version="1.0" encoding="UTF-8"?>
<svg xmlns="http://www.w3.org/2000/svg" viewBox="0 0 794.6097 613.0019">
  <g style="isolation: isolate;">
    <g id="Layer_1" data-name="Layer 1">
      <g style="mix-blend-mode: lighten;">
        <path d="M301.0823,549.9916c26.8169,17.7138,51.3516,40.1982,76.1314,62.5127" style="fill: none; stroke: #231f20;"/>
        <path d="M297.7635,555.1996c27.0024,15.9199,51.7544,36.8408,76.8012,57.3047" style="fill: none; stroke: #231f20;"/>
        <path d="M295.0921,560.7308c26.9961,14.084,51.8442,33.3194,77.0195,51.7735" style="fill: none; stroke: #231f20;"/>
        <path d="M293.0652,566.5531c26.7969,12.2187,51.6177,29.6514,76.773,45.9512" style="fill: none; stroke: #231f20;"/>
        <path d="M291.677,572.6332c26.3916,10.3574,51.0572,25.8603,76.0332,39.8711" style="fill: none; stroke: #231f20;"/>
        <path d="M521.8187,612.5043c8.1543-4.5909,16.1475-9.836,23.8985-15.6787" style="fill: none; stroke: #231f20;"/>
        <path d="M290.9192,578.9398c25.7779,8.5078,50.1514,21.9551,74.773,33.5645" style="fill: none; stroke: #231f20;"/>
        <path d="M487.7239,612.5043c17.9375-8.3106,35.543-19.8985,52.1543-33.9453" style="fill: none; stroke: #231f20;"/>
        <path d="M290.781,585.4525c24.9307,6.6934,48.8438,17.9365,72.9034,27.0518" style="fill: none; stroke: #231f20;"/>
        <path d="M454.9661,612.5043c27.04-10.042,53.8135-28.6065,78.6973-52.1778" style="fill: none; stroke: #231f20;"/>
        <path d="M291.2498,592.1468c23.8071,4.9122,47.021,13.7881,70.2524,20.3575" style="fill: none; stroke: #231f20;"/>
        <path d="M423.9231,612.5043c35.5938-9.3203,70.6621-35.8438,103.1592-70.3213" style="fill: none; stroke: #231f20;"/>
        <path d="M292.3099,599.0111c22.1821,3.1611,44.1923,9.4502,66.0922,13.4932" style="fill: none; stroke: #231f20;"/>
        <path d="M393.4324,612.5043c4.5615-.6172,9.1011-1.4864,13.6138-2.6582,39.6924-10.3438,77.542-43.3858,113.1025-85.6592" style="fill: none; stroke: #231f20;"/>
        <path d="M293.9437,606.0316c18.6915,1.3975,37.5274,4.665,56.2261,6.4727" style="fill: none; stroke: #231f20;"/>
        <path d="M372.3714,612.5043c10.9101-1.3946,21.664-3.8633,32.1318-8.0752,38.6416-15.5918,74.2217-52.4951,108.3721-98.0166" style="fill: none; stroke: #231f20;"/>
        <path d="M366.514,612.5043c12.1801-2.8907,24.1211-7.0938,35.5488-13.4786,37.2529-20.8564,70.6221-61.3251,103.2148-110.0888" style="fill: none; stroke: #231f20;"/>
        <path d="M364.575,612.5043c12.1191-4.6504,23.9531-10.6866,35.1479-18.8789,35.5235-26.0342,66.7588-69.8301,97.6495-121.7754" style="fill: none; stroke: #231f20;"/>
        <path d="M363.7674,612.5043c11.667-6.4893,23.0268-14.3897,33.7104-24.2842,33.4795-31.0361,62.6465-77.961,91.6992-132.9727" style="fill: none; stroke: #231f20;"/>
        <path d="M363.4812,612.5043c11.0337-8.3643,21.7569-18.1368,31.8414-29.708,31.1669-35.792,58.2949-85.6739,85.3867-143.5752" style="fill: none; stroke: #231f20;"/>
        <path d="M363.5291,612.5043c10.2905-10.2569,20.2812-21.9004,29.7241-35.1602,28.6436-40.25,53.7197-92.9189,78.7373-153.4756" style="fill: none; stroke: #231f20;"/>
        <path d="M363.8191,612.5043c9.4776-12.1641,18.6773-25.6768,27.4434-40.6524,25.9644-44.3779,48.936-99.6513,71.7769-162.5703" style="fill: none; stroke: #231f20;"/>
        <path d="M364.3094,612.5043c8.6162-14.0909,16.9868-29.4707,25.0371-46.1924,23.1772-48.1621,43.9487-105.8301,64.5337-170.7656" style="fill: none; stroke: #231f20;"/>
        <path d="M364.9939,612.5043c7.7154-16.0469,15.2227-33.3037,22.5039-51.793,20.3091-51.5977,38.8023-111.4053,57.0357-177.9766" style="fill: none; stroke: #231f20;"/>
        <path d="M365.8728,612.5043c6.7745-18.042,13.3833-37.1905,19.8374-57.4619,17.4004-54.6768,33.4952-116.3467,49.3125-184.129" style="fill: none; stroke: #231f20;"/>
        <path d="M366.9622,612.5043c5.7896-20.0811,11.4561-41.1465,17.0166-63.208,14.4609-57.4024,28.0703-120.6182,41.3945-189.168" style="fill: none; stroke: #231f20;"/>
        <path d="M368.2644,612.5043c4.753-22.1729,9.4244-45.1836,14.0298-69.0401,11.5362-59.7666,22.5303-124.2002,33.3135-193.0566" style="fill: none; stroke: #231f20;"/>
        <path d="M369.7981,612.5043c3.6617-24.3184,7.2754-49.3057,10.8531-74.9659,8.6108-61.7763,16.9248-127.0693,25.101-195.7763" style="fill: none; stroke: #231f20;"/>
        <path d="M371.5735,612.5043c2.5108-26.5235,4.9991-53.5215,7.4678-80.9942,5.6987-63.4306,11.2871-129.2148,16.7896-197.3252" style="fill: none; stroke: #231f20;"/>
        <path d="M373.6004,612.5043c4.145-92.4102,8.2329-187.3623,12.27-284.8516" style="fill: none; stroke: #231f20;"/>
        <path d="M375.8958,612.5043V322.1205" style="fill: none; stroke: #231f20;"/>
        <path d="M378.4734,612.5043c-4.1255-100.9229-8.3032-199.2481-12.54-294.9688" style="fill: none; stroke: #231f20;"/>
        <path d="M381.3538,612.5043c-2.8281-35.9971-5.6792-71.4014-8.5566-106.208-5.4995-66.5049-11.0889-130.6573-16.7891-192.4678" style="fill: none; stroke: #231f20;"/>
        <path d="M384.5638,612.5043c-4.3833-38.542-8.8184-76.1485-13.3174-112.8037-8.1533-66.4063-16.4971-129.3213-25.1006-188.7764" style="fill: none; stroke: #231f20;"/>
        <path d="M388.1327,612.5043c-6.0439-41.1621-12.1772-81.0176-18.4477-119.5205-10.7456-65.9707-21.7969-127.3633-33.313-184.2413" style="fill: none; stroke: #231f20;"/>
        <path d="M392.0984,612.5043c-7.8305-43.8584-15.7978-86.0108-23.9931-126.3555-13.2495-65.2109-26.9756-124.8232-41.3941-178.9473" style="fill: none; stroke: #231f20;"/>
        <path d="M396.5077,612.5043c-9.7544-46.6319-19.6943-91.1338-30.0073-133.3057-15.6875-64.1328-32.0352-121.7354-49.312-172.9775" style="fill: none; stroke: #231f20;"/>
        <path d="M401.4173,612.5043c-11.8443-49.4825-23.9199-96.3916-36.5557-140.3692-18.0337-62.7519-36.9868-118.1269-57.0351-166.4082" style="fill: none; stroke: #231f20;"/>
        <path d="M406.9027,612.5043c-14.1294-52.4073-28.5171-101.792-43.7187-147.5411-20.3023-61.0781-41.8272-114.0322-64.5337-159.3164" style="fill: none; stroke: #231f20;"/>
        <path d="M413.054,612.5043c-16.6514-55.4004-33.5527-107.3399-51.5957-154.8145-22.4829-59.1269-46.5581-109.4668-71.7769-151.7666" style="fill: none; stroke: #231f20;"/>
        <path d="M419.9944,612.5043c-19.4658-58.4541-39.1064-113.0469-60.3159-162.1817-24.5781-56.915-51.1841-104.4463-78.7368-143.8213" style="fill: none; stroke: #231f20;"/>
        <path d="M427.8909,612.5043c-22.6582-61.5459-45.3008-118.919-70.0522-169.6338-26.5948-54.4531-55.6773-98.9942-85.3863-135.5303" style="fill: none; stroke: #231f20;"/>
        <path d="M436.97,612.5043c-26.3408-64.6426-52.293-124.9698-81.0381-177.1602-28.5259-51.7637-60.0068-93.1377-91.6987-126.9385" style="fill: none; stroke: #231f20;"/>
        <path d="M447.5589,612.5043c-30.6885-67.6807-60.3277-131.2022-93.6074-184.751-30.3804-48.8555-64.1446-86.9024-97.649-118.082" style="fill: none; stroke: #231f20;"/>
        <path d="M455.1067,602.6263c-34.0966-66.9179-66.5283-130.3056-103.2138-182.5146-32.1631-45.7432-68.0542-80.3301-103.2144-108.9922" style="fill: none; stroke: #231f20;"/>
        <path d="M458.1214,582.5355c-35.9268-62.3379-69.9365-121.914-108.3721-170.1025-33.8774-42.4346-71.7002-73.4658-108.3721-99.6963" style="fill: none; stroke: #231f20;"/>
        <path d="M460.6185,561.2797c-37.6094-57.3321-73.127-112.6788-113.1021-156.5479-35.5166-38.9482-75.0347-66.3887-113.102-90.2197" style="fill: none; stroke: #231f20;"/>
        <path d="M462.5745,538.9867c-39.123-51.9551-76.1006-102.6602-117.3857-141.9649-37.0821-35.2841-78.0459-59.1357-117.3853-80.582" style="fill: none; stroke: #231f20;"/>
        <path d="M463.969,515.7875c-40.4746-46.2422-78.8457-91.919-121.206-126.4668-38.5791-31.4336-80.7114-51.7705-121.2066-70.8076" style="fill: none; stroke: #231f20;"/>
        <path d="M464.7825,491.8138c-41.626-40.2646-81.3491-80.5078-124.5488-110.1689-39.9761-27.418-83.0195-44.3438-124.5484-60.9199" style="fill: none; stroke: #231f20;"/>
        <path d="M464.9974,467.2006c-42.5967-34.0362-83.5806-68.4913-127.3995-93.1895-41.2602-23.2275-84.9614-36.916-127.3989-50.9453" style="fill: none; stroke: #231f20;"/>
        <path d="M464.5999,442.0804c-43.3584-27.6347-85.5171-55.8994-129.7471-75.6455-42.3838-18.9013-86.5356-29.5351-129.7466-40.9082" style="fill: none; stroke: #231f20;"/>
        <path d="M463.5774,416.5941c-43.9355-21.0713-87.1054-42.8144-131.5825-57.6592-43.3237-14.4394-87.7519-22.2246-131.5825-30.8447" style="fill: none; stroke: #231f20;"/>
        <path d="M461.9212,390.8851c-88.4258-28.5986-177.1104-48.6474-265.7984-60.1435" style="fill: none; stroke: #231f20;"/>
        <path d="M459.6233,365.1009c-89.0991-15.0087-178.2129-26.0966-267.3823-31.6425" style="fill: none; stroke: #231f20;"/>
        <path d="M456.679,339.4047c-89.3096-1.129-178.6084-3.7481-267.9106-3.1885" style="fill: none; stroke: #231f20;"/>
        <path d="M453.0872,313.9642c-88.9668,12.916-178.3276,18.253-267.3818,25.0225" style="fill: none; stroke: #231f20;"/>
        <path d="M448.8479,288.9584c-88.0004,26.956-177.3945,39.7529-265.7978,52.7851" style="fill: none; stroke: #231f20;"/>
        <path d="M443.9651,264.5799c-43.6523,20.5914-87.209,39.5269-131.583,51.8257-43.4824,12.0518-87.894,18.4024-131.5825,28.0489" style="fill: none; stroke: #231f20;"/>
        <path d="M438.4427,241.0316c-42.8692,27.4732-85.646,52.4136-129.7471,68.8233-42.6196,15.8496-86.7837,24.5068-129.7471,37.2294" style="fill: none; stroke: #231f20;"/>
        <path d="M432.2894,218.5184c-41.8624,34.1114-83.7134,64.6236-127.399,84.9673-41.5781,19.3525-85.3467,30.4043-127.3989,46.1192" style="fill: none; stroke: #231f20;"/>
        <path d="M425.5169,197.2543c-40.6489,40.3896-81.4751,75.9419-124.5484,100.0483-40.3754,22.5776-83.5883,36.0591-124.5483,54.6763" style="fill: none; stroke: #231f20;"/>
        <path d="M418.138,177.4462c-39.273,46.1748-78.9502,86.2431-121.2066,113.8642-39.0507,25.4966-81.4936,41.4907-121.2065,62.8687" style="fill: none; stroke: #231f20;"/>
        <path d="M410.1673,159.2904c-37.7432,51.3706-76.167,95.3691-117.3858,126.2202-37.6074,28.1382-79.0639,46.6714-117.3862,70.6626" style="fill: none; stroke: #231f20;"/>
        <path d="M401.6233,142.9618c-36.102,55.8574-73.1596,103.1616-113.1025,136.9389-36.0815,30.4834-76.2983,51.5879-113.1021,78.0323" style="fill: none; stroke: #231f20;"/>
        <path d="M392.5257,128.6049c-34.3516,59.5517-69.939,109.5078-108.3721,145.8735-34.4634,32.5713-73.2065,56.2182-108.3721,84.9546" style="fill: none; stroke: #231f20;"/>
        <path d="M382.8973,116.3202c-32.5122,62.3716-66.5108,114.3247-103.2144,152.9165-32.7588,34.4155-69.7925,60.5537-103.2144,91.4131" style="fill: none; stroke: #231f20;"/>
        <path d="M372.762,106.1537c-30.6079,64.2578-62.8877,117.5595-97.6494,158.0137-30.9751,36.0278-66.0747,64.5761-97.6494,97.3974" style="fill: none; stroke: #231f20;"/>
        <path d="M362.1463,98.0907c-28.6265,65.1973-59.0772,119.2104-91.6987,161.168-29.1138,37.4267-62.0601,68.2866-91.6988,102.8999" style="fill: none; stroke: #231f20;"/>
        <path d="M351.0784,92.0414c-26.5923,65.1972-55.083,119.3403-85.3867,162.456-27.1733,38.6338-57.7739,71.6719-85.3862,107.919" style="fill: none; stroke: #231f20;"/>
        <path d="M339.5882,87.8431c-24.4976,64.3203-50.9043,118.0752-78.7368,162.0249-25.1441,39.6748-53.2412,74.729-78.7369,112.4585" style="fill: none; stroke: #231f20;"/>
        <path d="M327.7083,85.2567c-22.3638,62.6607-46.5381,115.6069-71.7773,160.0967-23.021,40.5718-48.4864,77.4624-71.7769,116.5278" style="fill: none; stroke: #231f20;"/>
        <path d="M315.4705,83.973c-20.1787,60.3696-42.001,112.1748-64.5337,156.9624-20.8076,41.3399-43.5415,79.8736-64.5332,120.1353" style="fill: none; stroke: #231f20;"/>
        <path d="M302.9109,83.6219c-17.935,57.6343-37.268,108.0948-57.0356,152.9707-18.5044,41.9986-38.4238,81.981-57.0357,123.2974" style="fill: none; stroke: #231f20;"/>
        <path d="M290.0643,83.788c-15.6314,54.6713-32.3614,103.6967-49.3121,148.518-16.103,42.5684-33.1606,83.7959-49.3125,126.0313" style="fill: none; stroke: #231f20;"/>
        <path d="M276.9681,84.0292c-13.2574,51.7192-27.2886,99.3403-41.3946,144.0234-13.5986,43.0659-27.7885,85.3325-41.3945,128.3521" style="fill: none; stroke: #231f20;"/>
        <path d="M263.6609,83.9037c-21.0449,95.6137-44.7588,183.2988-66.6269,270.1894" style="fill: none; stroke: #231f20;"/>
        <path d="M250.181,82.9896c-16.2081,92.2617-33.6534,180.417-50.2017,268.4092" style="fill: none; stroke: #231f20;"/>
        <path d="M236.5682,80.9154c-11.0469,90.02-22.4659,178.5869-33.5782,267.4043" style="fill: none; stroke: #231f20;"/>
        <path d="M222.8621,77.3788c-5.5937,89.0952-11.2344,178.1147-16.8223,267.4741" style="fill: none; stroke: #231f20;"/>
        <path d="M209.1043,72.1683c0,89.6089-.0005,179.2178-.0005,268.8262" style="fill: none; stroke: #231f20;"/>
        <path d="M195.3344,65.1761c5.5625,91.6202,11.1967,182.0079,16.8217,271.5694" style="fill: none; stroke: #231f20;"/>
        <path d="M181.5932,56.4042c10.9253,95.1269,22.3178,186.4853,33.5781,275.6967" style="fill: none; stroke: #231f20;"/>
        <path d="M167.9213,45.9676c16.0024,100.042,33.3144,192.5386,50.2016,281.0923" style="fill: none; stroke: #231f20;"/>
        <path d="M154.3598,34.0804c10.7319,54.8174,21.9223,105.9561,33.3134,154.0454,10.8667,45.8965,22.1719,90.0948,33.313,133.4947" style="fill: none; stroke: #231f20;"/>
        <path d="M140.9477,21.0472c13.205,59.0557,27.101,112.8545,41.3945,162.1885,13.3984,46.2251,27.5405,89.9287,41.3945,132.5479" style="fill: none; stroke: #231f20;"/>
        <path d="M127.725,7.2386c15.6099,63.5845,32.1172,120.3091,49.312,170.9854,15.811,46.5986,32.7886,89.6704,49.312,131.3271" style="fill: none; stroke: #231f20;"/>
        <path d="M116.6654,.3695c17.3911,65.1279,35.7378,122.52,55.0996,172.7212,18.1289,47.0063,37.9004,89.3247,57.0352,129.8364" style="fill: none; stroke: #231f20;"/>
        <path d="M108.0932,.3695c18.4511,63.5449,37.8081,119.3306,58.4394,167.4673,20.3438,47.4448,42.8418,88.9053,64.5337,128.083" style="fill: none; stroke: #231f20;"/>
        <path d="M100.182,.3695c8.2354,26.3462,16.6367,51.3779,25.2774,75.0366,11.5464,31.6162,23.5092,60.6187,35.8882,87.0606,22.4521,47.9018,47.5791,88.4277,71.7768,126.0717" style="fill: none; stroke: #231f20;"/>
        <path d="M92.8554,.3695c7.8364,23.3535,15.8105,45.6826,23.9926,66.918,12.6573,32.81,25.7466,62.729,39.3687,89.6987,24.4482,48.3652,52.103,87.897,78.7368,123.812" style="fill: none; stroke: #231f20;"/>
        <path d="M86.0131,.3695c7.3452,20.4531,14.8037,40.1416,22.4404,58.9961,13.71,33.8506,27.8804,64.5933,42.6929,92.0376,26.3672,48.7974,56.3774,87.3369,85.3862,121.312" style="fill: none; stroke: #231f20;"/>
        <path d="M79.5917,.3695c6.7915,17.6963,13.6733,34.8457,20.7017,51.3872,14.7338,34.6763,29.916,66.1206,45.8496,93.9707,28.1757,49.1919,60.4028,86.7466,91.6987,118.584" style="fill: none; stroke: #231f20;"/>
        <path d="M73.5326,.3695c6.2002,15.1211,12.4707,29.8696,18.8555,44.1963,15.7178,35.25,31.8266,67.248,48.8242,95.4028,29.9019,49.5093,64.1572,86.1475,97.6494,115.6416" style="fill: none; stroke: #231f20;"/>
        <path d="M67.7836,.3695c5.5908,12.7593,11.2363,25.2778,16.9697,37.5176,16.6494,35.5415,33.6348,67.897,51.6074,96.2519,31.524,49.7354,67.6412,85.542,103.2144,112.501" style="fill: none; stroke: #231f20;"/>
        <path d="M62.31,.3695c22.1113,47.1807,44.5688,90.6045,69.2836,127.8809,33.0635,49.8305,70.8599,84.9248,108.3721,109.1796" style="fill: none; stroke: #231f20;"/>
        <path d="M57.0678,.3695c22.3579,44.5083,44.9619,86.02,69.8486,121.9453,34.5068,49.7759,73.8237,84.2778,113.1021,105.6978" style="fill: none; stroke: #231f20;"/>
        <path d="M52.0272,.3695c22.5777,41.8203,45.292,81.4048,70.3062,115.9751,35.8682,49.5342,76.5352,83.5845,117.3857,102.0742" style="fill: none; stroke: #231f20;"/>
        <path d="M47.1649,.3695c22.7867,39.1216,45.5879,76.7705,70.6841,109.9814,37.1446,49.0811,78.9956,82.8228,121.2061,98.3296" style="fill: none; stroke: #231f20;"/>
        <path d="M42.4125,.3695c23.0005,36.4253,45.8921,72.1377,71.0547,103.9766,38.2973,48.4204,81.2168,81.9213,124.5488,94.4824" style="fill: none; stroke: #231f20;"/>
        <path d="M37.7567,.3695c23.2276,33.7319,46.2095,67.5254,71.4361,97.9692,39.3603,47.5005,83.1841,80.8467,127.3989,90.5484" style="fill: none; stroke: #231f20;"/>
        <path d="M33.1166,.3695c23.5044,31.0327,46.6235,62.9204,71.9111,91.9697,40.3345,46.2969,84.8863,79.5332,129.7466,86.5401" style="fill: none; stroke: #231f20;"/>
        <path d="M28.4105,.3695c23.8487,28.3262,47.1748,58.3437,72.5645,85.9849,41.2031,44.7993,86.3013,77.9262,131.5825,82.4633" style="fill: none; stroke: #231f20;"/>
        <path d="M23.4711,.3695c24.3203,25.5913,47.9971,53.7759,73.5664,80.0215,41.9297,43.019,87.4033,75.9785,132.8994,78.3188" style="fill: none; stroke: #231f20;"/>
        <path d="M18.1156,.3695c24.9844,22.7832,49.229,49.1846,75.1016,74.084,42.5356,40.9165,88.1655,73.6181,133.6909,74.0962" style="fill: none; stroke: #231f20;"/>
      </g>
      <g>
        <path d="M792.3538,495.2504s.6094-.6094,1.7598-1.7598" style="fill: none; stroke: #231f20;"/>
        <path d="M790.1673,497.8998s1.3965-1.4873,3.9463-4.2022" style="fill: none; stroke: #231f20;"/>
        <path d="M788.0765,500.4545s2.1728-2.4649,6.0371-6.8477" style="fill: none; stroke: #231f20;"/>
        <path d="M786.0765,502.9134s2.9355-3.5488,8.0371-9.7148" style="fill: none; stroke: #231f20;"/>
        <path d="M784.1663,505.2738s3.6836-4.749,9.9473-12.8242" style="fill: none; stroke: #231f20;"/>
        <path d="M782.3421,507.5306s4.417-6.0791,11.7715-16.2021" style="fill: none; stroke: #231f20;"/>
        <path d="M780.5999,509.683s5.1367-7.5586,13.5137-19.8848" style="fill: none; stroke: #231f20;"/>
        <path d="M778.9368,511.7289s5.8457-9.211,15.1768-23.9151" style="fill: none; stroke: #231f20;"/>
        <path d="M777.3499,513.6644s6.543-11.0644,16.7637-28.3457" style="fill: none; stroke: #231f20;"/>
        <path d="M775.8352,515.4877s7.2344-13.1602,18.2784-33.2481" style="fill: none; stroke: #231f20;"/>
        <path d="M774.389,517.1966s7.9228-15.5498,19.7246-38.7119" style="fill: none; stroke: #231f20;"/>
        <path d="M773.0081,518.7884s8.6133-18.3037,21.1055-44.8515" style="fill: none; stroke: #231f20;"/>
        <path d="M771.6888,520.2631s9.3115-21.5166,22.4248-51.8204" style="fill: none; stroke: #231f20;"/>
        <path d="M770.4261,521.6166s10.0273-25.3262,23.6875-59.8272" style="fill: none; stroke: #231f20;"/>
        <path d="M769.2181,522.849s10.7734-29.9229,24.8955-69.1494" style="fill: none; stroke: #231f20;"/>
        <path d="M768.0608,523.9564s11.5664-35.5976,26.0528-80.1816" style="fill: none; stroke: #231f20;"/>
        <path d="M766.9485,524.9398s12.4375-42.8086,27.1651-93.5019" style="fill: none; stroke: #231f20;"/>
        <path d="M765.8792,525.7963s13.4326-52.3145,28.2344-109.9659" style="fill: none; stroke: #231f20;"/>
        <path d="M764.847,526.5248s14.6406-65.4991,29.2666-130.9307" style="fill: none; stroke: #231f20;"/>
        <path d="M763.8499,527.1244s16.2529-85.2041,30.2637-158.6485" style="fill: none; stroke: #231f20;"/>
        <path d="M762.8821,527.5941s18.8145-118.7871,31.2315-197.1846" style="fill: none; stroke: #231f20;"/>
        <path d="M761.9407,527.932s25.8086-204.2988,32.1729-254.6738" style="fill: none; stroke: #231f20;"/>
        <line x1="761.0208" y1="528.139" x2="786.2337" y2="261.4178" style="fill: none; stroke: #231f20;"/>
        <line x1="760.1194" y1="528.2142" x2="776.9417" y2="260.8324" style="fill: none; stroke: #231f20;"/>
        <line x1="759.2308" y1="528.1566" x2="767.6458" y2="260.3783" style="fill: none; stroke: #231f20;"/>
        <line x1="758.3519" y1="527.9652" x2="758.3519" y2="260.055" style="fill: none; stroke: #231f20;"/>
        <line x1="757.4769" y1="527.642" x2="749.0628" y2="259.8632" style="fill: none; stroke: #231f20;"/>
        <line x1="756.6038" y1="527.184" x2="739.7825" y2="259.8021" style="fill: none; stroke: #231f20;"/>
        <line x1="755.7278" y1="526.5931" x2="730.5159" y2="259.8715" style="fill: none; stroke: #231f20;"/>
        <line x1="754.844" y1="525.8685" x2="721.2669" y2="260.0707" style="fill: none; stroke: #231f20;"/>
        <line x1="753.9495" y1="525.0121" x2="712.0394" y2="260.3993" style="fill: none; stroke: #231f20;"/>
        <line x1="753.0384" y1="524.0218" x2="702.8372" y2="260.8568" style="fill: none; stroke: #231f20;"/>
        <line x1="752.1067" y1="522.9007" x2="693.6644" y2="261.4423" style="fill: none; stroke: #231f20;"/>
        <line x1="751.1527" y1="521.6478" x2="684.5257" y2="262.1542" style="fill: none; stroke: #231f20;"/>
        <line x1="750.1692" y1="520.265" x2="675.4241" y2="262.9921" style="fill: none; stroke: #231f20;"/>
        <line x1="749.1537" y1="518.7523" x2="666.3645" y2="263.9545" style="fill: none; stroke: #231f20;"/>
        <line x1="748.1019" y1="517.1117" x2="657.3509" y2="265.0394" style="fill: none; stroke: #231f20;"/>
        <line x1="747.0101" y1="515.3441" x2="648.386" y2="266.2465" style="fill: none; stroke: #231f20;"/>
        <line x1="745.8733" y1="513.4496" x2="639.4739" y2="267.5736" style="fill: none; stroke: #231f20;"/>
        <line x1="744.6888" y1="511.432" x2="630.6185" y2="269.0184" style="fill: none; stroke: #231f20;"/>
        <line x1="743.4524" y1="509.2904" x2="621.8245" y2="270.5804" style="fill: none; stroke: #231f20;"/>
        <line x1="742.1604" y1="507.0287" x2="613.0931" y2="272.2562" style="fill: none; stroke: #231f20;"/>
        <line x1="740.8079" y1="504.6468" x2="604.431" y2="274.0448" style="fill: none; stroke: #231f20;"/>
        <line x1="739.3919" y1="502.1478" x2="595.8392" y2="275.9432" style="fill: none; stroke: #231f20;"/>
        <line x1="737.9095" y1="499.5336" x2="587.3217" y2="277.9501" style="fill: none; stroke: #231f20;"/>
        <line x1="736.3558" y1="496.807" x2="578.8831" y2="280.0619" style="fill: none; stroke: #231f20;"/>
        <line x1="734.7288" y1="493.9681" x2="570.5247" y2="282.2772" style="fill: none; stroke: #231f20;"/>
        <line x1="733.0237" y1="491.0218" x2="562.2513" y2="284.5926" style="fill: none; stroke: #231f20;"/>
        <line x1="731.2377" y1="487.9691" x2="554.0647" y2="287.0062" style="fill: none; stroke: #231f20;"/>
        <line x1="729.3675" y1="484.8129" x2="545.97" y2="289.5145" style="fill: none; stroke: #231f20;"/>
        <line x1="727.4085" y1="481.556" x2="537.9681" y2="292.1146" style="fill: none; stroke: #231f20;"/>
        <line x1="725.3607" y1="478.2015" x2="530.0618" y2="294.8041" style="fill: none; stroke: #231f20;"/>
        <line x1="723.2181" y1="474.7523" x2="522.2561" y2="297.579" style="fill: none; stroke: #231f20;"/>
        <line x1="720.9798" y1="471.2103" x2="514.5511" y2="300.4374" style="fill: none; stroke: #231f20;"/>
        <line x1="718.6409" y1="467.5795" x2="506.9505" y2="303.3749" style="fill: none; stroke: #231f20;"/>
        <line x1="716.2005" y1="463.8627" x2="499.4563" y2="306.389" style="fill: none; stroke: #231f20;"/>
        <line x1="713.6557" y1="460.0638" x2="492.0727" y2="309.4759" style="fill: none; stroke: #231f20;"/>
        <line x1="711.0032" y1="456.1859" x2="484.7991" y2="312.6322" style="fill: none; stroke: #231f20;"/>
        <line x1="708.2405" y1="452.2318" x2="477.639" y2="315.8539" style="fill: none; stroke: #231f20;"/>
        <line x1="705.3665" y1="448.2064" x2="470.594" y2="319.139" style="fill: none; stroke: #231f20;"/>
        <line x1="702.3772" y1="444.1107" x2="463.6673" y2="322.4818" style="fill: none; stroke: #231f20;"/>
        <line x1="699.2718" y1="439.9506" x2="456.8597" y2="325.8793" style="fill: none; stroke: #231f20;"/>
        <line x1="696.0481" y1="435.7299" x2="450.1722" y2="329.3285" style="fill: none; stroke: #231f20;"/>
        <line x1="692.7044" y1="431.4506" x2="443.6077" y2="332.8256" style="fill: none; stroke: #231f20;"/>
        <line x1="689.2387" y1="427.1175" x2="437.1663" y2="336.3656" style="fill: none; stroke: #231f20;"/>
        <line x1="685.6487" y1="422.7347" x2="430.8509" y2="339.9457" style="fill: none; stroke: #231f20;"/>
        <line x1="681.9339" y1="418.305" x2="424.6614" y2="343.5609" style="fill: none; stroke: #231f20;"/>
        <line x1="678.0921" y1="413.8343" x2="418.5989" y2="347.2074" style="fill: none; stroke: #231f20;"/>
        <line x1="674.1233" y1="409.3246" x2="412.6644" y2="350.8812" style="fill: none; stroke: #231f20;"/>
        <line x1="670.0247" y1="404.7806" x2="406.8597" y2="354.5795" style="fill: none; stroke: #231f20;"/>
        <line x1="665.7972" y1="400.2074" x2="401.1849" y2="358.2972" style="fill: none; stroke: #231f20;"/>
        <line x1="661.4378" y1="395.6078" x2="395.6399" y2="362.0297" style="fill: none; stroke: #231f20;"/>
        <line x1="656.9477" y1="390.9867" x2="390.2254" y2="365.7738" style="fill: none; stroke: #231f20;"/>
        <line x1="652.3245" y1="386.348" x2="384.9422" y2="369.5257" style="fill: none; stroke: #231f20;"/>
        <line x1="647.5687" y1="381.6957" x2="379.7903" y2="373.2797" style="fill: none; stroke: #231f20;"/>
        <line x1="642.68" y1="377.0336" x2="374.7693" y2="377.0336" style="fill: none; stroke: #231f20;"/>
        <line x1="637.6585" y1="372.3656" x2="369.8797" y2="380.7816" style="fill: none; stroke: #231f20;"/>
        <line x1="632.5022" y1="367.6976" x2="365.1204" y2="384.5199" style="fill: none; stroke: #231f20;"/>
        <line x1="627.2142" y1="363.0336" x2="360.492" y2="388.2455" style="fill: none; stroke: #231f20;"/>
        <line x1="621.7923" y1="358.3763" x2="355.9939" y2="391.9545" style="fill: none; stroke: #231f20;"/>
        <line x1="616.2367" y1="353.7308" x2="351.6248" y2="395.641" style="fill: none; stroke: #231f20;"/>
        <line x1="610.5501" y1="349.1" x2="347.3847" y2="399.3011" style="fill: none; stroke: #231f20;"/>
        <line x1="604.7308" y1="344.4906" x2="343.2723" y2="402.933" style="fill: none; stroke: #231f20;"/>
        <line x1="598.7807" y1="339.9047" x2="339.2864" y2="406.5306" style="fill: none; stroke: #231f20;"/>
        <line x1="592.6995" y1="335.3461" x2="335.4267" y2="410.0912" style="fill: none; stroke: #231f20;"/>
        <line x1="586.4887" y1="330.8207" x2="331.6907" y2="413.6097" style="fill: none; stroke: #231f20;"/>
        <line x1="580.1507" y1="326.3314" x2="328.0784" y2="417.0824" style="fill: none; stroke: #231f20;"/>
        <line x1="573.6849" y1="321.8832" x2="324.5877" y2="420.5072" style="fill: none; stroke: #231f20;"/>
        <line x1="567.0931" y1="317.4779" x2="321.2167" y2="423.8773" style="fill: none; stroke: #231f20;"/>
        <line x1="560.3772" y1="313.1215" x2="317.9642" y2="427.1918" style="fill: none; stroke: #231f20;"/>
        <line x1="553.5384" y1="308.8168" x2="314.8279" y2="430.4457" style="fill: none; stroke: #231f20;"/>
        <line x1="546.5784" y1="304.5682" x2="311.806" y2="433.6351" style="fill: none; stroke: #231f20;"/>
        <line x1="539.4983" y1="300.3793" x2="308.8968" y2="436.7572" style="fill: none; stroke: #231f20;"/>
        <line x1="532.302" y1="296.2543" x2="306.0975" y2="439.808" style="fill: none; stroke: #231f20;"/>
        <line x1="524.9905" y1="292.1957" x2="303.4065" y2="442.7836" style="fill: none; stroke: #231f20;"/>
        <line x1="517.5647" y1="288.2079" x2="300.8207" y2="445.682" style="fill: none; stroke: #231f20;"/>
        <line x1="510.0297" y1="284.2943" x2="298.3382" y2="448.4984" style="fill: none; stroke: #231f20;"/>
        <line x1="502.3851" y1="280.4589" x2="295.9559" y2="451.2308" style="fill: none; stroke: #231f20;"/>
        <line x1="494.6341" y1="276.704" x2="293.6712" y2="453.8763" style="fill: none; stroke: #231f20;"/>
        <line x1="486.7807" y1="273.0331" x2="291.4817" y2="456.431" style="fill: none; stroke: #231f20;"/>
        <line x1="478.8255" y1="269.4501" x2="289.3841" y2="458.891" style="fill: none; stroke: #231f20;"/>
        <line x1="470.7737" y1="265.9579" x2="287.3758" y2="461.2562" style="fill: none; stroke: #231f20;"/>
        <line x1="462.6263" y1="262.559" x2="285.4534" y2="463.5218" style="fill: none; stroke: #231f20;"/>
        <line x1="454.386" y1="259.2567" x2="283.6137" y2="465.6849" style="fill: none; stroke: #231f20;"/>
        <line x1="446.0579" y1="256.0541" x2="281.8538" y2="467.7445" style="fill: none; stroke: #231f20;"/>
        <line x1="437.6438" y1="252.953" x2="280.1697" y2="469.6976" style="fill: none; stroke: #231f20;"/>
        <line x1="429.1468" y1="249.9574" x2="278.5589" y2="471.5414" style="fill: none; stroke: #231f20;"/>
        <line x1="420.5717" y1="247.0687" x2="277.0174" y2="473.2728" style="fill: none; stroke: #231f20;"/>
        <line x1="411.9202" y1="244.2904" x2="275.5418" y2="474.892" style="fill: none; stroke: #231f20;"/>
        <line x1="403.1957" y1="241.6239" x2="274.1287" y2="476.3959" style="fill: none; stroke: #231f20;"/>
        <line x1="394.4027" y1="239.0716" x2="272.7737" y2="477.7816" style="fill: none; stroke: #231f20;"/>
        <line x1="385.5452" y1="236.6356" x2="271.4739" y2="479.0482" style="fill: none; stroke: #231f20;"/>
        <line x1="376.6258" y1="234.3182" x2="270.2254" y2="480.1947" style="fill: none; stroke: #231f20;"/>
        <line x1="367.6487" y1="232.121" x2="269.0242" y2="481.2181" style="fill: none; stroke: #231f20;"/>
        <line x1="358.618" y1="230.0463" x2="267.8665" y2="482.1185" style="fill: none; stroke: #231f20;"/>
        <line x1="349.5374" y1="228.0946" x2="266.7483" y2="482.8929" style="fill: none; stroke: #231f20;"/>
        <line x1="340.4104" y1="226.2684" x2="265.6653" y2="483.5414" style="fill: none; stroke: #231f20;"/>
        <line x1="331.2415" y1="224.5687" x2="264.6145" y2="484.0629" style="fill: none; stroke: #231f20;"/>
        <line x1="322.0345" y1="222.9974" x2="263.5911" y2="484.4554" style="fill: none; stroke: #231f20;"/>
        <line x1="312.7928" y1="221.5541" x2="262.5911" y2="484.7191" style="fill: none; stroke: #231f20;"/>
        <line x1="303.5218" y1="220.2416" x2="261.6111" y2="484.8539" style="fill: none; stroke: #231f20;"/>
        <line x1="294.2244" y1="219.0594" x2="260.6463" y2="484.8578" style="fill: none; stroke: #231f20;"/>
        <line x1="284.9051" y1="218.0091" x2="259.6927" y2="484.7308" style="fill: none; stroke: #231f20;"/>
        <line x1="275.5687" y1="217.0912" x2="258.7459" y2="484.473" style="fill: none; stroke: #231f20;"/>
        <line x1="266.2181" y1="216.3055" x2="257.803" y2="484.0843" style="fill: none; stroke: #231f20;"/>
        <line x1="256.8587" y1="215.6532" x2="256.8582" y2="483.5638" style="fill: none; stroke: #231f20;"/>
        <line x1="247.4939" y1="215.1341" x2="255.909" y2="482.9125" style="fill: none; stroke: #231f20;"/>
        <line x1="238.1282" y1="214.7484" x2="254.95" y2="482.1302" style="fill: none; stroke: #231f20;"/>
        <line x1="228.7654" y1="214.496" x2="253.9778" y2="481.2181" style="fill: none; stroke: #231f20;"/>
        <line x1="219.4104" y1="214.3773" x2="252.9887" y2="480.1752" style="fill: none; stroke: #231f20;"/>
        <line x1="210.0667" y1="214.391" x2="251.9773" y2="479.0033" style="fill: none; stroke: #231f20;"/>
        <line x1="200.7392" y1="214.537" x2="250.9407" y2="477.7025" style="fill: none; stroke: #231f20;"/>
        <line x1="191.4315" y1="214.8153" x2="249.8743" y2="476.2738" style="fill: none; stroke: #231f20;"/>
        <line x1="182.1478" y1="215.2245" x2="248.7742" y2="474.7181" style="fill: none; stroke: #231f20;"/>
        <line x1="172.892" y1="215.7645" x2="247.6365" y2="473.0375" style="fill: none; stroke: #231f20;"/>
        <line x1="163.6688" y1="216.434" x2="246.4573" y2="471.2318" style="fill: none; stroke: #231f20;"/>
        <line x1="154.4813" y1="217.2313" x2="245.2327" y2="469.3031" style="fill: none; stroke: #231f20;"/>
        <line x1="145.3349" y1="218.1561" x2="243.9588" y2="467.2533" style="fill: none; stroke: #231f20;"/>
        <line x1="136.2323" y1="219.2069" x2="242.6321" y2="465.0834" style="fill: none; stroke: #231f20;"/>
        <line x1="127.1776" y1="220.3817" x2="241.2483" y2="462.7943" style="fill: none; stroke: #231f20;"/>
        <line x1="118.1757" y1="221.6796" x2="239.8045" y2="460.39" style="fill: none; stroke: #231f20;"/>
        <line x1="109.2294" y1="223.0985" x2="238.2962" y2="457.8705" style="fill: none; stroke: #231f20;"/>
        <line x1="100.3427" y1="224.6366" x2="236.72" y2="455.2386" style="fill: none; stroke: #231f20;"/>
        <line x1="91.5194" y1="226.2924" x2="235.073" y2="452.4965" style="fill: none; stroke: #231f20;"/>
        <line x1="82.7636" y1="228.0629" x2="233.3514" y2="449.6468" style="fill: none; stroke: #231f20;"/>
        <line x1="74.078" y1="229.9471" x2="231.552" y2="446.6918" style="fill: none; stroke: #231f20;"/>
        <line x1="65.4667" y1="231.9423" x2="229.6712" y2="443.6332" style="fill: none; stroke: #231f20;"/>
        <line x1="56.933" y1="234.0453" x2="227.7059" y2="440.474" style="fill: none; stroke: #231f20;"/>
        <line x1="48.4804" y1="236.2548" x2="225.6531" y2="437.2181" style="fill: none; stroke: #231f20;"/>
        <line x1="40.1122" y1="238.5677" x2="223.5097" y2="433.8666" style="fill: none; stroke: #231f20;"/>
        <line x1="31.8314" y1="240.9813" x2="221.2727" y2="430.4222" style="fill: none; stroke: #231f20;"/>
        <line x1="23.641" y1="243.4925" x2="218.9393" y2="426.89" style="fill: none; stroke: #231f20;"/>
        <line x1="15.5448" y1="246.099" x2="216.5071" y2="423.2718" style="fill: none; stroke: #231f20;"/>
        <line x1="7.5448" y1="248.7972" x2="213.9729" y2="419.5697" style="fill: none; stroke: #231f20;"/>
        <path d="M.3065,252.099c12.9385,10.0361,211.0284,163.6904,211.0284,163.6904" style="fill: none; stroke: #231f20;"/>
        <path d="M.3065,260.6053c40.0088,29.0679,208.2832,151.3267,208.2832,151.3267" style="fill: none; stroke: #231f20;"/>
        <path d="M.3065,268.392c51.0308,34.6806,205.4292,139.6103,205.4292,139.6103" style="fill: none; stroke: #231f20;"/>
        <path d="M.3065,275.515c58.0513,36.8399,202.4639,128.4873,202.4639,128.4873" style="fill: none; stroke: #231f20;"/>
        <path d="M.3065,282.0214c62.9966,37.2563,199.3848,117.9155,199.3848,117.9155" style="fill: none; stroke: #231f20;"/>
        <path d="M.3065,287.9525c66.627,36.6279,196.1905,107.8565,196.1905,107.8565" style="fill: none; stroke: #231f20;"/>
        <path d="M.3065,293.3461c69.3301,35.3252,192.8785,98.2763,192.8785,98.2763" style="fill: none; stroke: #231f20;"/>
        <path d="M.3065,298.2342c71.3345,33.5669,189.4478,89.147,189.4478,89.147" style="fill: none; stroke: #231f20;"/>
        <path d="M.3065,302.6449c72.7857,31.4971,185.896,80.4443,185.896,80.4443" style="fill: none; stroke: #231f20;"/>
        <path d="M.3065,306.6024c73.7832,29.2134,182.2217,72.147,182.2217,72.147" style="fill: none; stroke: #231f20;"/>
        <path d="M.3065,310.1293c74.3985,26.7851,178.4239,64.2363,178.4239,64.2363" style="fill: none; stroke: #231f20;"/>
        <path d="M.3065,313.2445c74.6831,24.2666,174.501,56.6992,174.501,56.6992" style="fill: none; stroke: #231f20;"/>
        <path d="M.3065,315.9642c74.6778,21.6953,170.4517,49.5205,170.4517,49.5205" style="fill: none; stroke: #231f20;"/>
        <path d="M.3065,318.3021c74.4117,19.1055,166.2754,42.6924,166.2754,42.6924" style="fill: none; stroke: #231f20;"/>
        <path d="M.3065,320.2728c73.9097,16.5205,161.9707,36.2041,161.9707,36.2041" style="fill: none; stroke: #231f20;"/>
        <path d="M.3065,321.8841c73.19,13.962,157.5367,30.0518,157.5367,30.0518" style="fill: none; stroke: #231f20;"/>
        <path d="M.3065,323.1468c72.2691,11.4463,152.9732,24.2286,152.9732,24.2286" style="fill: none; stroke: #231f20;"/>
        <path d="M.3065,324.0668c71.1587,8.9902,148.2793,18.7324,148.2793,18.7324" style="fill: none; stroke: #231f20;"/>
        <path d="M.3065,324.6507c69.8692,6.6045,143.4546,13.5606,143.4546,13.5606" style="fill: none; stroke: #231f20;"/>
        <path d="M.3065,324.9037c68.4092,4.3037,138.4991,8.7138,138.4991,8.7138" style="fill: none; stroke: #231f20;"/>
        <path d="M.3065,324.8265c66.7852,2.0996,133.4121,4.1934,133.4121,4.1934" style="fill: none; stroke: #231f20;"/>
      </g>
    </g>
  </g>
</svg>