<?xml version="1.0" encoding="UTF-8"?>
<svg xmlns="http://www.w3.org/2000/svg" viewBox="0 0 791.7 550.4">
  <g isolation="isolate">
    <g id="uuid-5581ff30-98d6-4d94-a19b-6c732dcbae6b" data-name="Layer 1">
      <g mix-blend-mode="lighten">
        <path d="M475.2,353.7c-33.8-13.6-65.4-28.5-91.7-47.7-25-18.3-45.7-40.6-68.7-60.3" fill="none" stroke="#231f20"/>
        <path d="M485.6,342.8c-37.1-10.9-71.4-23.5-99.7-41.1-26.5-16.5-48.5-37.7-72.8-55.8" fill="none" stroke="#231f20"/>
        <path d="M494.9,332c-40.1-8.2-76.7-18.6-106.8-34.6-27.8-14.8-51-34.7-76.6-51.2" fill="none" stroke="#231f20"/>
        <path d="M503,321.4c-42.6-5.6-81.2-14-112.8-28.3-28.9-13.1-53.3-31.6-80-46.4" fill="none" stroke="#231f20"/>
        <path d="M509.9,311c-44.8-3.2-84.8-9.7-117.8-22.3-29.8-11.4-55.3-28.3-82.9-41.5" fill="none" stroke="#231f20"/>
        <path d="M515.4,301c-46.4-.9-87.5-5.7-121.5-16.6-30.5-9.8-57.1-25-85.5-36.4" fill="none" stroke="#231f20"/>
        <path d="M519.5,291.3c-47.5,1.1-89.2-2.1-124-11.3-31-8.2-58.5-21.6-87.6-31.3" fill="none" stroke="#231f20"/>
        <path d="M522.3,282c-47.9,2.8-90,1.1-125.2-6.3-31.4-6.6-59.7-18-89.4-26" fill="none" stroke="#231f20"/>
        <path d="M523.6,273.1c-47.9,4.3-89.7,3.9-125.1-1.8-31.6-5-60.6-14.5-90.7-20.7" fill="none" stroke="#231f20"/>
        <path d="M523.5,264.6c-47.2,5.5-88.5,6.3-123.8,2.4-31.7-3.5-61.2-10.8-91.6-15.4" fill="none" stroke="#231f20"/>
        <path d="M522.3,256.4c-46,6.4-86.4,8.3-121.4,6.2-31.6-2-61.5-7.2-92.1-10" fill="none" stroke="#231f20"/>
        <path d="M519.9,248.6c-44.3,7.2-83.5,10.1-118,9.7-31.5-.4-61.6-3.5-92.2-4.5" fill="none" stroke="#231f20"/>
        <path d="M516.7,240.9c-42.3,7.7-80,11.7-113.8,12.9-31.2,1.2-61.4,.2-92,.9" fill="none" stroke="#231f20"/>
        <path d="M512.8,233.4c-39.9,8.2-76,13.1-109,16.1-30.8,2.7-61,4-91.4,6.4" fill="none" stroke="#231f20"/>
        <path d="M508.6,225.8c-37.4,8.5-71.8,14.6-103.8,19.2-30.4,4.3-60.3,7.7-90.6,11.9" fill="none" stroke="#231f20"/>
        <path d="M504.2,218.2c-34.9,9-67.6,16.2-98.6,22.4-29.9,6-59.5,11.3-89.3,17.3" fill="none" stroke="#231f20"/>
        <path d="M499.9,210.2c-63.4,18.7-122.9,33.2-181.4,48.5" fill="none" stroke="#231f20"/>
        <path d="M496.1,202c-59.8,20.4-117.6,38.8-175,57.7" fill="none" stroke="#231f20"/>
        <path d="M492.9,193.3c-56.8,22.8-112.9,44.8-169,67.2" fill="none" stroke="#231f20"/>
        <path d="M490.5,184c-54.5,25.7-109,51.3-163.6,77.1" fill="none" stroke="#231f20"/>
        <path d="M489.1,174.2c-53,29.2-105.9,58.3-158.9,87.5" fill="none" stroke="#231f20"/>
        <path d="M488.7,163.8c-52.4,33.1-104,65.8-155.1,98.3" fill="none" stroke="#231f20"/>
        <path d="M489.5,152.8c-52.7,37.4-103,73.9-152.1,109.6" fill="none" stroke="#231f20"/>
        <path d="M491.2,141.3c-53.9,42-103,82.3-149.8,121.1" fill="none" stroke="#231f20"/>
        <path d="M493.8,129.4c-28.9,24.2-55.5,47.4-80.2,69.8-23.6,21.4-46,42.4-68.1,63.1" fill="none" stroke="#231f20"/>
        <path d="M497.1,117.3c-30.6,27-57.9,52.7-82.4,77.2-23,23-44.2,45.5-64.9,67.6" fill="none" stroke="#231f20"/>
        <path d="M501,104.9c-32.5,29.9-60.7,58.1-85,84.8-22.4,24.5-42.3,48.6-61.6,71.9" fill="none" stroke="#231f20"/>
        <path d="M501.5,96.2c-32.8,31.5-60.8,61-84.2,88.8-21.9,26-40.5,51.5-58.2,76" fill="none" stroke="#231f20"/>
        <path d="M502.4,87.4c-32.4,32.3-59.8,62.5-82.2,91-22,28.1-39.7,55.4-56.3,81.5" fill="none" stroke="#231f20"/>
        <path d="M502.1,80.5c-13.5,13.9-26.1,27.5-37.8,40.8-15.6,17.7-29.5,34.8-41.6,51.3-22,29.9-38.6,58.8-53.7,86.3" fill="none" stroke="#231f20"/>
        <path d="M501.7,74.6c-12,12.8-23.2,25.3-33.8,37.6-16.2,19-30.5,37.2-42.8,54.8-22,31.5-37.4,61.9-51,90.4" fill="none" stroke="#231f20"/>
        <path d="M502,67.3c-10.5,11.7-20.6,23.2-30,34.5-16.9,20.3-31.7,39.8-44.2,58.6-22.2,33.4-36.6,65.4-48.4,95.2" fill="none" stroke="#231f20"/>
        <path d="M501.1,61.7c-9.1,10.5-17.8,20.8-26,31-17.3,21.4-32.3,42-44.8,61.7-22,34.9-35.2,68.2-45,98.9" fill="none" stroke="#231f20"/>
        <path d="M500.1,56.6c-7.7,9.3-15.1,18.5-22.2,27.6-17.5,22.4-32.7,43.9-45.2,64.6-21.9,36.3-33.9,70.8-41.5,102.3" fill="none" stroke="#231f20"/>
        <path d="M499,51.2c-6.4,8.1-12.7,16.2-18.7,24.2-17.5,23.3-32.8,45.7-45.2,67.2-21.7,37.8-32.6,73.5-37.9,105.6" fill="none" stroke="#231f20"/>
        <path d="M497.9,46.3c-23.4,31.2-44.3,61.2-60.2,90.4-21.4,39.1-31.3,75.8-34.2,108.4" fill="none" stroke="#231f20"/>
        <path d="M496.8,41c-21.8,30.6-41.4,60.4-56.6,89.5-21,40.4-30.1,78.2-30.5,111.2" fill="none" stroke="#231f20"/>
        <path d="M495.4,35.8c-20,30.1-38.5,59.4-52.8,88.4-20.5,41.6-28.8,80.5-26.7,113.8" fill="none" stroke="#231f20"/>
        <path d="M494,31.1c-18.2,29.4-35.5,58.3-48.9,87.1-19.8,42.5-27.6,82.4-22.8,115.8" fill="none" stroke="#231f20"/>
        <path d="M492.9,26.4c-16.5,28.8-32.5,57.3-45.1,85.8-19.1,43.4-26.4,84.2-19.3,117.4" fill="none" stroke="#231f20"/>
        <path d="M492,21.3c-14.8,28.2-29.7,56.3-41.4,84.6-18.4,44.2-25.3,85.9-15.8,119" fill="none" stroke="#231f20"/>
        <path d="M490.1,16.6c-12.8,27.6-26.4,55.3-37.1,83.3-17.2,44.7-23.7,87.3-12,120" fill="none" stroke="#231f20"/>
        <path d="M487.7,12.3c-10.7,26.9-22.8,54.2-32.5,81.9-15.7,45-21.8,88.1-8.1,120.5" fill="none" stroke="#231f20"/>
        <path d="M486.1,6.2c-8.7,26.6-19.5,53.7-28.3,81.4-14.3,45.4-20.2,89.3-4.7,121.4" fill="none" stroke="#231f20"/>
        <path d="M484.4,.1c-6.6,26.3-16.1,53.4-23.8,81.1-12.8,45.5-18.5,90-1.5,121.8" fill="none" stroke="#231f20"/>
        <path d="M493.5,358.6c-34.3-32.8-67.4-58.5-99.2-75.2-28.4-14.8-57.8-23.5-85.8-35.9" fill="none" stroke="#231f20"/>
        <path d="M489.2,367.3c-33.5-34.4-65.8-61.4-96.8-79.7-27.6-16.3-56.3-26.9-83.6-40.9" fill="none" stroke="#231f20"/>
        <path d="M484.2,374.7c-32.5-35.4-63.7-63.3-93.7-83-26.7-17.6-54.5-30.1-81-45.8" fill="none" stroke="#231f20"/>
        <path d="M478.4,381c-31.2-35.8-61.2-64.2-89.9-85.2-25.8-18.8-52.5-33.2-78-50.3" fill="none" stroke="#231f20"/>
        <path d="M472,386.2c-29.7-35.7-58.2-64.3-85.6-86.3-24.7-19.9-50.3-36.1-74.8-54.7" fill="none" stroke="#231f20"/>
        <path d="M465,390.4c-27.9-35.2-54.9-63.7-80.7-86.6-23.5-20.9-47.8-38.9-71.2-58.8" fill="none" stroke="#231f20"/>
        <path d="M457.5,393.9c-26-34.2-51.3-62.5-75.4-86.2-22.3-21.9-45.2-41.5-67.4-62.7" fill="none" stroke="#231f20"/>
        <path d="M449.5,396.9c-24-32.9-47.3-60.9-69.7-85.3-21-22.8-42.4-44-63.3-66.3" fill="none" stroke="#231f20"/>
        <path d="M441.3,399.6c-21.9-31.5-43.3-59.2-63.8-84.1-19.6-23.7-39.4-46.3-58.9-69.8" fill="none" stroke="#231f20"/>
        <path d="M432.9,402.3c-19.7-30.1-39.1-57.5-57.8-83-18.1-24.5-36.3-48.4-54.4-73" fill="none" stroke="#231f20"/>
        <path d="M424.4,405.2c-34.3-56.5-68.5-107.3-101.4-158.1" fill="none" stroke="#231f20"/>
        <path d="M416,408.8c-30.4-55.4-60.8-107.9-90.5-160.5" fill="none" stroke="#231f20"/>
        <path d="M407.7,413.1c-26.7-55.1-53.2-109.2-79.7-163.5" fill="none" stroke="#231f20"/>
        <path d="M399.7,418.3c-23-55.7-46-111.3-69-167.2" fill="none" stroke="#231f20"/>
        <path d="M392.1,424.6c-19.5-57.2-39-114.5-58.5-171.7" fill="none" stroke="#231f20"/>
        <path d="M384.8,432.1c-16.4-59.7-32.5-118.7-48.4-177.1" fill="none" stroke="#231f20"/>
        <path d="M378,440.7c-13.7-63.1-26.4-124-38.6-183.4" fill="none" stroke="#231f20"/>
        <path d="M371.5,450.3c-11.6-67.4-20.7-130.2-29.2-190.5" fill="none" stroke="#231f20"/>
        <path d="M365.4,460.9c-5.1-37.3-9.1-72.4-12.3-105.6-3.1-31.7-5.5-62.4-7.8-92.5" fill="none" stroke="#231f20"/>
        <path d="M359.7,472.1c-4.4-40.6-7.3-78-8.9-112.6-1.5-32.4-2-63.4-2.4-93.7" fill="none" stroke="#231f20"/>
        <path d="M354.3,483.8c-3.9-44-5.7-83.8-5.7-119.9,0-33.2,1.4-64.4,2.9-94.6" fill="none" stroke="#231f20"/>
        <path d="M348.7,490.6c-3.1-45.4-3.9-86-2.4-122.3,1.3-34,4.8-65.3,8.2-95.3" fill="none" stroke="#231f20"/>
        <path d="M343.5,497.7c-2.2-45.7-2.1-86.5,.6-122.6,2.6-35.6,8-67.7,13.3-98.2" fill="none" stroke="#231f20"/>
        <path d="M338.6,502.6c-.6-19.4-.8-37.9-.5-55.6,.4-23.6,1.6-45.6,3.8-65.9,3.8-36.9,11.1-69.5,18.4-99.9" fill="none" stroke="#231f20"/>
        <path d="M334.3,506.7c-.2-17.5-.1-34.4,.4-50.5,.8-25,2.5-48.1,5.2-69.3,4.9-38.1,14-71,23.2-101.2" fill="none" stroke="#231f20"/>
        <path d="M329.6,512.3c0-15.8,.4-31,1.1-45.7,1.2-26.4,3.4-50.8,6.8-73.1,6.1-39.6,17-72.9,28.3-102.9" fill="none" stroke="#231f20"/>
        <path d="M325.2,515.8c.4-13.9,.9-27.4,1.7-40.5,1.6-27.5,4.4-52.8,8.4-75.8,7.2-40.6,19.9-74.1,33.3-103.4" fill="none" stroke="#231f20"/>
        <path d="M321,518.9c.6-12,1.3-23.8,2.1-35.3,2.2-28.3,5.4-54.5,10.1-78.1,8.3-41.6,22.7-75.2,38.2-103.6" fill="none" stroke="#231f20"/>
        <path d="M316.6,522.2c.7-10.3,1.5-20.5,2.5-30.5,2.8-29,6.5-55.9,11.9-80.1,9.4-42.5,25.4-76.2,43.1-103.6" fill="none" stroke="#231f20"/>
        <path d="M312.5,525c3.7-38.8,8.5-75,16.4-107.4,10.5-43.3,27.9-77.1,47.7-103.2" fill="none" stroke="#231f20"/>
        <path d="M308.1,528.2c4.6-37.3,10-72.5,18.4-104.3,11.7-44,30.4-78.1,52.4-102.8" fill="none" stroke="#231f20"/>
        <path d="M303.5,531.2c5.5-35.7,11.6-69.9,20.5-100.9,12.9-44.5,32.9-78.9,56.9-102.1" fill="none" stroke="#231f20"/>
        <path d="M299.3,533.6c6.3-34,13.1-67,22.5-97.3,14-44.8,35.1-79.5,61.1-101" fill="none" stroke="#231f20"/>
        <path d="M295.4,536.4c7.2-32.4,14.5-64.2,24.4-93.8,15.1-44.9,37.2-80,64.8-99.8" fill="none" stroke="#231f20"/>
        <path d="M291.3,539.6c8.1-30.8,16-61.6,26.4-90.5,16.2-45,39.2-80.6,68.4-98.6" fill="none" stroke="#231f20"/>
        <path d="M286.8,541.8c9.1-29,17.7-58.6,28.7-86.6,17.4-44.6,41.2-80.5,72-96.8" fill="none" stroke="#231f20"/>
        <path d="M282,543.4c10.2-27.1,19.6-55.4,31.1-82.4,18.7-43.8,43.2-79.8,75.2-94.5" fill="none" stroke="#231f20"/>
        <path d="M276.8,546.7c11.4-25.5,21.7-52.8,33.9-79.2,20-43.2,45.2-79.6,78.3-92.9" fill="none" stroke="#231f20"/>
        <path d="M271.4,550.1c12.8-23.9,24.1-50.3,37-76,21.2-42.3,46.9-79,81-91" fill="none" stroke="#231f20"/>
      </g>
      <g>
        <line x1="490.1" y1="497.8" x2="543.9" y2="325" fill="none" stroke="#231f20"/>
        <line x1="489.6" y1="497.4" x2="539.6" y2="323.7" fill="none" stroke="#231f20"/>
        <line x1="489.1" y1="496.9" x2="533.7" y2="321.7" fill="none" stroke="#231f20"/>
        <line x1="488.7" y1="496.3" x2="527.7" y2="319.8" fill="none" stroke="#231f20"/>
        <line x1="488.2" y1="495.7" x2="521.8" y2="318" fill="none" stroke="#231f20"/>
        <line x1="487.8" y1="495" x2="515.8" y2="316.3" fill="none" stroke="#231f20"/>
        <line x1="487.5" y1="494.1" x2="509.8" y2="314.7" fill="none" stroke="#231f20"/>
        <line x1="487.1" y1="493.2" x2="503.7" y2="313.2" fill="none" stroke="#231f20"/>
        <line x1="486.8" y1="492.2" x2="497.7" y2="311.8" fill="none" stroke="#231f20"/>
        <line x1="486.4" y1="491.1" x2="491.7" y2="310.4" fill="none" stroke="#231f20"/>
        <line x1="486.1" y1="489.9" x2="485.7" y2="309.2" fill="none" stroke="#231f20"/>
        <line x1="485.7" y1="488.7" x2="479.7" y2="308" fill="none" stroke="#231f20"/>
        <line x1="485.4" y1="487.3" x2="473.7" y2="306.9" fill="none" stroke="#231f20"/>
        <line x1="485.1" y1="485.9" x2="467.7" y2="305.9" fill="none" stroke="#231f20"/>
        <line x1="484.7" y1="484.3" x2="461.7" y2="305" fill="none" stroke="#231f20"/>
        <line x1="484.4" y1="482.7" x2="455.7" y2="304.2" fill="none" stroke="#231f20"/>
        <line x1="484" y1="481" x2="449.8" y2="303.5" fill="none" stroke="#231f20"/>
        <line x1="483.6" y1="479.2" x2="443.8" y2="302.8" fill="none" stroke="#231f20"/>
        <line x1="483.2" y1="477.3" x2="437.9" y2="302.2" fill="none" stroke="#231f20"/>
        <line x1="482.8" y1="475.3" x2="432" y2="301.8" fill="none" stroke="#231f20"/>
        <line x1="482.4" y1="473.2" x2="426.2" y2="301.4" fill="none" stroke="#231f20"/>
        <line x1="481.9" y1="471" x2="420.3" y2="301.1" fill="none" stroke="#231f20"/>
        <line x1="481.5" y1="468.8" x2="414.5" y2="300.8" fill="none" stroke="#231f20"/>
        <line x1="480.9" y1="466.5" x2="408.8" y2="300.7" fill="none" stroke="#231f20"/>
        <line x1="480.4" y1="464" x2="403.1" y2="300.6" fill="none" stroke="#231f20"/>
        <line x1="479.8" y1="461.6" x2="397.4" y2="300.6" fill="none" stroke="#231f20"/>
        <line x1="479.2" y1="459" x2="391.8" y2="300.7" fill="none" stroke="#231f20"/>
        <line x1="478.5" y1="456.3" x2="386.2" y2="300.9" fill="none" stroke="#231f20"/>
        <line x1="477.8" y1="453.6" x2="380.6" y2="301.1" fill="none" stroke="#231f20"/>
        <line x1="477.1" y1="450.8" x2="375.1" y2="301.4" fill="none" stroke="#231f20"/>
        <line x1="476.3" y1="447.9" x2="369.7" y2="301.8" fill="none" stroke="#231f20"/>
        <line x1="475.4" y1="444.9" x2="364.3" y2="302.3" fill="none" stroke="#231f20"/>
        <line x1="474.5" y1="441.9" x2="359" y2="302.8" fill="none" stroke="#231f20"/>
        <line x1="473.6" y1="438.7" x2="353.7" y2="303.4" fill="none" stroke="#231f20"/>
        <line x1="472.6" y1="435.6" x2="348.5" y2="304" fill="none" stroke="#231f20"/>
        <line x1="471.5" y1="432.3" x2="343.4" y2="304.8" fill="none" stroke="#231f20"/>
        <line x1="470.4" y1="429" x2="338.3" y2="305.5" fill="none" stroke="#231f20"/>
        <line x1="469.2" y1="425.6" x2="333.3" y2="306.4" fill="none" stroke="#231f20"/>
        <line x1="467.9" y1="422.2" x2="328.4" y2="307.2" fill="none" stroke="#231f20"/>
        <line x1="466.6" y1="418.7" x2="323.5" y2="308.2" fill="none" stroke="#231f20"/>
        <line x1="465.2" y1="415.1" x2="318.7" y2="309.2" fill="none" stroke="#231f20"/>
        <line x1="463.7" y1="411.5" x2="314" y2="310.2" fill="none" stroke="#231f20"/>
        <line x1="462.2" y1="407.8" x2="309.3" y2="311.3" fill="none" stroke="#231f20"/>
        <line x1="460.6" y1="404.1" x2="304.7" y2="312.4" fill="none" stroke="#231f20"/>
        <line x1="458.9" y1="400.4" x2="300.3" y2="313.6" fill="none" stroke="#231f20"/>
        <line x1="457.1" y1="396.5" x2="295.8" y2="314.8" fill="none" stroke="#231f20"/>
        <line x1="455.2" y1="392.7" x2="291.5" y2="316.1" fill="none" stroke="#231f20"/>
        <line x1="453.3" y1="388.8" x2="287.3" y2="317.3" fill="none" stroke="#231f20"/>
        <line x1="451.3" y1="384.9" x2="283.1" y2="318.7" fill="none" stroke="#231f20"/>
        <line x1="449.2" y1="380.9" x2="279" y2="320" fill="none" stroke="#231f20"/>
        <line x1="447" y1="376.9" x2="275" y2="321.4" fill="none" stroke="#231f20"/>
        <line x1="444.8" y1="372.8" x2="271.1" y2="322.8" fill="none" stroke="#231f20"/>
        <line x1="442.4" y1="368.8" x2="267.2" y2="324.2" fill="none" stroke="#231f20"/>
        <line x1="440" y1="364.7" x2="263.5" y2="325.6" fill="none" stroke="#231f20"/>
        <line x1="437.5" y1="360.6" x2="259.8" y2="327.1" fill="none" stroke="#231f20"/>
        <line x1="434.9" y1="356.4" x2="256.3" y2="328.5" fill="none" stroke="#231f20"/>
        <line x1="432.2" y1="352.3" x2="252.8" y2="330" fill="none" stroke="#231f20"/>
        <line x1="429.4" y1="348.1" x2="249.4" y2="331.5" fill="none" stroke="#231f20"/>
        <line x1="426.5" y1="343.9" x2="246.1" y2="333" fill="none" stroke="#231f20"/>
        <line x1="423.6" y1="339.7" x2="242.9" y2="334.4" fill="none" stroke="#231f20"/>
        <line x1="420.5" y1="335.6" x2="239.7" y2="335.9" fill="none" stroke="#231f20"/>
        <line x1="417.4" y1="331.4" x2="236.7" y2="337.4" fill="none" stroke="#231f20"/>
        <line x1="414.2" y1="327.2" x2="233.8" y2="338.9" fill="none" stroke="#231f20"/>
        <line x1="410.8" y1="323" x2="230.9" y2="340.4" fill="none" stroke="#231f20"/>
        <line x1="407.4" y1="318.8" x2="228.1" y2="341.8" fill="none" stroke="#231f20"/>
        <line x1="403.9" y1="314.6" x2="225.4" y2="343.3" fill="none" stroke="#231f20"/>
        <line x1="400.3" y1="310.4" x2="222.8" y2="344.7" fill="none" stroke="#231f20"/>
        <line x1="396.7" y1="306.3" x2="220.3" y2="346.1" fill="none" stroke="#231f20"/>
        <line x1="392.9" y1="302.1" x2="217.9" y2="347.5" fill="none" stroke="#231f20"/>
        <line x1="389" y1="298" x2="215.5" y2="348.8" fill="none" stroke="#231f20"/>
        <line x1="385.1" y1="293.9" x2="213.3" y2="350.1" fill="none" stroke="#231f20"/>
        <line x1="381.1" y1="289.8" x2="211.1" y2="351.4" fill="none" stroke="#231f20"/>
        <line x1="377" y1="285.8" x2="209" y2="352.7" fill="none" stroke="#231f20"/>
        <line x1="372.8" y1="281.8" x2="207" y2="353.9" fill="none" stroke="#231f20"/>
        <line x1="368.5" y1="277.8" x2="205.1" y2="355.1" fill="none" stroke="#231f20"/>
        <line x1="364.1" y1="273.8" x2="203.2" y2="356.2" fill="none" stroke="#231f20"/>
        <line x1="359.7" y1="269.9" x2="201.4" y2="357.3" fill="none" stroke="#231f20"/>
        <line x1="355.1" y1="266.1" x2="199.7" y2="358.4" fill="none" stroke="#231f20"/>
        <line x1="350.5" y1="262.2" x2="198.1" y2="359.4" fill="none" stroke="#231f20"/>
        <line x1="345.8" y1="258.4" x2="196.5" y2="360.4" fill="none" stroke="#231f20"/>
        <line x1="341.1" y1="254.7" x2="195" y2="361.3" fill="none" stroke="#231f20"/>
        <line x1="336.2" y1="251" x2="193.6" y2="362.1" fill="none" stroke="#231f20"/>
        <line x1="331.3" y1="247.4" x2="192.3" y2="362.9" fill="none" stroke="#231f20"/>
        <line x1="326.4" y1="243.8" x2="191" y2="363.7" fill="none" stroke="#231f20"/>
        <line x1="321.3" y1="240.3" x2="189.8" y2="364.3" fill="none" stroke="#231f20"/>
        <line x1="316.2" y1="236.8" x2="188.6" y2="364.9" fill="none" stroke="#231f20"/>
        <line x1="311" y1="233.4" x2="187.5" y2="365.5" fill="none" stroke="#231f20"/>
        <line x1="305.8" y1="230.1" x2="186.5" y2="366" fill="none" stroke="#231f20"/>
        <line x1="300.4" y1="226.8" x2="185.5" y2="366.4" fill="none" stroke="#231f20"/>
        <line x1="295.1" y1="223.6" x2="184.6" y2="366.7" fill="none" stroke="#231f20"/>
        <line x1="289.6" y1="220.5" x2="183.7" y2="367" fill="none" stroke="#231f20"/>
        <line x1="284.2" y1="217.4" x2="182.9" y2="367.2" fill="none" stroke="#231f20"/>
        <line x1="278.6" y1="214.4" x2="182.1" y2="367.3" fill="none" stroke="#231f20"/>
        <line x1="273" y1="211.5" x2="181.3" y2="367.3" fill="none" stroke="#231f20"/>
        <line x1="267.4" y1="208.7" x2="180.6" y2="367.3" fill="none" stroke="#231f20"/>
        <line x1="261.7" y1="205.9" x2="180" y2="367.2" fill="none" stroke="#231f20"/>
        <line x1="256" y1="203.2" x2="179.4" y2="367" fill="none" stroke="#231f20"/>
        <line x1="250.2" y1="200.6" x2="178.8" y2="366.7" fill="none" stroke="#231f20"/>
        <line x1="244.4" y1="198.1" x2="178.2" y2="366.3" fill="none" stroke="#231f20"/>
        <line x1="238.6" y1="195.7" x2="177.7" y2="365.9" fill="none" stroke="#231f20"/>
        <line x1="232.7" y1="193.3" x2="177.2" y2="365.4" fill="none" stroke="#231f20"/>
        <line x1="226.8" y1="191" x2="176.7" y2="364.7" fill="none" stroke="#231f20"/>
        <line x1="220.9" y1="188.8" x2="176.3" y2="364" fill="none" stroke="#231f20"/>
        <line x1="214.9" y1="186.7" x2="175.8" y2="363.3" fill="none" stroke="#231f20"/>
        <line x1="208.9" y1="184.7" x2="175.4" y2="362.4" fill="none" stroke="#231f20"/>
        <line x1="202.9" y1="182.8" x2="175" y2="361.4" fill="none" stroke="#231f20"/>
        <line x1="196.9" y1="181" x2="174.6" y2="360.4" fill="none" stroke="#231f20"/>
        <line x1="190.9" y1="179.2" x2="174.2" y2="359.2" fill="none" stroke="#231f20"/>
        <line x1="184.8" y1="177.5" x2="173.8" y2="358" fill="none" stroke="#231f20"/>
        <line x1="178.8" y1="176" x2="173.5" y2="356.7" fill="none" stroke="#231f20"/>
        <line x1="172.7" y1="174.5" x2="173.1" y2="355.3" fill="none" stroke="#231f20"/>
        <line x1="166.6" y1="173.1" x2="172.7" y2="353.8" fill="none" stroke="#231f20"/>
        <line x1="160.6" y1="171.8" x2="172.3" y2="352.2" fill="none" stroke="#231f20"/>
        <line x1="154.5" y1="170.6" x2="171.9" y2="350.5" fill="none" stroke="#231f20"/>
        <line x1="148.4" y1="169.5" x2="171.5" y2="348.8" fill="none" stroke="#231f20"/>
        <line x1="142.4" y1="168.4" x2="171" y2="346.9" fill="none" stroke="#231f20"/>
        <line x1="136.4" y1="167.5" x2="170.6" y2="345" fill="none" stroke="#231f20"/>
        <line x1="130.3" y1="166.6" x2="170.1" y2="343" fill="none" stroke="#231f20"/>
        <line x1="124.3" y1="165.9" x2="169.6" y2="340.9" fill="none" stroke="#231f20"/>
        <line x1="118.3" y1="165.2" x2="169.1" y2="338.7" fill="none" stroke="#231f20"/>
        <line x1="112.4" y1="164.6" x2="168.6" y2="336.4" fill="none" stroke="#231f20"/>
        <line x1="106.4" y1="164.1" x2="168" y2="334.1" fill="none" stroke="#231f20"/>
        <line x1="100.5" y1="163.7" x2="167.4" y2="331.6" fill="none" stroke="#231f20"/>
        <line x1="94.6" y1="163.4" x2="166.8" y2="329.1" fill="none" stroke="#231f20"/>
        <line x1="88.8" y1="163.1" x2="166.1" y2="326.5" fill="none" stroke="#231f20"/>
        <line x1="82.9" y1="162.9" x2="165.4" y2="323.9" fill="none" stroke="#231f20"/>
        <line x1="77.2" y1="162.9" x2="164.6" y2="321.1" fill="none" stroke="#231f20"/>
        <line x1="71.4" y1="162.9" x2="163.8" y2="318.3" fill="none" stroke="#231f20"/>
        <line x1="65.7" y1="162.9" x2="162.9" y2="315.4" fill="none" stroke="#231f20"/>
        <path d="M60.4,163.6c6.2,9.1,101.6,148.8,101.6,148.8" fill="none" stroke="#231f20"/>
        <path d="M55.3,164.4c20.3,27.8,105.8,145,105.8,145" fill="none" stroke="#231f20"/>
        <path d="M49.8,164.7c27.4,35.1,110.2,141.5,110.2,141.5" fill="none" stroke="#231f20"/>
        <path d="M44.7,165.3c32.7,39.4,114.2,137.4,114.2,137.4" fill="none" stroke="#231f20"/>
        <path d="M39.9,166.2c37.2,42,117.7,133,117.7,133" fill="none" stroke="#231f20"/>
        <path d="M35.3,167.2c41.1,43.5,120.9,128.2,120.9,128.2" fill="none" stroke="#231f20"/>
        <path d="M30.5,167.8c44.7,44.5,124.2,123.7,124.2,123.7" fill="none" stroke="#231f20"/>
        <path d="M26.5,168.9c47.7,44.6,126.7,118.5,126.7,118.5" fill="none" stroke="#231f20"/>
        <path d="M22.7,170c50.4,44.3,128.8,113.1,128.8,113.1" fill="none" stroke="#231f20"/>
        <path d="M18.8,170.9c53,43.6,130.8,107.8,130.8,107.8" fill="none" stroke="#231f20"/>
        <path d="M15.7,172.1c55.1,42.5,132,102,132,102" fill="none" stroke="#231f20"/>
        <path d="M12.7,173.2c56.9,41.1,132.9,96.1,132.9,96.1" fill="none" stroke="#231f20"/>
        <path d="M10.3,174.4c58.3,39.5,133.1,90.1,133.1,90.1" fill="none" stroke="#231f20"/>
        <path d="M8.1,175.4c59.5,37.6,132.9,84,132.9,84" fill="none" stroke="#231f20"/>
        <path d="M6.2,176.4c60.4,35.5,132.4,77.9,132.4,77.9" fill="none" stroke="#231f20"/>
        <path d="M4.2,176.9c61.2,33.5,131.8,72.1,131.8,72.1" fill="none" stroke="#231f20"/>
        <path d="M2.8,177.5c61.6,31.2,130.4,66.1,130.4,66.1" fill="none" stroke="#231f20"/>
        <path d="M1.9,178c61.6,28.8,128.4,60.1,128.4,60.1" fill="none" stroke="#231f20"/>
        <path d="M.9,178.2c61.6,26.5,126.5,54.4,126.5,54.4" fill="none" stroke="#231f20"/>
        <path d="M.2,178.2c61.2,24.1,124,48.8,124,48.8" fill="none" stroke="#231f20"/>
        <path d="M.4,178.3c60.3,21.6,120.5,43.1,120.5,43.1" fill="none" stroke="#231f20"/>
        <line x1="492.7" y1="498" x2="570.5" y2="334.8" fill="none" stroke="#231f20"/>
        <line x1="490.8" y1="498" x2="548.1" y2="326.2" fill="none" stroke="#231f20"/>
        <line x1="491.4" y1="498" x2="552.9" y2="328.1" fill="none" stroke="#231f20"/>
        <line x1="491.4" y1="498" x2="558.8" y2="330.3" fill="none" stroke="#231f20"/>
        <line x1="492" y1="498" x2="564.7" y2="332.5" fill="none" stroke="#231f20"/>
        <line x1="493.4" y1="497.8" x2="576.3" y2="337.1" fill="none" stroke="#231f20"/>
        <line x1="494.1" y1="497.6" x2="582" y2="339.6" fill="none" stroke="#231f20"/>
        <line x1="494.9" y1="497.3" x2="587.7" y2="342.1" fill="none" stroke="#231f20"/>
        <line x1="495.7" y1="496.9" x2="593.3" y2="344.7" fill="none" stroke="#231f20"/>
        <line x1="496.6" y1="496.4" x2="598.9" y2="347.4" fill="none" stroke="#231f20"/>
        <line x1="497.5" y1="495.9" x2="604.5" y2="350.1" fill="none" stroke="#231f20"/>
        <line x1="498.5" y1="495.3" x2="610" y2="352.9" fill="none" stroke="#231f20"/>
        <line x1="499.5" y1="494.6" x2="615.4" y2="355.8" fill="none" stroke="#231f20"/>
        <line x1="500.6" y1="493.8" x2="620.8" y2="358.8" fill="none" stroke="#231f20"/>
        <line x1="501.7" y1="493" x2="626.1" y2="361.8" fill="none" stroke="#231f20"/>
        <line x1="502.9" y1="492.1" x2="631.3" y2="364.9" fill="none" stroke="#231f20"/>
        <line x1="504.1" y1="491.1" x2="636.5" y2="368" fill="none" stroke="#231f20"/>
        <line x1="505.4" y1="490.1" x2="641.6" y2="371.2" fill="none" stroke="#231f20"/>
        <line x1="506.8" y1="489" x2="646.7" y2="374.4" fill="none" stroke="#231f20"/>
        <line x1="508.3" y1="487.8" x2="651.7" y2="377.7" fill="none" stroke="#231f20"/>
        <line x1="509.8" y1="486.6" x2="656.6" y2="381.1" fill="none" stroke="#231f20"/>
        <line x1="511.4" y1="485.4" x2="661.4" y2="384.5" fill="none" stroke="#231f20"/>
        <line x1="513" y1="484" x2="666.1" y2="387.9" fill="none" stroke="#231f20"/>
        <line x1="514.8" y1="482.7" x2="670.8" y2="391.4" fill="none" stroke="#231f20"/>
        <line x1="516.6" y1="481.3" x2="675.4" y2="394.9" fill="none" stroke="#231f20"/>
        <line x1="518.5" y1="479.8" x2="679.9" y2="398.5" fill="none" stroke="#231f20"/>
        <line x1="520.4" y1="478.3" x2="684.4" y2="402.1" fill="none" stroke="#231f20"/>
        <line x1="522.5" y1="476.7" x2="688.7" y2="405.7" fill="none" stroke="#231f20"/>
        <line x1="524.6" y1="475.2" x2="693" y2="409.4" fill="none" stroke="#231f20"/>
        <line x1="526.8" y1="473.5" x2="697.2" y2="413.1" fill="none" stroke="#231f20"/>
        <line x1="529.1" y1="471.9" x2="701.3" y2="416.8" fill="none" stroke="#231f20"/>
        <line x1="531.5" y1="470.2" x2="705.3" y2="420.6" fill="none" stroke="#231f20"/>
        <line x1="533.9" y1="468.5" x2="709.3" y2="424.4" fill="none" stroke="#231f20"/>
        <line x1="536.5" y1="466.7" x2="713.1" y2="428.2" fill="none" stroke="#231f20"/>
        <line x1="539.1" y1="465" x2="716.9" y2="432" fill="none" stroke="#231f20"/>
        <line x1="541.8" y1="463.2" x2="720.5" y2="435.8" fill="none" stroke="#231f20"/>
        <line x1="544.7" y1="461.4" x2="724.1" y2="439.6" fill="none" stroke="#231f20"/>
        <line x1="547.6" y1="459.6" x2="727.6" y2="443.4" fill="none" stroke="#231f20"/>
        <line x1="550.5" y1="457.8" x2="731" y2="447.3" fill="none" stroke="#231f20"/>
        <line x1="553.6" y1="455.9" x2="734.3" y2="451.1" fill="none" stroke="#231f20"/>
        <line x1="556.8" y1="454.1" x2="737.6" y2="455" fill="none" stroke="#231f20"/>
        <line x1="560.1" y1="452.2" x2="740.7" y2="458.8" fill="none" stroke="#231f20"/>
        <line x1="563.4" y1="450.4" x2="743.8" y2="462.6" fill="none" stroke="#231f20"/>
        <line x1="566.8" y1="448.6" x2="746.7" y2="466.5" fill="none" stroke="#231f20"/>
        <line x1="570.4" y1="446.7" x2="749.6" y2="470.3" fill="none" stroke="#231f20"/>
        <line x1="574" y1="444.9" x2="752.4" y2="474.1" fill="none" stroke="#231f20"/>
        <line x1="577.7" y1="443.1" x2="755.1" y2="477.8" fill="none" stroke="#231f20"/>
        <line x1="581.5" y1="441.3" x2="757.7" y2="481.6" fill="none" stroke="#231f20"/>
        <line x1="585.4" y1="439.5" x2="760.3" y2="485.3" fill="none" stroke="#231f20"/>
        <line x1="589.4" y1="437.7" x2="762.7" y2="489" fill="none" stroke="#231f20"/>
        <line x1="593.4" y1="436" x2="765.1" y2="492.7" fill="none" stroke="#231f20"/>
        <line x1="597.6" y1="434.3" x2="767.4" y2="496.4" fill="none" stroke="#231f20"/>
        <line x1="601.8" y1="432.6" x2="769.6" y2="500" fill="none" stroke="#231f20"/>
        <line x1="606.1" y1="430.9" x2="771.7" y2="503.5" fill="none" stroke="#231f20"/>
        <line x1="610.5" y1="429.3" x2="773.7" y2="507.1" fill="none" stroke="#231f20"/>
        <line x1="615" y1="427.7" x2="775.7" y2="510.6" fill="none" stroke="#231f20"/>
        <line x1="619.6" y1="426.2" x2="777.6" y2="514" fill="none" stroke="#231f20"/>
        <line x1="624.2" y1="424.7" x2="779.4" y2="517.4" fill="none" stroke="#231f20"/>
        <line x1="628.9" y1="423.2" x2="781.1" y2="520.8" fill="none" stroke="#231f20"/>
        <line x1="633.8" y1="421.8" x2="782.8" y2="524.1" fill="none" stroke="#231f20"/>
        <line x1="638.6" y1="420.4" x2="784.4" y2="527.4" fill="none" stroke="#231f20"/>
        <line x1="643.6" y1="419.1" x2="785.9" y2="530.6" fill="none" stroke="#231f20"/>
        <line x1="648.6" y1="417.8" x2="787.3" y2="533.7" fill="none" stroke="#231f20"/>
        <line x1="653.7" y1="416.6" x2="788.7" y2="536.8" fill="none" stroke="#231f20"/>
        <line x1="658.9" y1="415.4" x2="790.1" y2="539.8" fill="none" stroke="#231f20"/>
        <line x1="664.1" y1="414.3" x2="791.3" y2="542.8" fill="none" stroke="#231f20"/>
      </g>
    </g>
  </g>
</svg>