<svg fill="none" height="88" viewBox="0 0 529 88" width="529" xmlns="http://www.w3.org/2000/svg" xmlns:xlink="http://www.w3.org/1999/xlink"><clipPath id="a"><path d="m0 0h528.223v88h-528.223z"/></clipPath><g clip-path="url(#a)" fill="#000"><path d="m54.1309 85.5542 21.6958-5.3921s-9.3411-63.155-9.4006-63.5883c-.0595-.4332-.438-.6736-.7521-.6998-.3119-.0262-6.4204-.119-6.4204-.119s-3.723-3.6161-5.1227-4.9849z"/><path d="m51.7693 10.0489c-.0047.0024-.9593.2976-2.5661.7951-.2691-.87129-.6643-1.94253-1.2284-3.01851-1.8188-3.47081-4.4824-5.30618-7.701-5.31094-.0047 0-.0071 0-.0118 0-.2239 0-.4451.02143-.669.04048-.0952-.11427-.1905-.22615-.2903-.33567-1.4022-1.499722-3.1996-2.230541-5.354-2.1662671-4.1562.1190261-8.296 3.1208571-11.6525 8.4532071-2.3615 3.7517-4.1588 8.4651-4.6682 12.1145-4.773 1.4783-8.11046 2.5113-8.18424 2.5352-2.40909.757-2.48528.8307-2.79949 3.1018-.23569 1.7163-6.53929 50.4599-6.53929 50.4599l52.29772 9.0435v-75.81943c-.2571.01666-.4882.06423-.6334.10713zm-12.0763 3.7398c-2.7685.857-5.7895 1.7925-8.8198 2.7304.8521-3.2637 2.4687-6.5131 4.4539-8.64364.7381-.79269 1.7711-1.67587 2.9947-2.18055 1.1498 2.39957 1.3997 5.79659 1.3712 8.09379zm-5.6632-10.96945c.976-.02141 1.7972.19282 2.4994.65465-1.1235.58323-2.2091 1.42117-3.2279 2.51382-2.64 2.83282-4.6635 7.22968-5.4705 11.47168-2.5161.7785-4.9777 1.5426-7.2438 2.2425 1.4306-6.6774 7.0273-16.69696 13.4428-16.88265zm-8.0866 38.03835c.2809 4.4492 11.9858 5.4203 12.6428 15.8422.5166 8.1985-4.3492 13.8071-11.3598 14.2498-8.4151.5309-13.0476-4.4348-13.0476-4.4348l1.783-7.5867s4.6634 3.5184 8.396 3.2827c2.4377-.1548 3.309-2.1378 3.221-3.5398-.3667-5.8038-9.8983-5.4609-10.5005-14.9972-.5071-8.0249 4.7634-16.1566 16.3923-16.89 4.48-.2831 6.7749.862 6.7749.862l-2.6592 9.948s-2.9659-1.3497-6.4821-1.1282c-5.1586.3259-5.2132 3.5777-5.1608 4.392zm16.5135-27.9235c-.0308-2.1044-.2808-5.03244-1.2617-7.56294 3.1542.59751 4.7063 4.16592 5.3633 6.29414-1.2164.3737-2.6019.8022-4.1016 1.2688z"/><path d="m313.341 86.1199 7.327-39.0631c.918-4.9012 1.604-9.25 2.063-12.6141h3.135l-1.145 7.4143h.151c3.289-4.9681 7.876-8.1784 12.768-8.1784 6.958 0 9.555 5.9617 9.555 11.9257 0 12.3846-8.486 26.2886-20.182 26.2886-3.593 0-5.964-.8399-7.338-1.6041h-.154l-2.896 15.8178zm6.879-19.1884c1.682 1.2988 4.129 2.063 7.11 2.063 9.709 0 16.437-13.7592 16.437-23.1697 0-4.3576-1.682-9.1743-7.109-9.1743-5.2 0-12.004 6.5744-14.067 17.6602z"/><path d="m372.5 71.1354c-.078-2.2167.381-5.6565.916-9.8604h-.147c-4.206 8.1027-8.869 10.6246-13.686 10.6246-5.569 0-8.944-4.5871-8.944-11.1615 0-12.4604 8.944-27.0617 23.169-27.0617 2.6 0 5.505.4589 7.414 1.0694l-3.898 19.8011c-1.299 6.8038-1.758 12.6987-1.604 16.5885zm4.902-33.9435c-.843-.3052-2.141-.5346-4.436-.5346-10.549 0-18.805 11.7741-18.881 23.3166-.078 4.7409 1.299 9.0206 6.267 9.0206 5.964 0 12.699-8.9426 14.45-18.4243z"/><path d="m384.348 71.1354 4.665-24.6934c.916-4.6629 1.453-8.7911 1.758-12.0015h3.057c-.306 2.3705-.611 4.8167-1.07 7.9512h.154c2.292-4.9012 5.886-8.7153 10.471-8.7153.463.0044.924.0552 1.377.1515l-.613 3.442c-.425-.0989-.862-.1504-1.299-.1537-4.816 0-10.168 7.2628-11.698 15.3721l-3.44 18.6538z"/><path d="m418.673 26.3378-1.604 8.1049h8.637l-.61 2.8293h-8.64l-4.052 21.8641c-.457 2.4507-.764 4.3577-.764 6.345 0 2.1409.993 3.4398 3.288 3.4398 1.223 0 1.987-.0758 2.673-.3053l.223 2.6735c-1.165.3493-2.377.5293-3.593.5346-4.358 0-6.04-2.8962-6.04-5.9617 0-1.9894.223-3.9009.842-6.7281l4.128-21.8641h-5.275l.534-2.8293h5.347l1.223-6.5744z"/><path d="m424.864 71.1354 4.902-25.9165c.741-3.5619 1.303-7.1594 1.682-10.7784h3.056l-1 7.4923h.154c3.21-5.3468 7.797-8.2564 12.765-8.2564 3.594 0 8.181 2.2924 8.181 9.25 0 1.8335-.305 3.6693-.689 5.6565l-4.204 22.5525h-3.288l4.282-22.5525c.341-1.7624.519-3.5521.535-5.3468 0-3.823-1.529-6.5744-6.04-6.5744-4.901 0-11.772 6.1155-13.367 14.9845l-3.594 19.4937z"/><path d="m481.513 69.0725c-1.911 1.223-5.429 2.7513-10.014 2.7513-8.564 0-11.544-6.7281-11.544-13.7614 0-10.5488 7.338-24.386 17.889-24.386 6.04 0 8.562 3.9745 8.562 8.0202 0 9.3258-10.694 11.9257-22.706 11.85-.381 1.682-.446 6.4986.307 9.0963 1.299 4.2062 4.128 6.1934 8.02 6.1934 4.05 0 6.804-1.4526 8.486-2.4506zm-4.281-32.4152c-5.657 0-10.779 6.1154-12.995 13.9908 9.555.0758 18.729-1.5305 18.729-8.7933 0-3.4398-2.295-5.1975-5.734-5.1975z"/><path d="m488.24 71.1354 4.665-24.6934c.918-4.6629 1.452-8.7911 1.758-12.0015h3.058c-.307 2.3705-.612 4.8167-1.071 7.9512h.154c2.292-4.9012 5.886-8.7153 10.47-8.7153.464.0044.925.0552 1.377.1515l-.612 3.442c-.426-.0989-.863-.1504-1.299-.1537-4.817 0-10.168 7.2628-11.696 15.3721l-3.442 18.6538z"/><path d="m507.124 66.8558c1.933 1.2678 4.188 1.9571 6.498 1.9872 4.817 0 8.02-3.4398 8.02-7.5747 0-3.6715-1.528-5.8882-4.968-8.1049-3.593-2.3704-5.583-5.6565-5.583-9.0205 0-5.7345 4.588-10.4709 11.01-10.4709 2.522 0 5.047.8399 6.116 1.682l-1.225 2.8316c-1.148-.6884-3.135-1.5283-5.276-1.5283-4.433 0-7.338 3.0588-7.338 6.8796 0 3.442 1.911 5.3468 4.97 7.3519 3.515 2.3704 5.656 5.7322 5.656 9.4037 0 7.4143-5.427 11.5425-11.696 11.5425-3.288 0-6.193-1.2231-7.416-2.2167z"/><path d="m106.847 48.8724c-2.653-1.4392-4.01-2.6533-4.01-4.322 0-2.1231 1.896-3.4866 4.855-3.4866 3.444 0 6.521 1.4392 6.521 1.4392l2.408-7.4299s-2.228-1.7444-8.796-1.7444c-9.1337 0-15.4697 5.231-15.4697 12.5874 0 4.1705 2.9586 7.3519 6.9064 9.6287 3.1833 1.8202 4.3223 3.119 4.3223 5.006 0 1.9717-1.593 3.5646-4.5496 3.5646-4.4067 0-8.5683-2.2747-8.5683-2.2747l-2.5843 7.4299s3.8453 2.5776 10.3127 2.5776c9.4035 0 16.1515-4.625 16.1515-12.966.009-4.4736-3.404-7.6594-7.499-10.0098z"/><path d="m144.307 33.2441c-4.625 0-8.265 2.1989-11.07 5.534l-.154-.0735 4.01-21.0042h-10.446l-10.161 53.4684h10.471l3.486-18.2684c1.366-6.9063 4.931-11.1392 8.266-11.1392 2.35 0 3.261 1.5929 3.261 3.8675 0 1.5528-.154 3.1021-.457 4.625l-3.949 20.9128h10.47l4.093-21.6101c.453-2.2488.707-4.5328.76-6.8261-.011-5.9216-3.122-9.4862-8.58-9.4862z"/><path d="m176.533 33.2441c-12.587 0-20.924 11.3821-20.924 24.0452 0 8.1138 5.004 14.6347 14.408 14.6347 12.36 0 20.699-11.0701 20.699-24.0362-.005-7.5145-4.402-14.6437-14.183-14.6437zm-5.155 30.633c-3.564 0-5.082-3.0321-5.082-6.8239 0-5.9907 3.119-15.771 8.796-15.771 3.716 0 4.928 3.1836 4.928 6.2937 0 6.4541-3.108 16.3101-8.642 16.3101z"/><path d="m217.478 33.2441c-7.064 0-11.074 6.238-11.074 6.238h-.152l.606-5.6119h-9.246c-.445 3.7873-1.289 9.5552-2.123 13.8772l-7.278 38.2789h10.471l2.88-15.4679h.223s2.148 1.3656 6.142 1.3656c12.285 0 20.321-12.5873 20.321-25.3261-.011-7.0512-3.11-13.3538-10.77-13.3538zm-10.007 30.7934c-1.575.0231-3.107-.5136-4.322-1.515l1.744-9.7825c1.212-6.5209 4.625-10.8429 8.263-10.8429 3.186 0 4.171 2.9564 4.171 5.7634-.007 6.7482-4.017 16.377-9.856 16.377z"/><path d="m243.183 18.2395c-.793-.0024-1.579.1534-2.312.4583-.733.305-1.397.753-1.956 1.3179-.557.5648-.996 1.2352-1.293 1.9718-.294.7367-.441 1.5249-.427 2.3185 0 3.119 1.971 5.231 4.928 5.231h.151c3.262 0 6.067-2.1989 6.142-6.0665 0-3.0321-2.047-5.231-5.233-5.231z"/><path d="m228.551 71.1665h10.464l7.127-37.0803h-10.54z"/><path d="m272.755 34.0105h-7.278l.379-1.7421c.606-3.5646 2.729-6.7504 6.218-6.7504 1.134.0018 2.263.1815 3.341.5324l2.041-8.1784s-1.82-.9112-5.688-.9112c-3.713 0-7.43 1.0627-10.234 3.4888-3.565 3.0321-5.234 7.4299-6.067 11.8299l-.303 1.7422h-4.852l-1.517 7.8866h4.852l-5.536 29.2694h10.471l5.523-29.2806h7.202z"/><path d="m297.93 34.0862s-6.541 16.4861-9.479 25.4777h-.149c-.203-2.8962-2.58-25.4777-2.58-25.4777h-10.995l6.294 34.046c.152.7574.076 1.2141-.223 1.7444-1.214 2.3503-3.261 4.625-5.688 6.2936-1.971 1.4415-4.17 2.3504-5.912 2.9564l2.88 8.8735c2.124-.4456 6.521-2.2011 10.249-5.6877 4.776-4.4735 9.174-11.3754 13.723-20.7769l12.815-27.4493z"/></g></svg>