<?xml version="1.0" encoding="UTF-8"?>
<svg id="Layer_2" data-name="Layer 2" xmlns="http://www.w3.org/2000/svg" viewBox="0 0 299.4131 133.5814">
  <g id="text-only">
    <g>
      <g>
        <path d="M24.0875,59.5044l14.8447,48.3504,14.8677-53.5871,24.0932-4.2504-24.3866,78.3993-29.2984,5.1649L0,63.7519l24.0875-4.2475Z" style="fill: #1d1d1b;"/>
        <path d="M105.6444,63.542l.0403,9.2025,22.4598-3.9599-.0748,17.4904-22.4598,3.9628-.046,10.4736,25.5196-4.5006,.0058,18.5229-48.1864,8.4979,.092-74.1144,48.1864-8.495-.0173,18.4193-25.5196,4.5006Z" style="fill: #1d1d1b;"/>
        <path d="M226.6281,23.7902l-.092,74.1144-22.5633,3.9772,.0288-36.8444-11.1522,38.8086-19.4,3.4193-11.1465-35.188,.023,37.1492-22.6668,3.9944,.092-74.1115,27.7685-4.8946,15.8915,41.7792,15.5464-47.3237,27.6707-4.8802Z" style="fill: #1d1d1b;"/>
        <path d="M259.4867,36.4148l.0403,9.2025,22.4598-3.9571-.0748,17.4904-22.4598,3.9599-.046,10.4736,25.5196-4.5006,.0058,18.5257-48.1864,8.495,.092-74.1144,48.1864-8.495-.0173,18.4222-25.5196,4.4977Z" style="fill: #1d1d1b;"/>
      </g>
      <g>
        <path d="M294.7859,0c-2.5515,0-4.6272,2.0758-4.6272,4.6272s2.0758,4.6272,4.6272,4.6272,4.6272-2.0758,4.6272-4.6272-2.0758-4.6272-4.6272-4.6272Zm0,8.647c-2.2165,0-4.0198-1.8033-4.0198-4.0198s1.8033-4.0198,4.0198-4.0198,4.0198,1.8033,4.0198,4.0198-1.8033,4.0198-4.0198,4.0198Z" style="fill: #1d1d1b;"/>
        <path d="M294.9049,2.6177c-1.1374,0-1.5779,.9751-1.5845,1.91-.0066,.9429,.4734,1.9583,1.5845,1.9583,.401,0,.8087-.1692,1.1111-.5319l.5786,.685c-.4734,.5722-1.0651,.8623-1.6897,.8623-1.6634,0-2.4458-1.4989-2.4393-2.9737,.0066-1.4667,.7298-2.9093,2.4393-2.9093,.664,0,1.2755,.2659,1.7489,.8381l-.5917,.7333c-.3024-.3707-.7561-.5722-1.1572-.5722Z" style="fill: #1d1d1b;"/>
      </g>
    </g>
  </g>
</svg>