<svg width="136" height="36" viewBox="0 0 136 36" fill="none" xmlns="http://www.w3.org/2000/svg">
<g clip-path="url(#clip0_1_21)">
<path fill-rule="evenodd" clip-rule="evenodd" d="M70.6613 28.9325C69.7053 28.9325 68.8436 29.2902 68.1707 29.9662C67.4978 30.6415 67.141 31.5071 67.141 32.4673C67.141 33.4278 67.4978 34.293 68.1715 34.9679C68.8436 35.6432 69.7053 36 70.6613 36C71.6184 36 72.4793 35.6432 73.1522 34.9671C73.8267 34.293 74.1823 33.4278 74.1823 32.4673C74.1823 31.5071 73.8267 30.6415 73.1522 29.9655C72.4793 29.2894 71.6184 28.9325 70.6613 28.9325ZM70.6613 30.0208C71.3365 30.0208 71.9109 30.2594 72.3859 30.7353C72.8613 31.212 73.0982 31.7884 73.0982 32.4673C73.0982 33.1445 72.8613 33.7217 72.3859 34.1968C71.9109 34.6731 71.3365 34.9125 70.6613 34.9125C69.9864 34.9125 69.412 34.6731 68.9374 34.1968C68.4616 33.7217 68.2263 33.1445 68.2263 32.4673C68.2263 31.7884 68.4616 31.212 68.9374 30.7353C69.412 30.2594 69.9864 30.0208 70.6613 30.0208Z" fill="#00ACBA"/>
<path fill-rule="evenodd" clip-rule="evenodd" d="M90.5303 28.6908C90.2161 29.4199 89.7872 30.0592 89.2436 30.6095C88.7008 31.1614 88.0633 31.5969 87.3313 31.9182C86.5981 32.241 85.8152 32.4004 84.9799 32.4004C84.1335 32.4004 83.3443 32.241 82.6123 31.9182C81.8791 31.5969 81.2448 31.1645 80.7075 30.6186C80.1694 30.0738 79.7441 29.4338 79.4295 28.6979C79.1197 27.9775 78.9636 27.2109 78.9573 26.4003C78.9573 26.386 78.9565 26.3714 78.9565 26.3567C78.9565 25.5307 79.1138 24.7502 79.4295 24.0148C79.7441 23.2805 80.1694 22.64 80.7075 22.0957C81.2448 21.5498 81.8791 21.1166 82.6123 20.7949C83.3443 20.4737 84.1335 20.3123 84.9799 20.3123C85.8152 20.3123 86.5981 20.4737 87.3313 20.7949C88.0633 21.1166 88.7008 21.5529 89.2436 22.104C89.7872 22.6547 90.2161 23.2944 90.5303 24.0239C90.8452 24.7518 91.0021 25.5307 91.0021 26.3567C91.0021 26.8224 90.9505 27.2714 90.8512 27.7062C90.7743 28.0432 90.6686 28.3716 90.5303 28.6908ZM93.8857 22.6456C93.4158 21.5039 92.7122 20.4678 91.7752 19.5365C89.8759 17.6558 87.6108 16.7135 84.9799 16.7135C82.6675 16.7135 80.6622 17.4256 78.9565 18.8482V10.2382C78.9565 9.72158 78.7826 9.29552 78.4338 8.95609C78.0845 8.61745 77.6584 8.44734 77.1558 8.44734C76.6397 8.44734 76.214 8.61745 75.877 8.95609C75.5395 9.29552 75.3704 9.72158 75.3704 10.2382V26.3567C75.3704 29.02 76.309 31.2931 78.185 33.1758C80.0614 35.0585 82.3257 36 84.9799 36C87.6108 36 89.8759 35.0585 91.7752 33.1758C93.2751 31.6887 94.1735 29.9362 94.4739 27.9202C94.5492 27.415 94.5886 26.8948 94.5886 26.3567C94.5886 25.0243 94.3536 23.7881 93.8857 22.6456Z" fill="white"/>
<path fill-rule="evenodd" clip-rule="evenodd" d="M129.885 26.3397L135.444 19.6928C135.731 19.3367 135.873 18.9404 135.873 18.5044C135.873 18.2627 135.825 18.034 135.728 17.8156C135.63 17.5973 135.503 17.4058 135.342 17.2389C135.181 17.0719 134.993 16.9441 134.776 16.8512C134.558 16.7594 134.325 16.7131 134.072 16.7131C133.534 16.7131 133.093 16.9081 132.751 17.2986L127.568 23.5147L122.386 17.2986C122.031 16.9081 121.585 16.7131 121.048 16.7131C120.796 16.7131 120.562 16.7594 120.344 16.8512C120.128 16.9441 119.938 17.0719 119.778 17.2389C119.619 17.4058 119.492 17.5973 119.401 17.8156C119.309 18.034 119.263 18.2627 119.263 18.5044C119.263 18.9866 119.401 19.3822 119.676 19.6928L125.234 26.3397L119.624 33.0895C119.384 33.3874 119.263 33.7621 119.263 34.2091C119.263 34.4508 119.309 34.6807 119.401 34.8982C119.492 35.1166 119.619 35.3089 119.778 35.4754C119.938 35.6416 120.128 35.7702 120.344 35.8623C120.562 35.9557 120.796 36 121.048 36C121.55 36 121.975 35.8168 122.318 35.4489L127.568 29.1465L132.784 35.4489C133.15 35.8168 133.582 36 134.072 36C134.325 36 134.558 35.9557 134.776 35.8623C134.993 35.7702 135.181 35.6416 135.342 35.4754C135.503 35.3089 135.63 35.1166 135.728 34.8982C135.825 34.6807 135.873 34.4508 135.873 34.2091C135.873 33.7514 135.748 33.3767 135.496 33.0895L129.885 26.3397Z" fill="white"/>
<path fill-rule="evenodd" clip-rule="evenodd" d="M112.494 28.6908C112.178 29.4199 111.75 30.0592 111.207 30.6095C110.664 31.1614 110.026 31.5969 109.295 31.9182C108.562 32.241 107.779 32.4004 106.944 32.4004C106.097 32.4004 105.307 32.241 104.576 31.9182C103.844 31.5969 103.209 31.1645 102.671 30.6186C102.131 30.0738 101.706 29.4338 101.392 28.6979C101.305 28.4926 101.231 28.2833 101.166 28.0705C101.003 27.523 100.921 26.9517 100.921 26.3567C100.921 25.5307 101.078 24.7502 101.392 24.0148C101.706 23.2805 102.131 22.64 102.671 22.0957C103.209 21.5498 103.844 21.1166 104.576 20.7949C105.307 20.4737 106.097 20.3123 106.944 20.3123C107.779 20.3123 108.562 20.4737 109.295 20.7949C110.026 21.1166 110.664 21.5529 111.207 22.104C111.75 22.6547 112.178 23.2944 112.494 24.0239C112.809 24.7518 112.966 25.5307 112.966 26.3567C112.966 26.7539 112.928 27.1396 112.857 27.5139C112.778 27.9178 112.657 28.3118 112.494 28.6908ZM115.84 22.6547C115.377 21.5169 114.677 20.4796 113.738 19.5365C111.84 17.6558 109.574 16.7135 106.944 16.7135C104.289 16.7135 102.024 17.6558 100.147 19.5365C98.2724 21.4204 97.3342 23.6939 97.3342 26.3567C97.3342 26.9324 97.3819 27.4862 97.4686 28.0246C97.7852 29.9821 98.6761 31.6986 100.147 33.1758C102.024 35.0585 104.289 36 106.944 36C109.574 36 111.84 35.0585 113.738 33.1758C115.438 31.4905 116.365 29.4642 116.525 27.1001C116.542 26.856 116.552 26.6084 116.552 26.3567C116.54 25.0244 116.304 23.7901 115.84 22.6547Z" fill="white"/>
<path fill-rule="evenodd" clip-rule="evenodd" d="M61.7034 28.6908C61.3892 29.4199 60.9587 30.0592 60.4167 30.6095C59.8723 31.1614 59.2349 31.5969 58.5037 31.9182C57.7704 32.241 56.9868 32.4004 56.1522 32.4004C55.3059 32.4004 54.5163 32.241 53.7839 31.9182C53.0526 31.5969 52.4164 31.1645 51.8791 30.6186C51.3418 30.0738 50.916 29.4338 50.6019 28.6979C50.2869 27.9641 50.13 27.184 50.13 26.3567C50.13 25.5307 50.2869 24.7502 50.6019 24.0148C50.916 23.2805 51.3418 22.64 51.8791 22.0957C52.4164 21.5498 53.0526 21.1166 53.7839 20.7949C53.8694 20.7574 53.9565 20.7229 54.0425 20.6893C54.7 20.4397 55.404 20.3123 56.1522 20.3123C56.9868 20.3123 57.7704 20.4737 58.5037 20.7949C59.2349 21.1166 59.8723 21.5529 60.4167 22.104C60.5977 22.2872 60.7616 22.4846 60.9181 22.6895C61.2284 23.0962 61.4949 23.5381 61.7034 24.0239C62.0184 24.7518 62.176 25.5307 62.176 26.3567C62.176 27.184 62.0184 27.9609 61.7034 28.6908ZM65.4467 23.8209C65.3427 23.4198 65.2142 23.0273 65.0581 22.6456C64.5882 21.5039 63.8845 20.4678 62.9475 19.5365C61.049 17.6558 58.7831 16.7135 56.1522 16.7135C53.8418 16.7135 51.8337 17.4256 50.13 18.8482V10.2382C50.13 9.72158 49.955 9.29552 49.6061 8.95609C49.2576 8.61745 48.8311 8.44734 48.3273 8.44734C47.8133 8.44734 47.3875 8.61745 47.0501 8.95609C46.713 9.29552 46.5427 9.72158 46.5427 10.2382V26.3567C46.5427 29.02 47.4806 31.2931 49.3577 33.1758C51.233 35.0585 53.4985 36 56.1522 36C58.7831 36 61.049 35.0585 62.9475 33.1758C64.8231 31.3156 65.7617 29.0429 65.7617 26.3567C65.7617 25.4686 65.6553 24.626 65.4467 23.8209Z" fill="white"/>
<path fill-rule="evenodd" clip-rule="evenodd" d="M35.1093 16.0722C34.2125 7.16123 26.7155 0.206505 17.6004 0.206505C8.28733 0.206505 0.669751 7.46466 0.0445449 16.6518C0.0181333 17.0541 0 17.4592 0 17.8683C0 27.6235 7.88012 35.5316 17.6004 35.5316C27.319 35.5316 35.1996 27.6235 35.1996 17.8683C35.1996 17.2622 35.1676 16.6633 35.1093 16.0722Z" fill="#00ACBA"/>
<path fill-rule="evenodd" clip-rule="evenodd" d="M17.6004 0.24646C8.28733 0.24646 0.669754 7.5054 0.044548 16.6917C10.2737 22.5771 23.8122 25.2475 35.1093 16.1118C34.2125 7.20119 26.7155 0.24646 17.6004 0.24646Z" fill="#51BDC7"/>
<path fill-rule="evenodd" clip-rule="evenodd" d="M24.7977 10.9934C23.6723 10.9934 22.6182 11.5964 22.0446 12.5668C21.149 14.0871 21.6524 16.056 23.1685 16.9552C23.6597 17.2484 24.221 17.4026 24.7894 17.4026C25.9133 17.4026 26.9666 16.7997 27.5394 15.8305C28.4358 14.3098 27.9336 12.3401 26.4199 11.4397C25.9267 11.1477 25.3666 10.9934 24.7977 10.9934ZM24.7894 17.7429C24.1603 17.7429 23.5406 17.5716 22.9962 17.2476C21.3209 16.253 20.7635 14.0752 21.7533 12.3927C22.3868 11.3202 23.5532 10.6544 24.7977 10.6544C25.4269 10.6544 26.0473 10.8245 26.5925 11.1477C28.2663 12.1431 28.8214 14.3213 27.8303 16.0034C27.1976 17.0755 26.0332 17.7429 24.7894 17.7429Z" fill="#FFFFFE"/>
<path fill-rule="evenodd" clip-rule="evenodd" d="M30.0048 8.57077C29.5475 8.57077 29.1202 8.81525 28.8892 9.20809C28.5249 9.82444 28.7291 10.6232 29.3433 10.9879C29.5427 11.1074 29.7702 11.1699 30.0016 11.1699C30.4581 11.1699 30.8854 10.9262 31.118 10.5334C31.4787 9.91582 31.2753 9.1167 30.6623 8.75116C30.4636 8.63367 30.2358 8.57077 30.0048 8.57077ZM30.0016 11.3404C29.7406 11.3404 29.4824 11.2692 29.2573 11.1347C28.5624 10.7221 28.3318 9.8193 28.7429 9.12224C29.0047 8.67719 29.488 8.40105 30.0048 8.40105C30.2657 8.40105 30.5227 8.47147 30.7486 8.60519C31.4416 9.01859 31.6718 9.92136 31.2627 10.6192C31.0001 11.0639 30.5172 11.3404 30.0016 11.3404Z" fill="#FFFFFE"/>
<path fill-rule="evenodd" clip-rule="evenodd" d="M11.7618 14.0902C11.1023 14.0902 10.4393 14.1745 9.79397 14.3411C7.75082 14.8664 6.03406 16.16 4.95907 17.9838C3.88487 19.8063 3.58212 21.9394 4.1072 23.9898C5.00165 27.4996 8.14147 29.9488 11.7433 29.9488C12.4048 29.9488 13.0682 29.8646 13.7151 29.6972C17.9354 28.6129 20.4895 24.285 19.4102 20.0484C18.5102 16.5402 15.366 14.0902 11.7618 14.0902ZM11.7433 30.7982C7.75515 30.7982 4.27789 28.0851 3.28647 24.2015C2.70502 21.9307 3.04088 19.5694 4.23059 17.551C5.4199 15.5326 7.32153 14.1001 9.58386 13.5178C10.2978 13.3342 11.0306 13.2409 11.7618 13.2409C15.752 13.2409 19.2339 15.9531 20.2293 19.8384C21.4241 24.5287 18.5965 29.3198 13.9252 30.5197C13.2101 30.704 12.4765 30.7982 11.7433 30.7982Z" fill="#62195E"/>
<path d="M34.0784 11.6687L35.6616 9.32875L32.8974 9.12778C33.3555 9.93639 33.7505 10.7862 34.0784 11.6687Z" fill="#F88A16"/>
</g>
<defs>
<clipPath id="clip0_1_21">
<rect width="136" height="36" fill="white"/>
</clipPath>
</defs>
</svg>
