<svg xmlns="http://www.w3.org/2000/svg" version="1.1" width="400px" height="193px"
  style="shape-rendering:geometricPrecision; text-rendering:geometricPrecision; image-rendering:optimizeQuality; fill-rule:evenodd; clip-rule:evenodd"
  xmlns:xlink="http://www.w3.org/1999/xlink">

  <g>
    <path style="opacity:1" fill="#595959"
      d="M 207.5,65.5 C 210.167,65.5 212.833,65.5 215.5,65.5C 215.333,77.8378 215.5,90.1712 216,102.5C 217.011,103.337 218.178,103.67 219.5,103.5C 219.5,105.833 219.5,108.167 219.5,110.5C 214.258,111.729 210.425,110.063 208,105.5C 207.5,92.1708 207.333,78.8375 207.5,65.5 Z" />
  </g>
  <g>
    <path style="opacity:1" fill="#5b5b5b"
      d="M 57.5,65.5 C 57.1712,71.2055 57.5046,76.8722 58.5,82.5C 59.1067,82.3764 59.44,82.0431 59.5,81.5C 74.0398,78.8782 80.8732,84.8782 80,99.5C 75.6394,109.265 68.4727,112.265 58.5,108.5C 55.5788,109.407 52.5788,109.74 49.5,109.5C 49.5,94.8333 49.5,80.1667 49.5,65.5C 52.1667,65.5 54.8333,65.5 57.5,65.5 Z" />
  </g>
  <g>
    <path style="opacity:1" fill="#5b5b5b"
      d="M 151.5,66.5 C 158.94,65.7533 160.94,68.5866 157.5,75C 150.188,75.8714 148.188,73.0381 151.5,66.5 Z" />
  </g>
  <g>
    <path style="opacity:1" fill="#bfbfbf"
      d="M 57.5,65.5 C 58.1667,70.8333 58.8333,76.1667 59.5,81.5C 59.44,82.0431 59.1067,82.3764 58.5,82.5C 57.5046,76.8722 57.1712,71.2055 57.5,65.5 Z" />
  </g>
  <g>
    <path style="opacity:1" fill="#565656"
      d="M 86.5,66.5 C 93.6758,65.9846 95.3425,68.8179 91.5,75C 84.4159,75.475 82.7492,72.6417 86.5,66.5 Z" />
  </g>
  <g>
    <path style="opacity:1" fill="#595959"
      d="M 143.5,102.5 C 144.209,103.404 145.209,103.737 146.5,103.5C 146.5,105.833 146.5,108.167 146.5,110.5C 140.808,111.74 136.974,109.74 135,104.5C 134.5,91.5043 134.333,78.5043 134.5,65.5C 137.167,65.5 139.833,65.5 142.5,65.5C 142.171,78.0113 142.505,90.3446 143.5,102.5 Z" />
  </g>
  <g>
    <path style="opacity:1" fill="#555555"
      d="M 174.5,72.5 C 174.5,75.5 174.5,78.5 174.5,81.5C 179.167,81.5 183.833,81.5 188.5,81.5C 188.5,78.5 188.5,75.5 188.5,72.5C 190.833,72.5 193.167,72.5 195.5,72.5C 195.5,75.5 195.5,78.5 195.5,81.5C 198.167,81.5 200.833,81.5 203.5,81.5C 203.5,83.8333 203.5,86.1667 203.5,88.5C 201.167,88.5 198.833,88.5 196.5,88.5C 196.5,92.8333 196.5,97.1667 196.5,101.5C 198.265,102.461 200.265,102.795 202.5,102.5C 202.5,104.833 202.5,107.167 202.5,109.5C 195.68,112.258 191.013,110.258 188.5,103.5C 188.5,98.5 188.5,93.5 188.5,88.5C 183.833,88.5 179.167,88.5 174.5,88.5C 174.183,92.7016 174.517,96.7016 175.5,100.5C 176.918,102.308 178.918,102.975 181.5,102.5C 181.5,104.833 181.5,107.167 181.5,109.5C 176.873,111.367 172.706,110.701 169,107.5C 167.584,101.285 167.084,94.9522 167.5,88.5C 165.833,88.5 164.167,88.5 162.5,88.5C 162.5,86.1667 162.5,83.8333 162.5,81.5C 164.167,81.5 165.833,81.5 167.5,81.5C 167.5,78.5 167.5,75.5 167.5,72.5C 169.833,72.5 172.167,72.5 174.5,72.5 Z" />
  </g>
  <g>
    <path style="opacity:1" fill="#adadad"
      d="M 174.5,72.5 C 172.167,72.5 169.833,72.5 167.5,72.5C 167.5,75.5 167.5,78.5 167.5,81.5C 165.833,81.5 164.167,81.5 162.5,81.5C 163.568,80.5655 164.901,80.2322 166.5,80.5C 166.5,77.5 166.5,74.5 166.5,71.5C 169.385,71.1936 172.052,71.5269 174.5,72.5 Z" />
  </g>
  <g>
    <path style="opacity:1" fill="#adadad"
      d="M 203.5,81.5 C 200.833,81.5 198.167,81.5 195.5,81.5C 195.5,78.5 195.5,75.5 195.5,72.5C 193.167,72.5 190.833,72.5 188.5,72.5C 188.5,75.5 188.5,78.5 188.5,81.5C 183.833,81.5 179.167,81.5 174.5,81.5C 174.5,78.5 174.5,75.5 174.5,72.5C 175.473,74.9479 175.806,77.6146 175.5,80.5C 179.5,80.5 183.5,80.5 187.5,80.5C 187.5,77.5 187.5,74.5 187.5,71.5C 190.5,71.5 193.5,71.5 196.5,71.5C 196.5,74.5 196.5,77.5 196.5,80.5C 199.059,80.1984 201.393,80.5318 203.5,81.5 Z" />
  </g>
  <g>
    <path style="opacity:1" fill="#b3b3b3"
      d="M 318.5,81.5 C 315.721,81.2786 313.054,81.612 310.5,82.5C 311.334,81.2521 312.667,80.5854 314.5,80.5C 316.045,80.5108 317.378,80.8442 318.5,81.5 Z" />
  </g>
  <g>
    <path style="opacity:1" fill="#585858"
      d="M 108.5,80.5 C 112.383,80.1091 116.05,80.7758 119.5,82.5C 122.421,81.5934 125.421,81.2601 128.5,81.5C 128.938,93.5758 128.438,105.576 127,117.5C 124.012,122.997 119.346,125.663 113,125.5C 107.566,125.368 103.399,123.034 100.5,118.5C 102.42,117.024 104.587,116.024 107,115.5C 110.314,117.307 113.814,117.807 117.5,117C 120.275,114.62 120.942,111.787 119.5,108.5C 107.645,112.404 100.312,108.237 97.5,96C 98.2778,88.7309 101.944,83.5642 108.5,80.5 Z" />
  </g>
  <g>
    <path style="opacity:1" fill="#5a5a5a"
      d="M 254.5,65.5 C 257.167,65.5 259.833,65.5 262.5,65.5C 262.171,71.2055 262.505,76.8722 263.5,82.5C 273.397,78.7483 280.564,81.7483 285,91.5C 286.371,100.928 282.538,107.094 273.5,110C 269.958,110.851 266.625,110.351 263.5,108.5C 260.579,109.407 257.579,109.74 254.5,109.5C 254.5,94.8333 254.5,80.1667 254.5,65.5 Z" />
  </g>
  <g>
    <path style="opacity:1" fill="#575757"
      d="M 310.5,82.5 C 313.054,81.612 315.721,81.2786 318.5,81.5C 318.5,90.8333 318.5,100.167 318.5,109.5C 315.552,109.777 312.719,109.444 310,108.5C 299.943,112.638 292.943,109.638 289,99.5C 288.423,83.9036 295.589,78.2369 310.5,82.5 Z" />
  </g>
  <g>
    <path style="opacity:1" fill="#535353"
      d="M 85.5,81.5 C 87.8333,81.5 90.1667,81.5 92.5,81.5C 92.5,90.8333 92.5,100.167 92.5,109.5C 90.1667,109.5 87.8333,109.5 85.5,109.5C 85.5,100.167 85.5,90.8333 85.5,81.5 Z" />
  </g>
  <g>
    <path style="opacity:1" fill="#575757"
      d="M 337.5,80.5 C 339.5,80.5 341.5,80.5 343.5,80.5C 343.5,83.1667 343.5,85.8333 343.5,88.5C 341.143,88.3367 338.81,88.5034 336.5,89C 335.333,89.5 334.5,90.3333 334,91.5C 333.501,97.4908 333.334,103.491 333.5,109.5C 330.833,109.5 328.167,109.5 325.5,109.5C 325.5,100.167 325.5,90.8333 325.5,81.5C 328.579,81.2601 331.579,81.5934 334.5,82.5C 335.739,82.0576 336.739,81.3909 337.5,80.5 Z" />
  </g>
  <g>
    <path style="opacity:1" fill="#7f7f7f"
      d="M 158.5,81.5 C 156.167,81.5 153.833,81.5 151.5,81.5C 151.5,90.8333 151.5,100.167 151.5,109.5C 150.506,100.014 150.173,90.3478 150.5,80.5C 153.385,80.1936 156.052,80.5269 158.5,81.5 Z" />
  </g>
  <g>
    <path style="opacity:1" fill="#545454"
      d="M 158.5,81.5 C 158.5,90.8333 158.5,100.167 158.5,109.5C 156.167,109.5 153.833,109.5 151.5,109.5C 151.5,100.167 151.5,90.8333 151.5,81.5C 153.833,81.5 156.167,81.5 158.5,81.5 Z" />
  </g>
  <g>
    <path style="opacity:1" fill="#929292"
      d="M 85.5,81.5 C 87.9479,80.5269 90.6146,80.1936 93.5,80.5C 93.8271,90.3478 93.4938,100.014 92.5,109.5C 92.5,100.167 92.5,90.8333 92.5,81.5C 90.1667,81.5 87.8333,81.5 85.5,81.5 Z" />
  </g>
  <g>
    <path style="opacity:1" fill="#f4f4f4"
      d="M 61.5,88.5 C 71.5251,87.7314 74.5251,91.8981 70.5,101C 61.961,104.451 57.7943,101.618 58,92.5C 59.3756,91.2949 60.5423,89.9616 61.5,88.5 Z" />
  </g>
  <g>
    <path style="opacity:1" fill="#f9f9f9"
      d="M 109.5,88.5 C 120.113,88.0666 122.78,92.3999 117.5,101.5C 108.698,103.866 105.198,100.533 107,91.5C 108.045,90.6266 108.878,89.6266 109.5,88.5 Z" />
  </g>
  <g>
    <path style="opacity:1" fill="#f7f7f7"
      d="M 266.5,88.5 C 274.161,87.663 277.661,90.9964 277,98.5C 272.965,103.364 268.632,103.698 264,99.5C 261.584,95.0776 262.417,91.4109 266.5,88.5 Z" />
  </g>
  <g>
    <path style="opacity:1" fill="#f6f6f6"
      d="M 299.5,88.5 C 310.818,87.99 313.485,92.49 307.5,102C 299,103.5 295.5,100 297,91.5C 298.045,90.6266 298.878,89.6266 299.5,88.5 Z" />
  </g>
  <g>
    <path style="opacity:1" fill="#565656"
      d="M 249.5,90.5 C 249.5,92.8333 249.5,95.1667 249.5,97.5C 242.646,97.176 235.979,97.5093 229.5,98.5C 233.225,104.341 237.892,105.008 243.5,100.5C 245.167,101.833 246.833,103.167 248.5,104.5C 242.932,110.515 236.265,112.015 228.5,109C 221.971,104.08 219.804,97.5805 222,89.5C 228.831,79.0729 237.165,77.7395 247,85.5C 247.847,87.1932 248.68,88.8599 249.5,90.5 Z" />
  </g>
  <g>
    <path style="opacity:1" fill="#e8e8e8"
      d="M 233.5,87.5 C 237.257,87.3016 240.257,88.6349 242.5,91.5C 238.167,92.8333 233.833,92.8333 229.5,91.5C 230.549,89.7844 231.882,88.4511 233.5,87.5 Z" />
  </g>
  <g>
    <path style="opacity:1" fill="#cacaca"
      d="M 188.5,103.5 C 187.514,99.03 187.181,94.3633 187.5,89.5C 183.5,89.5 179.5,89.5 175.5,89.5C 175.5,93.1667 175.5,96.8333 175.5,100.5C 174.517,96.7016 174.183,92.7016 174.5,88.5C 179.167,88.5 183.833,88.5 188.5,88.5C 188.5,93.5 188.5,98.5 188.5,103.5 Z" />
  </g>
  <g>
    <path style="opacity:1" fill="#8a8a8a"
      d="M 249.5,90.5 C 250.473,92.9479 250.806,95.6146 250.5,98.5C 243.5,98.5 236.5,98.5 229.5,98.5C 235.979,97.5093 242.646,97.176 249.5,97.5C 249.5,95.1667 249.5,92.8333 249.5,90.5 Z" />
  </g>
  <g>
    <path style="opacity:1" fill="#cecece"
      d="M 196.5,101.5 C 198.833,101.5 201.167,101.5 203.5,101.5C 203.806,104.385 203.473,107.052 202.5,109.5C 202.5,107.167 202.5,104.833 202.5,102.5C 200.265,102.795 198.265,102.461 196.5,101.5 Z" />
  </g>
  <g>
    <path style="opacity:1" fill="#dc7962"
      d="M 350.5,108.5 C 351.508,103.333 349.675,101.666 345,103.5C 343.823,107.492 345.323,109.158 349.5,108.5C 343.997,110.494 342.164,108.494 344,102.5C 346.966,99.7348 349.633,100.068 352,103.5C 352.877,105.674 352.377,107.341 350.5,108.5 Z" />
  </g>
  <g>
    <path style="opacity:1" fill="#f0673d"
      d="M 350.5,108.5 C 350.167,108.5 349.833,108.5 349.5,108.5C 345.323,109.158 343.823,107.492 345,103.5C 349.675,101.666 351.508,103.333 350.5,108.5 Z" />
  </g>
  <g>
    <path style="opacity:1" fill="#b5b5b5"
      d="M 143.5,102.5 C 144.833,102.5 146.167,102.5 147.5,102.5C 147.806,105.385 147.473,108.052 146.5,110.5C 146.5,108.167 146.5,105.833 146.5,103.5C 145.209,103.737 144.209,103.404 143.5,102.5 Z" />
  </g>
</svg>