<?xml version="1.0" encoding="UTF-8"?>
<svg id="logo-nafnaf" viewBox="0 0 161 32" fill="none" xmlns="http://www.w3.org/2000/svg">
  <path
    d="M0.79702 1.68945H4.51382C9.82698 5.52269 15.2409 9.42878 20.796 13.435V1.7805H24.6297V18.4974C23.6057 18.5748 22.5697 18.5157 21.4893 18.5293C15.9262 14.5003 10.3349 10.4531 4.6025 6.30573C4.57428 10.4303 4.59444 14.4047 4.57428 18.4383C3.92929 18.6067 3.29235 18.502 2.65945 18.5202C2.04267 18.5384 1.42992 18.5202 0.825239 18.5202C0.655927 17.8282 0.63174 2.71378 0.79702 1.68945Z"
    fill="currentColor"></path>
  <path
    d="M109.85 18.5063H106.673C101.122 14.4864 95.531 10.4391 89.8309 6.31454V18.5154C89.1214 18.5154 88.4885 18.5245 87.8596 18.5245C87.2468 18.5245 86.6341 18.5245 85.9609 18.5245V1.74379C86.5656 1.54348 87.1783 1.67095 87.783 1.64818C88.3716 1.62542 88.9642 1.64363 89.6616 1.64363C95.0231 5.50874 100.457 9.42848 106.008 13.4302V1.79842H109.85V18.5063Z"
    fill="currentColor"></path>
  <path
    d="M140.725 18.556H136.395C135.041 16.9398 133.662 15.2918 132.276 13.6392H120.23C118.968 15.2372 117.686 16.8624 116.376 18.515H111.954C116.808 12.3372 121.605 6.23224 126.402 0.131836C126.958 0.518802 139.387 16.5073 140.725 18.556V18.556ZM130.195 10.4934C128.946 8.82719 127.74 7.2247 126.483 5.55391C125.189 7.21104 123.939 8.80443 122.617 10.4934H130.191H130.195Z"
    fill="currentColor"></path>
  <path
    d="M41.2827 0C46.0597 6.20056 50.7561 12.2919 55.5613 18.5288C54.7148 18.6199 54.0093 18.5698 53.3079 18.5789C52.6105 18.588 51.9171 18.5789 51.1996 18.5789C49.8088 16.9172 48.4301 15.2692 47.0554 13.6303H35.0222C33.7363 15.251 32.4503 16.8763 31.1522 18.5152H26.7461C31.5957 12.3055 36.417 6.21422 41.2827 0ZM44.9874 10.5073C43.7216 8.81827 42.5203 7.22033 41.2626 5.545C39.9685 7.20668 38.7189 8.80917 37.3926 10.5073H44.9874V10.5073Z"
    fill="currentColor"></path>
  <path
    d="M160.107 8.66768V11.7998H146.526V18.5604H142.999V1.83887H160.091V4.88452H146.651V8.66768H160.111H160.107Z"
    fill="currentColor"></path>
  <path
    d="M74.9474 1.83008V4.89849C70.4566 4.9076 65.9658 4.89394 61.4387 4.89849V8.68621H74.8829V11.8001C72.6496 11.8366 70.4122 11.8093 68.1709 11.8138C65.9174 11.8184 63.668 11.8138 61.3097 11.8138V18.5834H57.863C57.6856 17.9097 57.6494 3.10024 57.8227 1.83463H74.9474V1.83008Z"
    fill="currentColor"></path>
  <path
    d="M85.0942 28.9273C85.8964 29.5874 85.4611 30.7665 85.8198 31.7589H84.9854C84.9128 31.2081 84.8644 30.6754 84.7717 30.1473C84.6548 29.4736 84.4533 29.2778 83.8486 29.2596C83.1633 29.2368 82.4739 29.255 81.7322 29.255V31.7498L80.9582 31.8272V25.7815C82.22 25.7815 83.4455 25.6995 84.6629 25.8088C85.6384 25.8953 86.0778 27.3293 85.5054 28.2899C85.3764 28.5084 85.2313 28.7178 85.0942 28.9273V28.9273ZM81.7443 28.4174C82.615 28.4766 83.4616 28.5494 84.3001 28.3764C84.7637 28.2808 84.9612 27.9029 84.9209 27.3839C84.8846 26.9196 84.6468 26.5736 84.2194 26.5554C83.4051 26.5144 82.5868 26.5417 81.7443 26.5417V28.4174V28.4174Z"
    fill="currentColor"></path>
  <path
    d="M97.474 27.4332H96.7202C96.4058 26.5181 95.7124 26.2996 94.9102 26.3725C94.6764 26.3952 94.3982 26.4453 94.237 26.6092C94.0394 26.805 93.8379 27.1327 93.8338 27.4059C93.8338 27.6153 94.1039 27.9294 94.3135 28.0205C94.7046 28.1935 95.14 28.239 95.5592 28.3392C95.9502 28.4348 96.3574 28.4894 96.7242 28.6533C97.8046 29.1313 97.982 30.6018 97.0749 31.4303C96.2244 32.2043 94.2813 32.1861 93.4388 31.3939C93.0477 31.0252 92.8542 30.5472 92.826 29.8916L93.4992 29.796C93.5597 29.9007 93.6081 29.969 93.6363 30.0464C94.0636 31.18 95.6156 31.6307 96.4864 30.8749C97.0024 30.4288 96.95 29.7049 96.3413 29.45C95.8696 29.2542 95.3536 29.2087 94.8578 29.0812C94.495 28.9856 94.116 28.9219 93.7814 28.7489C92.9066 28.2982 92.7051 27.1418 93.3581 26.336C93.5476 26.0993 93.8137 25.899 94.0797 25.7897C94.8618 25.4711 95.66 25.4984 96.434 25.8307C97.0306 26.0857 97.3652 26.6092 97.4821 27.4287L97.474 27.4332Z"
    fill="currentColor"></path>
  <path
    d="M65.4861 25.7355C66.5504 25.7355 67.5662 25.6763 68.57 25.7537C69.5375 25.8266 70.0213 26.4411 70.0414 27.4199C70.0616 28.4625 69.5294 29.2136 68.574 29.3184C67.8363 29.4003 67.0865 29.3366 66.2722 29.3366V31.7449L65.4861 31.8268V25.7401V25.7355ZM66.2682 28.5581C66.9454 28.5581 67.5541 28.5717 68.1588 28.5581C68.8159 28.5399 69.0457 28.3487 69.1747 27.7841C69.3037 27.2287 69.2029 26.992 68.6789 26.5732H66.2641V28.5626L66.2682 28.5581Z"
    fill="currentColor"></path>
  <path
    d="M78.0435 31.7854H77.1485L76.4431 30.0736H73.8228C73.601 30.5971 73.3672 31.1662 73.1173 31.758H72.2748C73.0971 29.7049 73.8873 27.7336 74.6855 25.7441H75.6288C76.4229 27.7245 77.209 29.6957 78.0475 31.7854H78.0435ZM76.1206 29.2177C75.794 28.2981 75.5199 27.5014 75.1007 26.6137C74.7379 27.5788 74.4395 28.3664 74.1211 29.2177H76.1206Z"
    fill="currentColor"></path>
  <path d="M89.6937 31.7951H89.0003V25.7949L89.6937 25.7402V31.7951Z" fill="currentColor"></path>
</svg>